<svg xmlns="http://www.w3.org/2000/svg" viewBox="0 0 127.15 110.38">
  <title>armor</title>
  <g id="Layer_2" data-name="Layer 2">
    <g id="Layer_1-2" data-name="Layer 1">
      <path d="M52.92,105.41c-11.44-3.88-21.48-8.87-22.71-22.21-1.09-11.83.21-24.17.5-36,.08-3.22-4.92-3.22-5,0l-.58,23.7c-.15,6.33-.56,13,1.24,19.12,3.45,11.85,14.45,16.59,25.22,20.24,3,1,4.36-3.79,1.33-4.82Z"/>
      <path d="M27.72,7C17.6,7.88,5.46,13.65,2.54,24.29S12.13,42.4,21,44.24c11.79,2.45,19.27-5.5,25-14.71,2.92-4.68,4.88-10.07,2.68-15.46A13.9,13.9,0,0,0,38.49,5.8C35.35,5.15,34,10,37.16,10.62c4,.82,7.43,3.81,7.58,8.16.14,4.12-2.71,7.88-5,11.08C35,36.67,29.59,41.34,20.76,39c-7.1-1.85-17.12-7.89-12.15-16.31C12.45,16.21,20.46,12.62,27.72,12c3.18-.29,3.21-5.29,0-5Z"/>
      <path d="M87.48,7.74c-4.56,2-7,6.15-8.31,10.76-1.19,4.13-2.9,10.19.49,13.71,3.78,3.92,11,6,16.07,7.89A94.76,94.76,0,0,0,116,45c5,.64,8.92,0,9.9-5.62.83-4.82-.68-10.36-2.57-14.74A34.59,34.59,0,0,0,99.91,4.7c-3.12-.76-4.46,4.06-1.33,4.82a29.7,29.7,0,0,1,22,23.05,14.5,14.5,0,0,1,.44,4.88c-.82,3.81-3.77,2.76-7,2.24a90.78,90.78,0,0,1-24.52-7.55c-2.33-1.11-6.45-2.44-6.85-5.53-.17-1.38.47-3.38.8-4.79.94-4.14,2.38-8,6.51-9.76,3-1.28.4-5.59-2.52-4.32Z"/>
      <path d="M102.45,45.22l.76,23.55.38,11.77c.14,4.26,1,9-3.17,11.58-12.08,7.61-28,14.51-42.5,12.3-3.15-.48-4.51,4.34-1.33,4.82a50.88,50.88,0,0,0,25.12-2.82c7.56-2.7,16-6.14,22.5-10.79,6.18-4.39,4.46-12.45,4.25-19l-1-31.39c-.11-3.21-5.11-3.23-5,0Z"/>
      <path d="M41.4,76.42C56.63,89.93,77.73,79.73,94,73.94c3-1.07,1.71-5.9-1.33-4.82-14,5-34.38,15.6-47.72,3.76-2.4-2.13-5.95,1.39-3.54,3.54Z"/>
      <path d="M47.67,55.18a53.08,53.08,0,0,0,45.6-6.81c2.65-1.8.15-6.13-2.52-4.31A48.26,48.26,0,0,1,49,50.35c-3.08-1-4.4,3.87-1.33,4.83Z"/>
      <path d="M45.35,22.83a16.8,16.8,0,0,0,14.27,9.66,15.68,15.68,0,0,0,8.19-1.63c3.63-1.88,6.46-6.39,10.86-6.18,3.22.16,3.21-4.84,0-5-5.93-.28-8.51,4.6-13.38,6.86-6,2.8-13-.44-15.62-6.24-1.31-2.93-5.62-.39-4.32,2.53Z"/>
      <path d="M47.22,11.59C59,6.34,73.23.93,84.92,9.42c2.6,1.9,5.1-2.44,2.52-4.31C74.22-4.5,58.08,1.33,44.69,7.27c-2.93,1.31-.39,5.61,2.53,4.32Z"/>
      <path d="M6.11,37.08C-.86,41.26-2.28,52,4,57.5c1.67,1.46,3.86,2,5.65,3.2,2.1,1.45,2.86,3.92,5.46,4.7,4.93,1.47,8.32-3,10.21-6.77,1.43-2.88-2.88-5.41-4.32-2.53-1,1.92-2.79,4.24-5.43,3.51,0,0-1.9-2.17-1.91-2.17-1.72-1.48-4-1.93-5.8-3.27C3.64,51,4.2,44.05,8.63,41.4c2.76-1.65.25-6-2.52-4.32Z"/>
      <path d="M117.14,46.64l3.53,5.47a22.89,22.89,0,0,0,1.78,2.27c0,.49-2.1,1.61-2.44,1.83a25.76,25.76,0,0,1-12.6,4c-3.2.17-3.22,5.17,0,5,6.35-.35,12.86-2.38,17.76-6.58,5.13-4.4-1-10.34-3.71-14.5-1.74-2.69-6.07-.19-4.32,2.52Z"/>
      <path d="M36.92,92.6c3.21,0,3.22-5,0-5s-3.23,5,0,5Z"/>
      <path d="M40,95.66c3.21,0,3.22-5,0-5s-3.23,5,0,5Z"/>
      <path d="M36.92,83.42c3.21,0,3.22-5,0-5s-3.23,5,0,5Z"/>
      <path d="M42,88.52c3.21,0,3.22-5,0-5s-3.23,5,0,5Z"/>
      <path d="M48.14,92.6c3.22,0,3.22-5,0-5s-3.22,5,0,5Z"/>
      <path d="M46.1,101.78c3.22,0,3.22-5,0-5s-3.22,5,0,5Z"/>
      <path d="M85.89,97.7c3.22,0,3.23-5,0-5s-3.22,5,0,5Z"/>
      <path d="M94.06,95.66c3.22,0,3.22-5,0-5s-3.22,5,0,5Z"/>
      <path d="M99.16,91.58c3.22,0,3.22-5,0-5s-3.22,5,0,5Z"/>
      <path d="M92,87.5c3.21,0,3.22-5,0-5s-3.23,5,0,5Z"/>
      <path d="M83.85,90.56c3.22,0,3.23-5,0-5s-3.22,5,0,5Z"/>
      <path d="M97.12,81.38c3.22,0,3.22-5,0-5s-3.22,5,0,5Z"/>
      <path d="M17.53,55.87c3.21,0,3.22-5,0-5s-3.23,5,0,5Z"/>
      <path d="M10.38,52.8c3.22,0,3.23-5,0-5s-3.22,5,0,5Z"/>
      <path d="M11.4,45.66c3.22,0,3.23-5,0-5s-3.22,5,0,5Z"/>
      <path d="M17.53,49.74c3.21,0,3.22-5,0-5s-3.23,5,0,5Z"/>
      <path d="M22.63,54.85c3.22,0,3.22-5,0-5s-3.22,5,0,5Z"/>
      <path d="M107.32,57.91c3.22,0,3.23-5,0-5s-3.22,5,0,5Z"/>
      <path d="M114.47,57.91c3.21,0,3.22-5,0-5s-3.23,5,0,5Z"/>
      <path d="M118.55,54.85c3.22,0,3.22-5,0-5s-3.22,5,0,5Z"/>
      <path d="M112.43,53.83c3.21,0,3.22-5,0-5s-3.23,5,0,5Z"/>
      <path d="M111.4,50.76c3.22,0,3.23-5,0-5s-3.22,5,0,5Z"/>
      <path d="M50.89,18.2a28.86,28.86,0,0,0,15.31-10c2-2.5-1.55-6.07-3.53-3.54a24.46,24.46,0,0,1-13.11,8.75c-3.1.84-1.79,5.66,1.33,4.82Z"/>
      <path d="M55.42,27.84,77.24,11c2.52-1.93,0-6.28-2.52-4.31L52.9,23.52c-2.52,1.94,0,6.28,2.52,4.32Z"/>
      <path d="M69.22,26.21a18,18,0,0,0,9.25-4.76c2.34-2.22-1.2-5.75-3.53-3.53a13.48,13.48,0,0,1-7,3.47c-3.17.56-1.83,5.38,1.33,4.82Z"/>
    </g>
  </g>
</svg>
