<svg xmlns="http://www.w3.org/2000/svg" viewBox="0 0 89.91 56.14">
  <title>ashes</title>
  <g id="Layer_2" data-name="Layer 2">
    <g id="Layer_1-2" data-name="Layer 1">
      <path d="M3.59,48.88A295,295,0,0,0,41.45,15.51c1.23-1.29,2.45-2.6,3.65-3.91s3.11-4.48,4.75-5.31c.54-1.15,1.31-1.24,2.32-.27a2.47,2.47,0,0,1,2.22,1.71c1.39,1.49,2.38,3.71,3.59,5.38A87.22,87.22,0,0,0,72.72,29c4.58,3.82,19.38,12.63,7.61,17C76.77,47.29,72.69,47.3,69,47.65L55.64,48.88c-8.27.77-16.57,1.83-24.87,2.19-7.92.34-16.31-.25-22.08-6.35-2.22-2.34-5.75,1.2-3.54,3.54C15,58.63,30.5,56.21,43.29,55l27.56-2.56c5.41-.5,12-.7,16.19-4.65,4.06-3.8,3.53-9.4.17-13.45C82.54,28.75,75.46,25.18,70.29,20a81.91,81.91,0,0,1-8-9.36C60.42,8,59,4.91,56.8,2.56,52.23-2.38,48.2.65,44.55,4.76A287.33,287.33,0,0,1,1.07,44.56c-2.55,1.9-.06,6.25,2.52,4.32Z"/>
      <path d="M16.71,44.2c3.22,0,3.22-5,0-5s-3.22,5,0,5Z"/>
      <path d="M21.81,47.27c3.22,0,3.22-5,0-5s-3.22,5,0,5Z"/>
      <path d="M29,49.31c3.22,0,3.23-5,0-5s-3.22,5,0,5Z"/>
      <path d="M29,37.06c3.22,0,3.23-5,0-5s-3.22,5,0,5Z"/>
      <path d="M41.2,43.18c3.22,0,3.22-5,0-5s-3.22,5,0,5Z"/>
      <path d="M79,44.2c3.22,0,3.23-5,0-5s-3.22,5,0,5Z"/>
      <path d="M65.69,47.27c3.22,0,3.22-5,0-5s-3.22,5,0,5Z"/>
      <path d="M71.81,40.12c3.22,0,3.22-5,0-5s-3.22,5,0,5Z"/>
      <path d="M58.55,34c3.21,0,3.22-5,0-5s-3.23,5,0,5Z"/>
    </g>
  </g>
</svg>
