<svg xmlns="http://www.w3.org/2000/svg" viewBox="0 0 227.8 247.95">
  <title>bebolder</title>
  <g id="Layer_2" data-name="Layer 2">
    <g id="Layer_1-2" data-name="Layer 1">
      <path d="M133.4,237.44c-27.74,8.53-59.53,1.78-80.95-18s-30.7-51.12-24.13-79.33c3.57-15.36,12.51-31.76,28.89-35.9A2.54,2.54,0,0,0,59,101.78c0-19.37-15.5-35.24-34.59-36.66-5.71-.42-12.92.29-17.17-4.35C5.5,58.83,3.86,55.46,5.44,52.9c2.1-3.41,7.48-2.27,10.54-1.61,11.9,2.57,24.17,5.67,35.75,9.43,8.37,2.71,20.16,7.77,21,18,.67,8.25-5.86,20.33,6,23.8,7.51,2.2,15.22-2.61,18.89-9,4-7,4.48-16,2.15-23.54C96.23,58.58,87.19,50,80,41c-8.11-10.1-16-24.88-7.78-37.2l-3.93.5A173,173,0,0,1,115,104.6c.18,1.63,2.09,3.46,3.77,2.16a64.9,64.9,0,0,0,21.59-29c4.93-13.37,2.46-30.21,11.31-42,4.12-5.46,11.13-10.07,18.17-7.47,5.66,2.1,8.35,8.45,8.79,14.07,1.07,13.52-10.23,23.11-19.5,31.13-10.58,9.16-21.82,19.91-21.66,35a2.54,2.54,0,0,0,1.84,2.41c12.4,2.23,23.41-4.32,32.07-12.68,9.21-8.88,17.46-21.63,30.79-24.43,5.59-1.18,12.27-.68,16.8,3.17,3.54,3,5.7,8.44.7,11.38a100.63,100.63,0,0,1-11.36,5.24q-9.76,4.2-19.84,7.57c-6.45,2.17-13.25,3.57-19.51,6.24-7.52,3.2-17.62,10.84-12,20.09,2.37,3.91,6.82,5.53,11,6.82,6.48,2,11.81,4.18,16,9.81,7.08,9.47,9.42,22.26,11.81,33.6,3,14.24,4.77,30.07-3.09,43.14C179.28,243,147.84,245.5,125,241.19c-3.15-.59-4.5,4.23-1.33,4.82,21.36,4,46.76,2.53,64.13-12,22.24-18.59,15.82-50.6,8.46-74.91-3.27-10.77-8.61-22.28-19.5-27.09-4.78-2.11-14.75-2.64-16.25-8.7-1.65-6.68,8.7-10.9,13.47-12.51,15-5,29.89-9.52,44.31-16.27,5.15-2.41,10.34-5.36,9.43-11.9-.77-5.45-5-9.94-9.86-12.2-12.12-5.63-25.18.08-34.44,8.3-12.08,10.73-23.93,30.75-42.82,27.35l1.84,2.41c-.33-29.85,46.36-37.16,40.79-69.18C181.41,29,172.76,20.55,161.76,23,147.17,26.22,142,41.76,140,54.72,138.63,64,137.47,73,133.31,81.5a59.66,59.66,0,0,1-17.12,21L120,104.6A178.56,178.56,0,0,0,71.78.73a2.53,2.53,0,0,0-3.93.5c-13.38,20.19,6.89,40.35,18.5,55.23C93,65,98.2,75,95.25,86,94,90.56,91.42,94.86,87,96.88c-2.55,1.17-6.23,1.82-8.69,0-3.68-2.74-1.86-8.08-1.22-11.73C80.78,64.08,58.88,57.26,42.55,53L24.16,48.23c-5-1.31-10.75-3.42-16-2.38-8.44,1.66-10.3,10.54-5.58,17,7.25,9.9,21.23,5.34,31.25,9.27A32.45,32.45,0,0,1,54,101.78l1.84-2.41c-31.15,7.87-38.07,49.28-32.93,76a86.67,86.67,0,0,0,59,66.51,88.9,88.9,0,0,0,52.79.33c3.07-.94,1.76-5.77-1.33-4.82Z"/>
      <path d="M63.93,154.55a90.55,90.55,0,0,0,40.47,2.63C113.32,155.72,130,153,132,142c.58-3.15-4.24-4.5-4.82-1.33-1,5.27-6.82,7.14-11.31,8.62A83.12,83.12,0,0,1,98.5,153a85.7,85.7,0,0,1-33.24-3.23c-3.09-.92-4.41,3.91-1.33,4.82Z"/>
      <path d="M81.11,163.74c-6.35,3.62-15.34,11.25-9.47,19.36,2.55,3.52,7.17,3.83,11.13,4.31a107.35,107.35,0,0,0,19.3.6c7.67-.48,18-2.47,20.78-10.86,2.23-6.68-1.13-14.38-8.44-15.24-3.19-.38-3.17,4.63,0,5,6.72.79,3.89,10.25.35,12.73-4.62,3.23-11,3.39-16.37,3.52A93.75,93.75,0,0,1,80,182c-3.85-.68-6-3.56-4.32-7.25,1.47-3.2,5.06-5.05,8-6.71s.28-5.92-2.53-4.32Z"/>
      <path d="M91.61,176c-1-1.31.12-3.73,1.42-4.39,1.56-.79,2.69.81,2.88,2.23s-.47,2.79-2,2.26a3.32,3.32,0,0,1-1.84-1.82c0-.09-.13-1-.14-1-.24-.26,1.29-.42-.39.13-.64.21-.37.56-.42.12a2.58,2.58,0,0,0,2.5,2.5,2.52,2.52,0,0,0,2.5-2.5,5.15,5.15,0,0,0-4.8-4.8c-2.71-.12-4.34,2-4.4,4.59A8,8,0,0,0,95,181.17c4.6-.31,6.75-5.18,5.61-9.24-1.18-4.21-5.6-6.89-9.74-4.84a8.29,8.29,0,0,0-2.79,12.41c2,2.53,5.5-1,3.54-3.53Z"/>
      <path d="M77,225.16A50,50,0,0,0,91.17,213.8l-3.93-.51c5.83,12,23,7.85,23.41-5.22l-4.27,1.77a66.21,66.21,0,0,0,11.06,8.45c2.83,1.7,6.26,3.87,9.65,2.66,1.53-.55,1.94-1.41,3-2.55,2.69-3,4.6-3.21,7.68-.43s5.35,5.77,9.65,6.54c3.14.57,4.49-4.25,1.32-4.82-6.78-1.22-10.21-11.77-18.48-8.87a6.51,6.51,0,0,0-2.9,2.06c-1.59,2-1.14,3.79-4.46,2.73-4.7-1.51-9.41-6-12.94-9.31a2.53,2.53,0,0,0-4.27,1.77c-.29,8.37-10.58,10-14.09,2.7a2.52,2.52,0,0,0-3.93-.51,45.93,45.93,0,0,1-13.19,10.58c-2.84,1.53-.31,5.85,2.52,4.32Z"/>
      <path d="M18.33,56.91c-.22.41-.13.36-.51.42.51-.08-.61,0-.35,0,0,0-.59-.14-.76-.21s-.78-.56-.68-.42c-.2-.26-.26-.27-.13-.48,0,.05.12-.11.07-.09A2.24,2.24,0,0,1,17,56a3.69,3.69,0,0,1,.79.21c-.42-.17.65.44.26.15.4.3,0-.16.24.27l0,.1c0-.23,0-.18,0,.14-.05,3.22,4.95,3.22,5,0,.1-6.42-10.45-8.22-12.24-2S19.6,65.3,22.65,59.44c1.48-2.86-2.84-5.39-4.32-2.53Z"/>
      <path d="M77.18,19.58a3.46,3.46,0,0,1-1-2.82l-1.84,2.41c1.68-.38,3.86,1.45,3.55,3.23a2.5,2.5,0,0,0,4.82,1.33,8.17,8.17,0,0,0-9.7-9.38,2.53,2.53,0,0,0-1.83,2.41,8.32,8.32,0,0,0,2.43,6.35c2.24,2.31,5.78-1.22,3.53-3.53Z"/>
      <path d="M165.4,50c-4.91-1.92-3.46-9.64,2-9.3,5.89.37,5.76,8.33.43,9.57-3.13.73-1.8,5.55,1.33,4.82a10.45,10.45,0,0,0,7.76-10.74c-.34-5-4.65-8.47-9.52-8.65a9.38,9.38,0,0,0-9.86,8,10.4,10.4,0,0,0,6.57,11.08c3,1.17,4.3-3.66,1.33-4.82Z"/>
      <path d="M202.1,91.19c-3.45-.08-6.52-5.19-3.68-7.92,2.54-2.45,7.22-.52,8,2.59l1.75-3.07A58.69,58.69,0,0,1,192,86.43c-3.19.24-3.21,5.24,0,5a63.26,63.26,0,0,0,17.56-3.82,2.57,2.57,0,0,0,1.74-3.08c-1.79-7.09-11.93-10-16.86-4.25-5.22,6,.25,15.74,7.71,15.91,3.22.07,3.22-4.93,0-5Z"/>
      <path d="M183.51,218.17c3.22,0,3.22-5,0-5s-3.22,5,0,5Z"/>
      <path d="M186.89,191.14c3.21,0,3.22-5,0-5s-3.23,5,0,5Z"/>
      <path d="M158.17,191.14c3.21,0,3.22-5,0-5s-3.23,5,0,5Z"/>
    </g>
  </g>
</svg>
