<svg xmlns="http://www.w3.org/2000/svg" viewBox="0 0 92.21 45.44">
  <title>belt</title>
  <g id="Layer_2" data-name="Layer 2">
    <g id="Layer_1-2" data-name="Layer 1">
      <path d="M37.3,22.64,38.51,43c.19,3.2,5.19,3.22,5,0L42.3,22.64c-.19-3.2-5.19-3.22-5,0Z"/>
      <path d="M41,28.8a11.15,11.15,0,0,1,19.23,1.48c.84,1.74,1.56,3.55.4,5.29-1.28,1.93-3.82,1.48-6,1.65a124.7,124.7,0,0,1-12.53.25c-3.22-.09-3.21,4.91,0,5a129.13,129.13,0,0,0,13.49-.32c2.57-.21,5.81-.12,8-1.73,4.26-3.15,2.84-9.72.53-13.62-6.28-10.56-20.55-10-27.4-.52-1.89,2.61,2.44,5.11,4.31,2.52Z"/>
      <path d="M38,30C32.24,30.29,3.1,28.32,9.46,16.8c2.47-4.47,9.05-6,13.54-7.34A127.32,127.32,0,0,1,40.68,5.57C43.85,5.09,42.5.27,39.35.75,30.83,2,22,3.84,14.07,7.27,9.17,9.39,3.91,13,3.66,18.9,3,33.66,28.15,35.52,38,35c3.2-.18,3.22-5.18,0-5Z"/>
      <path d="M38,38.79c-7.3-.94-14.78-1.51-22-2.93-3.48-.69-7.75-1.83-9.8-5-1.64-2.52-2-6.48.82-8.32s.17-6.09-2.53-4.32c-6.63,4.38-5.4,13.84.4,18.43,3.87,3.06,8.85,4,13.61,4.64,6.5.9,13,1.67,19.51,2.51,3.19.41,3.16-4.6,0-5Z"/>
      <path d="M16.05,27.35c8.27-11.88,25.05-9.29,37.52-9.58,3.22-.07,3.23-5.07,0-5C38.82,13.12,21.35,11,11.73,24.82c-1.84,2.65,2.5,5.15,4.32,2.53Z"/>
      <path d="M43.18,5l21.47.44c6.79.14,15.92-1,20.32,5.37,3.83,5.56,2.41,12.75-2.22,17.33-1,.95-6.4,5.68-7.52,3.07-1-2.3,3-8.19,4.11-10.15,1.6-2.8-2.72-5.32-4.32-2.52-2.35,4.1-9.48,18.18.21,18.77C83.42,37.81,91,27.74,92,20.52,93.13,12.8,88.8,4.67,81.34,2,75.81,0,69.44.54,63.67.42L43.18,0C40-.06,40,4.94,43.18,5Z"/>
      <path d="M79.06,20.7l8.17-4.08c2.88-1.44.35-5.76-2.53-4.32l-8.16,4.08c-2.88,1.44-.35,5.76,2.52,4.32Z"/>
      <path d="M54,17.86a52.77,52.77,0,0,1,28.22-2.77c3.15.55,4.5-4.27,1.33-4.82A57.84,57.84,0,0,0,52.64,13c-3,1.13-1.69,6,1.33,4.82Z"/>
      <path d="M41.91,32.85a13.59,13.59,0,0,0,14.82-.79c2.54-1.91.05-6.25-2.53-4.32a8.68,8.68,0,0,1-9.77.79c-2.81-1.58-5.33,2.73-2.52,4.32Z"/>
      <path d="M49,38.6l7.08-2.24c3.06-1,1.75-5.79-1.33-4.82l-7.08,2.24c-3.06,1-1.75,5.79,1.33,4.82Z"/>
    </g>
  </g>
</svg>
