<svg xmlns="http://www.w3.org/2000/svg" viewBox="0 0 362.54 82.4">
  <title>big_bone</title>
  <g id="Layer_2" data-name="Layer 2">
    <g id="Layer_1-2" data-name="Layer 1">
      <path d="M122.24,73.17c-29.76,3.36-58.59-9.06-88.31-6.43-6.39.57-13,2.77-19.41,2.19-3.84-.34-7.35-1.94-9-5.62-2.47-5.54,2-7.17,6.38-8.55,9.48-2.95,10.29-10.63,10.87-19.45.27-4.08.6-11.32,6.39-11.13,5.3.19,9.49,7.89,12.23,11.54A36.44,36.44,0,0,0,66.11,50.37C77,52,88,50.67,98.85,49.13c14.39-2.06,28.73-3.58,43.25-4.22,30-1.32,60.1-.13,90.11-1.82a322.17,322.17,0,0,0,42.13-4.87c6.53-1.24,13-2.75,19.4-4.59s13.34-3.47,18.6-7.47c4-3,5.59-7.16,6.93-11.81.63-2.15,1.08-4.61,2.41-6.45,2.89-4,8-3.38,11.3-.2,8.76,8.5-3.69,23.77,7.18,30.53,3.7,2.3,8.18,2.35,12.23,3.64,10.08,3.23,2.84,12.8-4.8,13.15-6.62.3-13.46-2.05-20-2.87A145.94,145.94,0,0,0,308,51.07c-60.81.62-118.35,34.62-179.73,24.62-3.15-.51-4.5,4.31-1.33,4.82,59.56,9.7,115.06-21,173.7-24.2a155.52,155.52,0,0,1,21.26.25c7.54.62,14.85,2.67,22.36,3.33,5.75.51,11.65-.64,15.45-5.29,3-3.65,4-8.82,1.26-12.87-2.64-3.84-7.37-4.8-11.63-5.72-2.11-.45-4.84-.76-6.6-2.1-3.62-2.73-1.89-7.52-1.44-11.33,1.19-10-3.39-24.32-16.16-22.41-5,.75-7.91,4.65-9.53,9.15-1,2.74-1.44,5.65-2.64,8.3-1.86,4.1-5.65,6.18-9.7,7.73-15.07,5.76-31.49,8.77-47.45,10.71C223.56,40,191,38.77,158.66,39.4a452.64,452.64,0,0,0-48.54,3.11c-13,1.66-26.07,4.45-39.24,3.41C64.51,45.41,58,43.85,52.7,40.2s-8.27-9.21-12.29-14c-2.83-3.37-6.55-6.92-11.24-7a10.4,10.4,0,0,0-9.52,6.19c-1.85,3.92-1.74,8.52-2,12.75a23,23,0,0,1-1.25,7.23c-1.58,3.77-5.16,4.25-8.67,5.38-10.29,3.33-9.84,15.74-1.11,21,5.75,3.45,12.9,2.24,19.13,1.19A105.41,105.41,0,0,1,50.1,71.67c16.37,1.07,32.39,5,48.71,6.55a114,114,0,0,0,23.43,0c3.16-.36,3.2-5.36,0-5Z"/>
    </g>
  </g>
</svg>
