<svg xmlns="http://www.w3.org/2000/svg" viewBox="0 0 433.12 106.21">
  <title>big_carrot</title>
  <g id="Layer_2" data-name="Layer 2">
    <g id="Layer_1-2" data-name="Layer 1">
      <path d="M276.24,37.08c-71.51,4.5-143.31,9-213.77,22.74Q32.46,65.66,3,73.89c-2.7.76-2.19,4.93.66,4.91l162.94-.67,79.48-.33c13.65-.06,27.33.12,41-.18,7.75-.18,16.49-1.08,22.93-5.81,7.6-5.59,8.64-15.57,3.43-23.22-6.72-9.85-19.09-11.34-30.07-11.68-3.21-.1-3.21,4.9,0,5,10.36.32,24.7,1.86,28,13.86C314.19,66,303.57,70.66,295.43,72c-10.27,1.62-21.13.72-31.48.76l-35.77.15-143.06.6L3.65,73.8l.67,4.92C73.3,59.27,144.72,51.31,216,46.08c20.07-1.47,40.15-2.74,60.23-4,3.2-.2,3.22-5.21,0-5Z" transform="translate(-1.22)"/>
      <path d="M312.6,53.71c23.07,8.46,50.62,5.43,70.5-9.44,8.17-6.12,14.78-15.37,12.81-26.06A17.07,17.07,0,0,0,389.22,7.3c-5-3.62-11.51-4-16.87-7-2.83-1.55-5.35,2.77-2.53,4.32,8.27,4.54,20.52,4.27,21.4,16.21.79,10.8-8.73,18.53-17.17,23.35-18.23,10.42-40.51,11.87-60.12,4.68-3-1.11-4.33,3.72-1.33,4.82Z" transform="translate(-1.22)"/>
      <path d="M313.7,60.52a423,423,0,0,1,60.88,9.4c7.84,1.82,16.29,3.93,22.19,9.78,6.54,6.48,8.51,16,10.38,24.72.68,3.14,5.5,1.81,4.82-1.33-1.85-8.58-3.92-17.61-9.57-24.58s-13.75-10.15-22-12.32c-21.72-5.71-44.33-8.83-66.68-10.67-3.21-.26-3.19,4.74,0,5Z" transform="translate(-1.22)"/>
      <path d="M341.73,60.75a386.54,386.54,0,0,0,90.2,4.8c3.19-.21,3.21-5.21,0-5a381.24,381.24,0,0,1-88.88-4.62c-3.14-.54-4.5,4.28-1.32,4.82Z" transform="translate(-1.22)"/>
      <path d="M349.1,58A144.82,144.82,0,0,0,418,48.52c3-1.17,1.67-6-1.32-4.82A141.62,141.62,0,0,1,349.1,53c-3.2-.34-3.18,4.67,0,5Z" transform="translate(-1.22)"/>
      <path d="M110.12,58.93A16.45,16.45,0,0,0,116,68.4a2.58,2.58,0,0,0,3.54,0,2.51,2.51,0,0,0,0-3.53,12.26,12.26,0,0,1-4.59-7.27c-.68-3.15-5.5-1.81-4.82,1.33Z" transform="translate(-1.22)"/>
      <path d="M156.51,56.62A35,35,0,0,0,171.1,67.44c3,1.22,4.28-3.62,1.33-4.82a30.25,30.25,0,0,1-12.38-9.54c-2-2.53-5.5,1-3.54,3.54Z" transform="translate(-1.22)"/>
      <path d="M204.78,51.48a23.81,23.81,0,0,0,7.44,15.31c2.35,2.2,5.89-1.33,3.54-3.53a18.55,18.55,0,0,1-6-11.78c-.31-3.17-5.32-3.2-5,0Z" transform="translate(-1.22)"/>
      <path d="M252.4,47.68a44.83,44.83,0,0,1,4.82,14.6c.48,3.17,5.3,1.83,4.82-1.33a48.94,48.94,0,0,0-5.32-15.8c-1.52-2.84-5.84-.31-4.32,2.53Z" transform="translate(-1.22)"/>
    </g>
  </g>
</svg>
