<svg xmlns="http://www.w3.org/2000/svg" viewBox="0 0 402.12 148.65">
  <title>big_mace</title>
  <g id="Layer_2" data-name="Layer 2">
    <g id="Layer_1-2" data-name="Layer 1">
      <path d="M399.72,65.23A2508.63,2508.63,0,0,0,142.57,54.29c-10.5.09-21.17-.2-31.65.57-6.67.49-13.93,2.32-17.51,8.52-2.26,3.92-3.35,12,1.55,14.72,1.48.83,3.56.25,5.17.18L108,78l15.65-.64c42.4-1.7,84.84-3.08,127.29-2.68,48,.46,96,3.23,143.44,10.37a2.6,2.6,0,0,0,3.08-1.75l3.23-8.5c1.15-3-3.68-4.31-4.82-1.33l-3.23,8.5,3.07-1.74C317.3,68.4,237.88,68.38,158.85,71q-14.68.5-29.37,1.08c-9.6.38-19.77,1.82-29.35,1.2-3-.2-4.12-1.12-3.51-4.45a9.8,9.8,0,0,1,2.65-4.93c3.57-3.57,9.31-4,14.06-4.16,9.74-.37,19.5-.36,29.24-.45q60.65-.54,121.27,1.85,68.06,2.7,135.88,9.09c3.2.3,3.18-4.7,0-5Z"/>
      <path d="M19.57,62.2q8.84-10.79,16.65-22.34L34.06,41.1c3.87.27,6.43,7.76,9.52,10a16.6,16.6,0,0,0,11.64,2.61C66,52.37,72.29,42.77,76.66,33.8H72.34a228.51,228.51,0,0,1,21,34.73C94.7,71.42,99,68.89,97.6,66A228.55,228.55,0,0,0,76.66,31.27c-1-1.38-3.41-1.84-4.32,0C69,38.19,64.57,46.34,56.48,48.38a12.54,12.54,0,0,1-9.33-.94c-3-1.76-4.15-5.07-6.26-7.61-2.28-2.74-5.88-5.13-9-2.49-2.79,2.38-5.11,7.4-7.32,10.39C21.83,51.45,19,55.08,16,58.66c-2,2.47,1.5,6,3.54,3.54Z"/>
      <path d="M13.46,72.22a142,142,0,0,0,82.7,4c3.12-.79,1.8-5.61-1.33-4.83a137.13,137.13,0,0,1-80-4c-3-1.09-4.34,3.74-1.33,4.82Z"/>
      <path d="M2.37,70.89c5.36,5.5,5.25,13.86,9.94,19.76,3.14,4,8.82,7.44,14,5.9,2.64-.77,4.27-2.67,5.72-4.89.87-1.34,1.39-3.27,3.58-3.06,1.85.18,3.84,4.91,4.65,6.42,3.33,6.21,6.47,13.56,14,15.55,15,4,15.32-15.54,18.82-24.34,1.42-3.57,4.41-8.76,9-7.6,3.13.79,5.2,3.73,8.53,4.19,4.69.64,9.44-4,6.8-8.48-1.62-2.77-5.94-.26-4.32,2.53,1,1.77-5-.63-5.79-1.14a15.32,15.32,0,0,0-3.89-1.92,9.87,9.87,0,0,0-5.77.14c-4.24,1.4-7,5.54-8.78,9.42-2.19,4.93-2.28,10.37-4.15,15.4-1.17,3.19-3,6.56-6.68,7.08-4.77.68-8.28-3.77-10.39-7.4C45,93.78,42.92,86.5,37.6,84c-4.23-2-7,.7-9.23,4.07C26,91.64,23.78,93,19.67,90.56c-3.3-1.93-4.9-5-6.2-8.4-2-5.34-3.47-10.61-7.56-14.8C3.66,65.05.13,68.59,2.37,70.89Z"/>
      <path d="M2.6,83.17c2.56,16.34,7.76,34.07,17,48,2.61,3.93,6.93,7.65,11.87,5.4,4.38-2,5.3-7,7.57-10.75,1-1.62,1.41-3.09,3.65-1.31,1.24,1,2.15,3.16,3.07,4.43a57.35,57.35,0,0,0,7.82,8.73c4.73,4.29,10.63,8.73,16.86,10.52s9.77-1.74,11.87-7.16a119.57,119.57,0,0,0,6.53-26.63H84a17.22,17.22,0,0,0,9,12.32,2.53,2.53,0,0,0,3.68-1.49,98.84,98.84,0,0,0-1-51.74c-.89-3.08-5.72-1.77-4.82,1.33a93.63,93.63,0,0,1,1,49.08l3.67-1.5a12.48,12.48,0,0,1-6.66-9.33c-.42-2.34-4.48-2.43-4.82,0a131.58,131.58,0,0,1-5,22.3c-1.37,4.23-2.57,9.6-8.24,7.6a37.83,37.83,0,0,1-8.55-4.79c-6.11-4.26-10.38-9.62-14.7-15.57-2-2.82-5.2-5.11-8.76-3.54-3.08,1.35-4.31,4.91-5.67,7.71-.77,1.57-1.67,4.28-3.36,5.09-4,1.87-6.88-5-8.22-7.51A133.43,133.43,0,0,1,7.42,81.84C6.93,78.67,2.11,80,2.6,83.17Z"/>
      <path d="M5.24,70.6q-.41-15.88-.12-31.78.15-7.7.47-15.4c0-1.28.08-2.57.17-3.85.16-2.27-.38-2.59,2.13-2.92,2.87-.38,5.15,2.77,7.23,4.61C19.06,24.74,26,33.58,32,29.32c3.13-2.21,4.27-7.07,5.74-10.37L44.53,3.76l-3.42.9c7.56,5.05,12.2,13.67,20.39,17.88,6,3.09,13.72,4,19.16-.73,2.63-2.3,4.22-5.59,6.85-7.86,5.43-4.66,6.38,7.08,6.87,10.28A296.1,296.1,0,0,1,97.6,60.52c.1,3.21,5.1,3.23,5,0a308.14,308.14,0,0,0-3.25-36.65c-.88-5.86-2-18.49-11.25-16-8.59,2.29-9,14.67-20,11.93C57.68,17.17,52.17,6.05,43.63.34a2.51,2.51,0,0,0-3.42.9L33.46,16.42c-.86,1.94-1.81,5.87-3.34,7.43-2.88,2.94-6-1.33-8.1-3.16C18.16,17.28,9.52,6.16,3.49,11.33c-2.35,2-2.57,5.38-2.73,8.24C.45,25,.31,30.48.19,35.94-.09,47.49,0,59.05.24,70.6c.08,3.21,5.08,3.23,5,0Z"/>
    </g>
  </g>
</svg>
