<svg xmlns="http://www.w3.org/2000/svg" viewBox="0 0 404.41 162.78">
  <title>big_sword</title>
  <g id="Layer_2" data-name="Layer 2">
    <g id="Layer_1-2" data-name="Layer 1">
      <path d="M57.26,53.06l-56,30.87a2.53,2.53,0,0,0,0,4.32C16,98.48,30.57,109.09,45.59,119c6.47,4.26,12.6,4.41,20.14,3.93q13.44-.86,26.88-1.6,55.76-3.08,111.61-4,31.41-.49,62.82-.31c3.22,0,3.22-5,0-5q-53.85-.3-107.68,1.37-26.93.85-53.81,2.21-13.44.68-26.88,1.49l-12.94.8c-4.17.27-8.68.87-12.71-.54-4.54-1.58-8.69-5.31-12.59-8l-12-8.29L3.74,83.93v4.32l56-30.88c2.82-1.55.3-5.87-2.52-4.31Z"/>
      <path d="M64.16,59.14q102-4.83,204-6.55c3.22-.05,3.23-5.05,0-5q-102.06,1.71-204,6.55c-3.2.15-3.22,5.15,0,5Z"/>
      <path d="M256.65,15.85a475.73,475.73,0,0,1,21.5,70.5q1.92,8.67,3.51,17.4c1.14,6.29,2.83,13,3.09,19.36.28,6.9-7.75,10.66-12.63,14.43l-14.93,11.51c-2.51,1.93,0,6.28,2.52,4.31l16.42-12.66c3.91-3,9.62-6.1,12.26-10.46s1-10.19.25-14.93Q287,104.7,284.9,94.16a476,476,0,0,0-23.43-79.64c-1.16-3-6-1.67-4.82,1.33Z"/>
      <path d="M238.9,4.87l29,5.53c5.15,1,10.32,1.86,15.44,2.95,2.37.5,4.27.9,5.69,3,1.19,1.75,1.62,4,2.24,6A526.13,526.13,0,0,1,305.34,77.2a521,521,0,0,1,8.2,57.24c.32,3.75,1.93,10.39-1,13.35s-10.09,3.84-14.16,4.86a211.36,211.36,0,0,1-29.11,5.11c-3.17.33-3.2,5.34,0,5a221.29,221.29,0,0,0,24.92-4c6.44-1.43,15.07-2.47,20.58-6.4s4.39-11,3.89-17q-1.1-12.87-2.82-25.66-3.41-25.44-9.25-50.45-3-12.87-6.68-25.58-1.71-5.89-3.54-11.75c-.93-3-1.63-6.43-3.45-9s-4.58-3.61-7.59-4.27c-4.7-1-9.46-1.81-14.18-2.71L240.23.05c-3.14-.6-4.49,4.22-1.33,4.82Z"/>
      <path d="M311,65.38a419.18,419.18,0,0,0,51.1,2.24c3.21-.05,3.22-5.05,0-5A419.18,419.18,0,0,1,311,60.38c-3.2-.33-3.18,4.67,0,5Z"/>
      <path d="M309,89.64a317.53,317.53,0,0,0,71.47,1.23c3.17-.3,3.2-5.31,0-5A317.53,317.53,0,0,1,309,84.64c-3.18-.42-3.15,4.59,0,5Z"/>
      <path d="M390.5,92.29a33.92,33.92,0,0,1-21-15.63,31.84,31.84,0,0,1-4.39-12.6c-.35-3.07.13-5.65,3.06-7.17a21.39,21.39,0,0,1,8.93-2.34A21.7,21.7,0,0,1,398.93,71c2.1,8.75-2.73,18.93-12,20.69-3.16.61-1.82,5.43,1.33,4.83C399.66,94.35,406,82,404.05,71.07a26.69,26.69,0,0,0-27-21.52c-5.22.22-12.74,1.84-15.81,6.58s-.87,12.07.88,16.77a39.16,39.16,0,0,0,27,24.21c3.12.78,4.45-4,1.33-4.82Z"/>
      <path d="M277.22,89.38A1417.79,1417.79,0,0,1,111.1,96.52c-10.58-.17-23,.59-32.41-5.06-1.51-.9-5.46-3.46-5.91-5.4-.65-2.75,5.21-5.07,7-5.9a65.32,65.32,0,0,1,17.93-5c12.62-1.91,25.6-1.78,38.32-2.18q20.72-.65,41.42-1,46.37-.89,92.73-.5c3.22,0,3.23-5,0-5q-45.87-.36-91.74.48-23.17.44-46.35,1.19c-13,.42-26.15.35-38.93,2.77a66.18,66.18,0,0,0-15.9,5c-3.81,1.78-10.94,4.71-10,10,1.7,9.09,14.78,13.29,22.46,14.52,12.8,2,26.23,1.34,39.15,1.39q22.79.08,45.55-.59Q226,99.63,277.22,94.38c3.17-.32,3.2-5.32,0-5Z"/>
    </g>
  </g>
</svg>
