<svg xmlns="http://www.w3.org/2000/svg" viewBox="0 0 337.45 64.31">
  <title>big_wand</title>
  <g id="Layer_2" data-name="Layer 2">
    <g id="Layer_1-2" data-name="Layer 1">
      <path d="M314.23,0C280.18,3.36,246.05,6.71,211.8,6.8,178,6.88,144.3,3.1,110.53,1.43A463.27,463.27,0,0,0,60,1.32c-14.3.87-29.53,2.31-42,10C8.22,17.37.63,27.89,0,39.59A23.29,23.29,0,0,0,15,62.71c9.44,3.76,21.42,1,25.05-9.38,3.46-9.91-2.21-21.74-12.29-24.75l1.1,4.18c17.82-15.39,45.75-4.09,65.79-.16a474.64,474.64,0,0,0,76,8.21c52.9,1.68,105.69-3.8,158.21-9.46,2.34-.26,4.3,0,5.95-1.65,1.43-1.44,2.13-4,2.44-5.88a17.88,17.88,0,0,0-3.08-12.5c-6.56-9.82-19.31-10.66-30-11-3.22-.1-3.21,4.9,0,5,7.1.22,15,.34,21.17,4.24,5.81,3.66,9.43,11.48,5.18,17.61l2.16-1.24C289.58,30.59,246.4,35.19,203,36a581.9,581.9,0,0,1-64.55-2.15c-21-2-41.54-5.84-62.15-10.36-17.06-3.73-36.7-6.62-51,5.74-1.48,1.28-.59,3.67,1.1,4.18,9.15,2.74,13.31,16.4,5.72,23s-20,1.67-24.63-6C1.32,40.3,7.16,27.19,15,19.82c9.73-9.11,23.89-11.71,36.7-12.88,55.62-5.11,111.27,5.61,166.93,4.8,32-.47,63.8-3.6,95.58-6.73,3.18-.31,3.21-5.31,0-5Z"/>
    </g>
  </g>
</svg>
