<svg xmlns="http://www.w3.org/2000/svg" viewBox="0 0 116.17 70.65">
  <title>bone</title>
  <g id="Layer_2" data-name="Layer 2">
    <g id="Layer_1-2" data-name="Layer 1">
      <path d="M16.29,30.71C8,28.44-.87,34.55.07,43.6c.48,4.6,3,6.88,6.19,9.69C9.1,55.75,9.32,56.53,9.19,60a14.32,14.32,0,0,0,.68,6.34C13.24,74.24,23,69.9,26.12,64.25c2.47-4.47,1.68-10.8,5.37-14.61,2.32-2.39,6.17-3.08,9.25-4l11.32-3.17L72.8,36.69c6.63-1.86,13.49-4.55,20.39-5.09,4.1-.32,7,.94,10.61,2.73a9.34,9.34,0,0,0,5.14,1.36c4.1-.46,5.56-4.55,6.42-8.06s1.4-8-.42-11.49c-2.12-4-5.5-3.78-9.34-4.64-5-1.13-3.66-8-8.2-10.43-3.7-2-8.54-1-11.92,1.15a13.62,13.62,0,0,0-4.66,5,22.16,22.16,0,0,0-1.24,3.45,10.65,10.65,0,0,1-5.24,6.47A65.74,65.74,0,0,1,53.66,25c-12.7,2.65-26.68.21-38,7.63-2.69,1.75-.19,6.08,2.52,4.31,8.29-5.41,18.18-4.89,27.66-5.77A77.56,77.56,0,0,0,72.2,24c3.43-1.64,7.35-3.48,9.81-6.5,3-3.75,2.13-8.93,7-11.43,3.56-1.85,6.32-.88,7.9,2.66.56,1.25.68,2.66,1.38,3.86,1.5,2.57,3.8,3.57,6.67,3.89s5.16.13,6,3.45a13.17,13.17,0,0,1-.26,5.79c-.56,2.62-1.35,5.1-5,4-1.89-.58-3.5-2-5.47-2.49C91.48,24.81,81.65,29,73.36,31.34l-32.06,9c-8,2.25-14.51,4.21-17.09,12.8-1.11,3.7-1.33,10.44-5.76,12-6.13,2.09-3.7-6.7-4.37-10.05-.87-4.36-4.13-4.47-6.9-7.29-5.7-5.82.54-14.19,7.78-12.22,3.11.85,4.43-4,1.33-4.82Z"/>
    </g>
  </g>
</svg>
