<svg xmlns="http://www.w3.org/2000/svg" viewBox="0 0 133.24 57.67">
  <title>boots</title>
  <g id="Layer_2" data-name="Layer 2">
    <g id="Layer_1-2" data-name="Layer 1">
      <path d="M56.49,2.39a367.9,367.9,0,0,0,7.38,44l1.74-3.07A303,303,0,0,1,2.5,52.67L5,55.17a25,25,0,0,1,7.57-18.05c5.56-5.45,11.85-6.1,19.09-7.54,4.77-.95,9.89-3,12.42-7.44,2.78-4.9-.91-17.56,8.7-14.86,3.11.87,4.43-3.95,1.33-4.82A10.77,10.77,0,0,0,41,8.82c-1.52,4.13,1,8.9-2.47,12.38s-8.84,3.57-13.36,4.37A30.06,30.06,0,0,0,0,55.17a2.52,2.52,0,0,0,2.5,2.5,309.74,309.74,0,0,0,64.44-9.53,2.55,2.55,0,0,0,1.75-3.08,358.18,358.18,0,0,1-7.2-42.67c-.33-3.17-5.34-3.2-5,0Z"/>
      <path d="M70.85,6.57l2.82,31.64c.29,3.25-.13,7.54,1.28,10.53S79,51.4,81.73,51.37c10-.13,19.93-.48,29.89-.72,4.65-.11,9.3-.18,13.95-.34,2.58-.08,5.41.06,6.84-2.54,2.74-5-1.88-12.63-5.33-16-5.56-5.39-12.81-6.82-20.22-7.3-5.46-.36-9-1.88-11.15-7.21-1.23-3-1.32-6.18-2-9.33C92.17.76,81.93,1.73,76.07,1.62c-3.22-.07-3.22,4.93,0,5,1.77,0,3.53.09,5.3.24,1.38.12,5.23,0,6.35.86,1.83,1.39,1.65,5.59,2.16,7.63,1.05,4.2,2.93,8.41,6.4,11.14,4.13,3.23,8.92,2.66,13.82,3.19,6.86.73,17.55,5.17,17.74,13.55.06,2.39-.23,1.72-2.27,2.08a42.55,42.55,0,0,1-6,.15l-11,.26-22.91.55c-1.16,0-5.36.76-6,.14-.92-.9-.7-4.1-.8-5.23L78,30.3,75.85,6.57c-.28-3.18-5.29-3.21-5,0Z"/>
      <path d="M83.19,19.2c3.22,0,3.22-5,0-5s-3.22,5,0,5Z"/>
      <path d="M83.19,28.39c3.22,0,3.22-5,0-5s-3.22,5,0,5Z"/>
      <path d="M54.62,18.18c3.22,0,3.22-5,0-5s-3.22,5,0,5Z"/>
      <path d="M54.62,28.39c3.22,0,3.22-5,0-5s-3.22,5,0,5Z"/>
      <path d="M27,31.22A65.67,65.67,0,0,1,32.81,49c.57,3.17,5.38,1.83,4.82-1.33a69.85,69.85,0,0,0-6.35-19c-1.43-2.88-5.75-.35-4.31,2.52Z"/>
      <path d="M107.11,29.25a80.12,80.12,0,0,0-3,18.06c-.16,3.22,4.84,3.21,5,0a73.57,73.57,0,0,1,2.82-16.73c.9-3.1-3.93-4.43-4.82-1.33Z"/>
      <path d="M115.84,41.65c3.22,0,3.23-5,0-5s-3.22,5,0,5Z"/>
      <path d="M24,44.71c3.21,0,3.22-5,0-5s-3.23,5,0,5Z"/>
    </g>
  </g>
</svg>
