<svg xmlns="http://www.w3.org/2000/svg" viewBox="0 0 97.29 77.85">
  <title>bread</title>
  <g id="Layer_2" data-name="Layer 2">
    <g id="Layer_1-2" data-name="Layer 1">
      <path d="M7.86,56.08c-5.14,1.18-.68-10.6.43-12.76a49.91,49.91,0,0,1,6.4-9.5A65,65,0,0,1,31.43,20a111.66,111.66,0,0,1,23.34-9.92c7.47-2.33,16.23-5.68,24.16-5C88.4,6,93,14.92,92.37,23.61c-.55,7.91-4.37,15.58-8.8,22A64.12,64.12,0,0,1,50.83,69.93c-8,2.57-16.75,3.8-25,2.32-9-1.62-18.58-8.61-17.16-18.9.44-3.14-4.38-4.5-4.82-1.33-1.18,8.5,2.89,16.41,10.1,21,8.09,5.18,18.48,5.45,27.7,4.13A69,69,0,0,0,87.06,49.34c9.32-12.92,18.23-39.76-2-47.85C75.42-2.37,63.63,2.16,54.3,5c-10.54,3.25-21,7.4-30.13,13.7-8.66,6-16.31,13.84-20.87,23.43-2,4.16-4.47,9.56-2.69,14.2A7.19,7.19,0,0,0,9.19,60.9c3.13-.72,1.81-5.54-1.33-4.82Z"/>
      <path d="M19.44,39.67a8.16,8.16,0,0,1,11.16.5c2.31,2.35,3.56,5.07,6.57,6.71,2.82,1.53,5.35-2.78,2.52-4.32s-3.82-4.3-6-6.36a12.4,12.4,0,0,0-5.46-3.06,13.42,13.42,0,0,0-12.37,3c-2.45,2.09,1.1,5.61,3.54,3.53Z"/>
      <path d="M45,23.05a20.48,20.48,0,0,1,13.3,7.71c1.92,2.53,6.27,0,4.32-2.52a25.38,25.38,0,0,0-16.29-10c-3.15-.5-4.51,4.31-1.33,4.82Z"/>
      <path d="M67.07,17.11l7.13.29c3.22.13,3.22-4.87,0-5l-7.13-.29c-3.22-.13-3.21,4.87,0,5Z"/>
    </g>
  </g>
</svg>
