<svg xmlns="http://www.w3.org/2000/svg" viewBox="0 0 116.44 100.17">
  <title>carrot</title>
  <g id="Layer_2" data-name="Layer 2">
    <g id="Layer_1-2" data-name="Layer 1">
      <path d="M39.68,75.22C34.55,73.67,28.82,70.65,27.35,65A9.4,9.4,0,0,1,28.5,57.4c1.83-2.63,5-3,7.76-4.09,4.06-1.56,7.35-4.31,10.68-7,4.38-3.58,8.83-7.06,13.4-10.38A292.69,292.69,0,0,1,115.2,4.57l-3.67-2.82c-4.43,17.92-21.68,27-35.28,37.4A84.26,84.26,0,0,0,60.12,55.2c-5.73,7.49-11.52,15.66-21.5,17.21-3.17.49-1.83,5.31,1.33,4.82,8.82-1.37,15.22-7.53,20.52-14.31,6.39-8.17,12.56-15.25,21-21.43C95.5,31.14,111.86,21.23,116.35,3.08c.56-2.29-1.73-3.68-3.67-2.83A294.74,294.74,0,0,0,46.13,40.53,87,87,0,0,1,38,46.86c-2.69,1.68-5.68,2.21-8.52,3.5a12.5,12.5,0,0,0-7.22,9.5C20.45,70.3,29.39,77.33,38.35,80c3.09.94,4.41-3.89,1.33-4.82Z"/>
      <path d="M38.21,48.66a11.07,11.07,0,0,1,8.4,3.45c2.25,2.31,5.78-1.23,3.54-3.54a16.1,16.1,0,0,0-11.94-4.91c-3.21.06-3.22,5.06,0,5Z"/>
      <path d="M56.13,40.25a6,6,0,0,1,5.22.13c2.85,1.5,5.37-2.81,2.52-4.32a10.78,10.78,0,0,0-9.06-.63,2.57,2.57,0,0,0-1.75,3.08,2.51,2.51,0,0,0,3.07,1.74Z"/>
      <path d="M78.43,23.93A35.15,35.15,0,0,1,86.91,28c2.7,1.78,5.21-2.55,2.53-4.31a40,40,0,0,0-9.68-4.61c-3.07-1-4.38,3.84-1.33,4.82Z"/>
      <path d="M30.9,63.51C25.54,67.37,23.19,73.82,18,77.72c-8.94,6.77-12.1-4.15-12.67-11-.27-3.18-5.27-3.21-5,0,.59,7,2.42,16.52,10.71,18,11.32,2,15.05-11.62,22.36-16.9,2.59-1.86.09-6.2-2.52-4.31Z"/>
      <path d="M25.23,67C21,73.76,13.67,82.13,14.38,90.7s9.47,10,16.53,9.3c3.17-.31,3.2-5.31,0-5-2.51.25-5.56.72-8-.22-4.7-1.83-3.87-6.48-2.36-10.17,2.19-5.35,5.92-10.22,9-15.1,1.72-2.73-2.61-5.24-4.31-2.52Z"/>
      <path d="M16.56,82.87a56.62,56.62,0,0,0-14.84,9.5C-.71,94.5,2.84,98,5.25,95.9a52.76,52.76,0,0,1,13.83-8.71c3-1.28.4-5.59-2.52-4.32Z"/>
      <path d="M6.58,83.52H2.5a2.5,2.5,0,0,0,0,5H6.58a2.5,2.5,0,0,0,0-5Z"/>
      <path d="M19.87,92.42l11.22,1.07c3.2.3,3.18-4.7,0-5L19.87,87.42c-3.21-.31-3.18,4.7,0,5Z"/>
    </g>
  </g>
</svg>
