<svg xmlns="http://www.w3.org/2000/svg" viewBox="0 0 109.59 88.37">
  <title>cat</title>
  <g id="Layer_2" data-name="Layer 2">
    <g id="Layer_1-2" data-name="Layer 1">
      <path d="M37.25,81.48c-20.12.45-30-20.09-31.88-37.37-.37-3.36-.55-7,.52-10.26,1.36-4.1,4.85-4.42,7.05-7.48,1.69-2.35,1-5,.56-7.65-.84-5-1.76-10-2.64-15L7.78,6.81c8.26,1.81,14.78,8.62,23.45,9,5,.2,9.6-1.84,14.25-3.36A38.28,38.28,0,0,1,65,11.07c4.5.91,8.75,2.58,13.42,2.06,5.42-.6,10.78-2.94,15.93-4.64,2.74-.9,5.65-2.3,8.47-2.78,2.27-.39,1.14-1,1.46.54a17.41,17.41,0,0,1-.08,4.2A41.78,41.78,0,0,1,99,27.56c-1.55,2.82,2.77,5.35,4.32,2.52a46.93,46.93,0,0,0,5.43-15.62c.54-3.59,1.77-9.63-.5-12.81-2.62-3.65-8.3-.26-11.46.78C90.45,4.52,83,8.3,76.27,8.27c-5.71,0-11.21-2.68-17-2.9A47.46,47.46,0,0,0,41.64,8.48C34.83,10.86,29.57,11.43,23,8.1,18.43,5.79,14.18,3.1,9.11,2A2.53,2.53,0,0,0,6,5.07c.9,5.13,3.36,12,2.13,17.09C7.39,25.41,3.11,27.48,1.64,31-1.42,38.3.4,47.53,2.29,54.9c4.21,16.45,16.62,32,35,31.58,3.21-.07,3.22-5.07,0-5Z"/>
      <path d="M48.52,56.27c1.16-2.49,3.64-6.1,6.88-4.76.85.34,2.24,1.36,1.69,2.44-.21.4-1.53,1.14-1.88.64-1.81-2.64-6.14-.15-4.32,2.52,4.11,6,13.77.33,10.69-6.28A8.38,8.38,0,0,0,53,46.31c-4.13.53-7.16,3.83-8.84,7.43-1.35,2.9,3,5.44,4.32,2.53Z"/>
      <path d="M50.88,59.18c.63,6.49-5.39,11.75-11.71,8.86-2.91-1.32-5.45,3-2.52,4.32,9.4,4.3,20.26-2.5,19.23-13.18-.31-3.18-5.31-3.21-5,0Z"/>
      <path d="M51,59.55c-.79,4.15-1.6,8.73.32,12.71,1.44,3,4.42,5.55,7.84,5.71,7.41.34,9.26-8,9.26-13.75,0-3.22-5-3.22-5,0,0,2.51,0,8-3.3,8.71-2.1.43-3.87-1.65-4.53-3.39-1-2.68-.28-6,.23-8.66.6-3.15-4.22-4.5-4.82-1.33Z"/>
      <path d="M31.35,44c.35-.3-.09,0,.17-.11s-.22-.09.09,0-.12,0-.24,0c.2,0,.38.13.09,0-.57-.26.29.2,0,0-.16-.08-.4-.32-.06,0l-.27-.26c.3.32.08-.08.14.15s0,.52.07.28,0-.15,0,0,0,.17,0-.08l-.08.21.1-.19s-.26.24.09-.07c.11-.1.11-.1,0,0s-.1.08,0,0,.12-.08-.11,0l.2-.06c.29-.07.17,0,0,0-.48,0,0,0,.17.07A2.5,2.5,0,1,0,33,39.12c-3.6-1.28-7.66,2.5-6.49,6.18a5.24,5.24,0,0,0,8.38,2.21,2.53,2.53,0,0,0,0-3.54,2.55,2.55,0,0,0-3.54,0Z"/>
      <path d="M73.2,46.74a2,2,0,0,1-.77,3c-3.06,1-1.75,5.81,1.33,4.82a7.05,7.05,0,0,0,3-11.37c-2.2-2.35-5.73,1.19-3.54,3.54Z"/>
      <path d="M41.42,88a139.45,139.45,0,0,0,29.31-.9c7.68-1.1,14.63-3.68,19.67-9.81,4.58-5.57,7.06-12.47,9.38-19.2,3.06-8.94,5.84-18,5.43-27.51-.14-3.2-5.14-3.22-5,0,.37,8.51-2,16.46-4.66,24.44-2.15,6.36-4.29,13-8.45,18.4C82,80,74.44,81.76,66.49,82.61A143.77,143.77,0,0,1,41.42,83c-3.21-.22-3.2,4.78,0,5Z"/>
      <path d="M81,25.33l13.74-4.67-3.17-2.42c-.17,1.93-.28,4.67-1.74,6.15-.53.53-3.09,1.47-3.15,0-.13-3.21-5.13-3.23-5,0,.17,4.3,4.59,6.57,8.52,5.47,5-1.4,6-7.25,6.37-11.65a2.51,2.51,0,0,0-3.16-2.41L79.66,20.51c-3,1-1.73,5.87,1.33,4.82Z"/>
      <path d="M19.52,27.5l-1-14.08-3.76,2.16c2,1.46,4.38,2,6.77,2.66a8.17,8.17,0,0,1,3.17,1.41c.4.34,1.59,2.61.22,2.12-3-1.11-4.33,3.72-1.32,4.82,4.41,1.61,8.11-3.49,6.71-7.51-2-5.77-8.88-4.86-13-7.82a2.51,2.51,0,0,0-3.76,2.16l1,14.08c.24,3.19,5.24,3.21,5,0Z"/>
      <path d="M72.63,51.33c-2-1.45-.12-4.17,2-3.63,3.12.8,4.45-4,1.33-4.82A7.09,7.09,0,0,0,70.1,55.65a2.52,2.52,0,0,0,3.42-.9,2.55,2.55,0,0,0-.89-3.42Z"/>
    </g>
  </g>
</svg>
