<svg xmlns="http://www.w3.org/2000/svg" viewBox="0 0 209.44 144.12">
  <title>chest</title>
  <g id="Layer_2" data-name="Layer 2">
    <g id="Layer_1-2" data-name="Layer 1">
      <path d="M15.4,141.34,7.63,81.4q-.88-6.77-1.76-13.54c-.64-5-1.73-10.43,0-15.3,1.49-4.32,4.88-7.63,7.88-11L23.76,30.5C29.68,24,35.41,16.65,42.6,11.42c7.77-5.64,16.7-6.67,26-6.5,20.2.38,40.42,1.59,60.6,2.4,3.22.13,3.22-4.88,0-5L77.77.25C63.63-.31,50-.74,38.26,8.48c-5.79,4.57-10.59,10.26-15.52,15.71-5.33,5.89-10.86,11.66-16,17.72C2.26,47.21-.24,52.68,0,59.72.31,67.91,2,76.19,3,84.3l7.4,57c.4,3.15,5.41,3.19,5,0Z"/>
      <path d="M131,8.49l21,.15c6.06,0,13.08-.89,19,.33,4.05.82,5.74,4.89,7.63,8.13l5.47,9.36c3.47,5.95,7,11.88,10.41,17.83,3.79,6.55,6.29,12.76,6.77,20.37.43,6.57.05,13.24,0,19.83l-.51,41.45c0,3.22,5,3.22,5,0l.57-46.27c.09-7,.49-14.19-.69-21.15-1.26-7.43-5-13.7-8.75-20.1L185,18c-2.78-4.76-5.33-11.26-10.91-13.35s-13.23-.92-19.17-1L131,3.49c-3.22,0-3.22,5,0,5Z"/>
      <path d="M12.7,144.12,206.43,138a2.53,2.53,0,0,0,2.41-3.16L206,125.53c-.93-3.07-5.76-1.76-4.82,1.33l2.83,9.32,2.41-3.17L12.7,139.12c-3.21.1-3.22,5.1,0,5Z"/>
      <path d="M87,55.76c-.42,8.47-.21,17.78,6.77,23.73,6.27,5.34,15.15,6,23,6.43a2.54,2.54,0,0,0,2.5-2.5c1.12-10.4,3.37-21.42,2.64-31.9-.53-7.67-3.68-15.42-10.62-19.41C96.61,23.69,87.13,41,83.51,52.46c-1,3.07,3.85,4.39,4.82,1.33C90,48.57,92,42.9,95.86,38.87c5.07-5.26,12.13-4.64,16.81.88,4.89,5.77,4.62,14,4,21-.66,7.56-1.59,15.1-2.4,22.64l2.5-2.5c-6.31-.32-13.61-.68-18.92-4.55C91.29,71.58,91.63,63,92,55.76c.16-3.21-4.84-3.2-5,0Z"/>
      <path d="M100.4,50a4.27,4.27,0,0,1-4.37.84L97.77,54a8.17,8.17,0,0,1,1.64-4.15c.67-.72,2.59-1.66,3.34-.37s-2,3.56-2.78,4.29c-2.76,2.77-5.27,5.91-2.35,9.55,2,2.51,5.54-1.05,3.54-3.53-.07-.09,4-4.13,4.53-4.83,1.76-2.19,2.9-5,1.51-7.72s-5.14-3.94-8.09-3c-3.66,1.12-5.53,5-6.16,8.48a2.56,2.56,0,0,0,1.75,3.07,9.36,9.36,0,0,0,9.24-2.12c2.42-2.14-1.13-5.66-3.54-3.54Z"/>
      <path d="M4.26,58.45a647.69,647.69,0,0,0,86.27-4.77c3.16-.39,3.19-5.4,0-5A647.69,647.69,0,0,1,4.26,53.45c-3.22,0-3.22,5,0,5Z"/>
      <path d="M117.43,54.28A776.38,776.38,0,0,1,207,53.16c3.21.14,3.21-4.86,0-5a776.38,776.38,0,0,0-89.6,1.12c-3.19.23-3.22,5.23,0,5Z"/>
      <path d="M18.32,45.48a157,157,0,0,1,65.3-7.75c3.2.29,3.18-4.71,0-5A160.48,160.48,0,0,0,17,40.66c-3,1-1.73,5.86,1.33,4.82Z"/>
      <path d="M52.22,22.19a92.24,92.24,0,0,1,30.7.32c3.14.57,4.49-4.25,1.32-4.82a99.83,99.83,0,0,0-33.35-.32c-3.17.5-1.82,5.32,1.33,4.82Z"/>
      <path d="M115.75,27.25q38,2.31,76,1.75c3.21-.05,3.22-5.05,0-5q-38,.55-76-1.75c-3.21-.2-3.2,4.8,0,5Z"/>
      <path d="M22.81,77.36l45.67-1.81c3.21-.13,3.22-5.13,0-5L22.81,72.36c-3.21.13-3.23,5.13,0,5Z"/>
      <path d="M30.39,94.22,27,98.75c-1.28,1.7.53,3.57,2.16,3.77,16.37,2,32-8.74,48.17-5.12,7.62,1.7,14.3,5.08,22.26,5.25a44.8,44.8,0,0,0,22-5.48c2.84-1.51.32-5.83-2.52-4.32a39.06,39.06,0,0,1-25.48,4.2c-7-1.3-13.25-4.77-20.43-5.26-15-1-29,7.58-44.05,5.73l2.16,3.76,3.42-4.54c1.93-2.57-2.41-5.06-4.32-2.52Z"/>
      <path d="M130,100.3c15.63,8.65,31.89-4.2,48.1-1.49,3.15.52,4.5-4.29,1.33-4.82-7.57-1.27-14.85.22-22.22,2-8.14,1.94-16.89,4.34-24.69,0-2.81-1.56-5.34,2.76-2.52,4.32Z"/>
      <path d="M22.11,124.43a60.26,60.26,0,0,1,20.38-2.36c5.87.36,11.51,2.58,17.35,2.72,6.23.15,12.19-2.42,18.41-2.65a46.79,46.79,0,0,1,18.66,3.5c5.33,2,9.93,2.73,15.54,1.47,6.23-1.39,12.22-3.37,18.55-4.34a111.77,111.77,0,0,1,41.32,1.54c3.13.7,4.47-4.12,1.33-4.82a117.38,117.38,0,0,0-38.79-2.25,122,122,0,0,0-18.56,3.62c-4.09,1.13-8.2,2.6-12.5,1.8-3-.56-5.85-2-8.73-3a47.43,47.43,0,0,0-17.69-2.44c-6.34.34-12.6,3.07-18.93,2.45S46.23,117.08,39.83,117a65,65,0,0,0-19,2.64c-3.09.89-1.78,5.72,1.33,4.82Z"/>
      <path d="M157,81.56l23.52-4.12c3.17-.56,1.83-5.38-1.32-4.83l-23.53,4.12c-3.16.56-1.82,5.38,1.33,4.83Z"/>
    </g>
  </g>
</svg>
