<svg xmlns="http://www.w3.org/2000/svg" viewBox="0 0 107.71 110.49">
  <title>cloak</title>
  <g id="Layer_2" data-name="Layer 2">
    <g id="Layer_1-2" data-name="Layer 1">
      <path d="M35.91,8A37.25,37.25,0,0,0,74.63,5.3c2.59-1.86.1-6.19-2.52-4.31A32.31,32.31,0,0,1,38.44,3.71C35.58,2.25,33,6.56,35.91,8Z"/>
      <path d="M33.77,5.07A535.46,535.46,0,0,1,6.3,76C3,83-4.54,94.32,3.79,100.78c8.51,6.61,18.62-2,27.76.21,4.87,1.2,9.12,4.18,13.62,6.27a34.13,34.13,0,0,0,15,3.23c11.1-.14,22.56-3,33.45-5,9.67-1.77,15.15-7,13.9-17.23-1.46-12.06-5.33-24.18-8.06-36-3.13-13.6-5.27-28-9.63-41.23C87.36,3.47,78.67-4.33,71.25,2.82c-2.32,2.24,1.22,5.78,3.53,3.54,4.76-4.58,9.29,2.9,10.46,6.73,1.43,4.69,2.3,9.6,3.4,14.37l6.9,30c2.29,9.95,5.14,19.94,6.85,30,.88,5.23.19,10.4-5.52,12.24-4.59,1.48-9.73,1.87-14.47,2.68C73.05,104,62.62,107,53.15,104.85c-7.83-1.8-14.08-7.72-22.09-9a25,25,0,0,0-10.42.83c-4,1-9.4,3.14-13.31.54-5.41-3.59.08-12,2.08-16.16q3.23-6.75,6.28-13.59A549.11,549.11,0,0,0,38.6,6.4c.95-3.08-3.88-4.4-4.83-1.33Z"/>
      <path d="M29.85,97.34A58.67,58.67,0,0,0,45.65,62.2c.3-3.2-4.7-3.18-5,0A53.19,53.19,0,0,1,26.32,93.81c-2.21,2.34,1.32,5.88,3.53,3.53Z"/>
      <path d="M78.57,105,75,65.38c-.29-3.17-5.3-3.2-5,0L73.57,105c.29,3.17,5.29,3.2,5,0Z"/>
      <path d="M81.18,94.52l2.2,9.15c.75,3.12,5.58,1.8,4.82-1.33L86,93.19c-.75-3.12-5.58-1.8-4.82,1.33Z"/>
      <path d="M10,94.34c3.22,0,3.22-5,0-5s-3.22,5,0,5Z"/>
      <path d="M12.08,88.21c3.22,0,3.22-5,0-5s-3.22,5,0,5Z"/>
      <path d="M19.22,96.38c3.22,0,3.23-5,0-5s-3.22,5,0,5Z"/>
      <path d="M40.65,17.81c3.22,0,3.23-5,0-5s-3.22,5,0,5Z"/>
      <path d="M38.61,26c3.22,0,3.22-5,0-5s-3.22,5,0,5Z"/>
      <path d="M45.76,18.83c3.21,0,3.22-5,0-5s-3.23,5,0,5Z"/>
      <path d="M82.49,38.21c3.22,0,3.22-5,0-5s-3.22,5,0,5Z"/>
      <path d="M84.53,46.38c3.22,0,3.22-5,0-5s-3.22,5,0,5Z"/>
      <path d="M87.59,56.58c3.22,0,3.22-5,0-5s-3.22,5,0,5Z"/>
    </g>
  </g>
</svg>
