<svg xmlns="http://www.w3.org/2000/svg" viewBox="0 0 96.53 93.53">
  <title>coin</title>
  <g id="Layer_2" data-name="Layer 2">
    <g id="Layer_1-2" data-name="Layer 1">
      <path d="M28.06,87.88C10.49,83.62,3.51,61.2,5.15,45.2A44.87,44.87,0,0,1,35.28,7.44C51.05,2,69.78,5.67,80.65,18.88c6.43,7.82,9.3,18.91,10.48,28.8,1.11,9.26,0,18.9-6,26.37C70.93,91.64,45.66,89.28,25.7,87.11c-3.19-.35-3.17,4.65,0,5,21,2.29,46,4,61.75-13.13,7-7.64,9.59-17.65,9-27.85-.61-10.64-3.36-22.51-9.16-31.57C76.93,3.38,56.36-3.09,38.14,1.38,19.73,5.9,4.94,20.6,1.05,39.22-3,58.81,4.73,87.37,26.73,92.7c3.13.76,4.46-4.06,1.33-4.82Z"/>
      <path d="M37.24,75.6c-7.86-1.91-11.11-9.37-12.46-16.66-1.26-6.76-1.91-14.43.41-21,4.58-13,20.87-19.64,33.71-16.4,8.12,2,11.9,7.36,14.21,15.08C75,43,76.34,50.12,74.91,56.81c-3.65,17.13-22.75,19-37.15,19.56-3.21.13-3.22,5.13,0,5C51.42,80.84,67.59,79.55,76,67.06c7.38-11,4.83-27.16-.49-38.46C69.87,16.61,54.87,13.79,43,16.87,30.71,20.09,20.61,29.79,19,42.68c-1.64,13.37,1.4,34,16.89,37.74,3.13.76,4.46-4.06,1.33-4.82Z"/>
      <path d="M45.58,39.41a58.61,58.61,0,0,1,2.7,25.89c-.38,3.19,4.63,3.16,5,0A61.92,61.92,0,0,0,50.4,38.08c-1-3-5.85-1.73-4.82,1.33Z"/>
      <path d="M58.91,37.12A24.27,24.27,0,0,0,41.22,41c-3.29,2.28-8.43,6.8-5.81,11.27,3.08,5.27,10.42,2.75,15,1.87,1.88-.36,5.14-1.1,6.69.62,2.88,3.2-.21,3.92-2.25,4.65a31.14,31.14,0,0,1-14.54,1.77c-3.14-.48-4.5,4.34-1.32,4.83,5.89.9,32.57-2,22.79-13.74-4.17-5-10.31-3.25-15.74-2.2-1.22.23-5.63,1.23-6.1-1-.24-1.18,4.19-4.06,4.95-4.53a18.91,18.91,0,0,1,12.68-2.57c3.14.47,4.5-4.35,1.33-4.82Z"/>
    </g>
  </g>
</svg>
