<svg xmlns="http://www.w3.org/2000/svg" viewBox="0 0 237.56 257.21">
  <title>cultist</title>
  <g id="Layer_2" data-name="Layer 2">
    <g id="Layer_1-2" data-name="Layer 1">
      <path d="M79.36,53.24c-6.74,6.81-15.84-13.64-9.14-17.31,3.13-1.72,7.41.51,9.16,3.17,2.64,4,2.53,9.33,2.55,13.95,0,3.22,5,3.23,5,0,0-7-.38-15.77-6.74-20.21-4.53-3.16-11.75-3.61-15.3,1.24-7.07,9.66,6.56,34.25,18,22.69,2.27-2.29-1.27-5.82-3.54-3.53Z"/>
      <path d="M56.53,68.35c-10.61-9.93-15.25-24.94-11-39C49.64,15.76,63.45.91,78.81,6.19,85.38,8.45,91.24,12.8,97.05,16.5c6.16,3.91,12.34,7.84,18.86,11.13,11.29,5.71,23.23,9.12,35.9,7l-3.08-3.07c-3.07,7.9-10.78,12-17.91,15.68s-14.61,7.29-20.13,13.38c-6.56,7.24-11.06,16-21.79,17.15-8.62.9-17.42-3-21.94-10.46-1.66-2.75-6-.24-4.31,2.53A27.47,27.47,0,0,0,84,82.81c10.62,1,18.71-4.13,25.1-12.22,3.72-4.73,7.22-9.12,12.31-12.44,4.18-2.72,8.7-4.84,13.1-7.15,8.13-4.27,15.61-9.21,19.07-18.08.76-2-1.42-3.34-3.08-3.07-17.08,2.8-32.69-6.23-46.62-15C92.16,7.56,78.29-4.32,63.63,1.6c-13,5.25-22.18,18.72-24.23,32.32C37.27,48,42.68,62.23,53,71.89c2.35,2.2,5.89-1.33,3.53-3.54Z"/>
      <path d="M74.28,102.35c-4.35-6.78,3.75-12.64,9.78-13,6.53-.4,13.69,2.1,19.76,4.35,6.84,2.54,11.64,6.53,14.11,13.55,1.86,5.31,2.42,11,3.82,16.4,2.83,11,9.68,19.81,16.48,28.64,7.55,9.83,13.36,19.72,16.19,31.92A135.79,135.79,0,0,1,157.2,203c.46,5.2,3.27,16.47-1.55,20-2.5,1.84-6.81,2.35-9.77,3.08-3.32.82-6.66,1.52-10,2.07a132.14,132.14,0,0,1-21.58,1.72c-13.19,0-25.48-.56-38.19,3.59-5,1.62-13.24,4.16-16.58-1.69-2-3.57-.2-8.41.64-12.06s1.64-7.48,2.34-11.24c5.66-30.43,6.3-61.47,6.9-92.33.06-3.22-4.94-3.22-5,0-.68,35-1.68,69.88-9.5,104.11-1.24,5.42-2.38,11.65,1.86,16.09,3.65,3.83,9.35,4.59,14.35,3.69,7.86-1.42,14.81-4.7,22.94-5.18,8.29-.5,16.59.21,24.87-.05A136.82,136.82,0,0,0,142.67,232c5.61-1.17,14.57-2.16,18.37-7.12s1.86-12.83,1.44-18.38a163.27,163.27,0,0,0-2.87-21.93C156.5,170,149.37,158.63,140.42,147c-4.35-5.65-8.75-11.44-11.62-18s-3.38-13.47-5.19-20.2-5.23-12.87-11.4-16.66c-6.46-4-15-6.29-22.43-7.41-6.72-1-13.74,0-18.28,5.43-3.52,4.23-4.59,10-1.54,14.74,1.74,2.7,6.07.19,4.32-2.53Z"/>
      <path d="M80.63,238.39a48,48,0,0,0,9.17,18c2,2.51,5.53-1.05,3.54-3.53a42,42,0,0,1-7.89-15.76c-.83-3.11-5.65-1.79-4.82,1.33Z"/>
      <path d="M133.77,234.35l13.4,15.3c2.12,2.43,5.65-1.12,3.53-3.53l-13.4-15.3c-2.12-2.43-5.65,1.12-3.53,3.53Z"/>
      <path d="M58.92,111a49.64,49.64,0,0,0-31.17,21.18c-4.2,6.39-5.31,14.48-12.36,18.5-5.35,3.05-11.56,4.94-14.34,11-4.66,10.1,7.19,16.57,15.64,12.62,5.18-2.42,7.92-7.87,9.52-13.09.92-3,1.35-6.18,2.26-9.21,1.37-4.53,4.58-6.43,8.7-8.14,5.65-2.33,10.55-4.35,14.11-9.57,3-4.48,5.36-13.86,11.63-14.66,3.15-.41,3.19-5.41,0-5C50.54,116.13,50.82,132,40.66,137c-5.26,2.58-11.58,3.73-15,9-4.18,6.43-2.77,15.08-7.92,21.14-2.32,2.74-6.15,4.36-9.7,2.89-6.15-2.54-1.44-8.8,2.22-11.13,6.39-4.07,12.71-5.6,16.21-13,3.41-7.17,6.38-13.61,12.32-19.15a44.7,44.7,0,0,1,21.46-11c3.15-.66,1.82-5.48-1.33-4.82Z"/>
      <path d="M127.39,101.06c3.2-3.74,8.42-9.66,13.74-6.83,3.12,1.65,5,5.25,8,7.28a22.15,22.15,0,0,0,20.36,2.17c3.42-1.38,5.74-4.09,8.93-5.77,5.3-2.78,10.52,2.23,15.32,4.41a71.3,71.3,0,0,0,26.58,6.19l-2.16-1.24c.79,1.71-1.67,3.86-2.79,4.53a12.67,12.67,0,0,1-3.12,1.34,34,34,0,0,1-8.61.93,63.69,63.69,0,0,1-17.65-2c-3.7-1-8-3.54-11.78-1.82-3.54,1.59-5.52,5.4-9.13,7.14a18.37,18.37,0,0,1-13.41.94c-5.27-1.7-8.6-6.16-12.71-9.57-5.59-4.66-13.29-7.08-19.35-1.94-2.46,2.09,1.09,5.61,3.53,3.54,5.73-4.86,12.64,2.22,16.6,5.92,3.5,3.28,7.17,6.1,11.91,7.24a23.69,23.69,0,0,0,12.17-.33c4.67-1.39,7-4.25,10.72-7,3.29-2.39,6.7-.24,10.12.65a66.71,66.71,0,0,0,7.92,1.54,62.21,62.21,0,0,0,18.43.06c6.58-1.09,15-6,11.46-13.73a2.47,2.47,0,0,0-2.15-1.24c-11.55-.49-21.53-4-31.58-9.5-3.31-1.81-6.64-3-10.37-1.66-4.31,1.52-7.14,5.5-11.5,7a17.27,17.27,0,0,1-14.06-1.42c-3.57-2.09-5.44-6-9-8.1-7.59-4.45-15.19,2.17-19.92,7.7-2.08,2.44,1.44,6,3.53,3.54Z"/>
      <path d="M222.21,120.05a15.91,15.91,0,0,0,.38-6.48c-.26-2.19-1.12-5.09.41-7,2.39-3,4.07,3.55,4.44,5.3.61,2.9.3,6.55-3.09,7.49-3.1.87-1.78,5.69,1.33,4.83a9.82,9.82,0,0,0,7-9.12c.25-4.13-1.36-11.33-5-13.83-3.22-2.22-7.15-.15-9,2.81-3,4.73.14,9.72-1.29,14.68-.89,3.1,3.93,4.43,4.82,1.33Z"/>
      <path d="M221,101.82c-2.49-6-8.25-7.34-12.51-11.68-5.83-5.94,5.92-10.71,8.71-15.09,3.76-5.88,0-11.22-4.46-15.24-3.11-2.79-6.19-5.28-6.7-9.68a12,12,0,0,1,5.86-11.87l-3.76-2.16c-1,13.77,21.16,13.23,17.14,28.53-1.79,6.8-9.86,12-9.38,19.26.38,5.71,8,10.7,6.45,16.2-.85,3.11,4,4.44,4.82,1.33,1.78-6.51-3.49-10-5.63-15.49-1.78-4.59,1.73-7.48,4.14-10.9a28.3,28.3,0,0,0,4.78-10.57,15.86,15.86,0,0,0-5.31-15.65c-3.95-3.46-12.48-6.52-12-12.71.15-1.94-2.21-3.05-3.76-2.15a17.15,17.15,0,0,0-8.07,18.38c.84,3.82,3.07,6.68,5.9,9.27,3.57,3.28,9.14,7,4.77,12-4,4.63-11.82,7.52-10.05,15.09s11.56,7.92,14.25,14.45c1.21,2.93,6.05,1.65,4.82-1.33Z"/>
      <path d="M213.18,103.43h-6.39l.67,4.91a98.86,98.86,0,0,1,27.68-5.06c3.21-.12,3.23-5.12,0-5a104.16,104.16,0,0,0-29,5.24c-2.61.87-2.26,4.92.66,4.91h6.39c3.22,0,3.23-5,0-5Z"/>
      <path d="M68.83,41.44,72,48.63l4.32-2.52a5.9,5.9,0,0,1,3-7.86L76.5,37.1c2,2.6,4.69,5.72,4.6,9.21-.08,3-2.82,5.94-5.48,3.37a8.63,8.63,0,0,1-2-7.67c1.32-4.5,5.92-1.76,6.75,1.29,1.91,7-8.44,5.92-7.37,1.16.49-2.21,4.06-3.43,5.76-1.82,1.94,1.84.37,5.33-1.89,6l2.83,1.15a4.8,4.8,0,0,1,1.21-6.85l-3-.39c1.69,2.12,1.28,4.66-.26,6.7l3.42-.9a4.28,4.28,0,0,1-1.3-6.52l-2.43.65c1.85.24,3.49,1.56,3.1,3.63-.59,3.14,4.23,4.49,4.82,1.33a8.25,8.25,0,0,0-2.4-7.84C81,37.86,78,36.66,76,38.58c-4.21,4-2,11.47,2.58,14.06a2.58,2.58,0,0,0,3.42-.9c3-4,2.48-9-.52-12.75a2.49,2.49,0,0,0-3-.39,9.84,9.84,0,0,0-3,13.68,2.55,2.55,0,0,0,2.82,1.15C87.51,50.81,86,35.86,75.74,37c-4.17.46-8,3.85-7.79,8.25s4.09,7.56,8.17,8.14C86.27,54.84,88.6,40.64,80.86,36c-4-2.4-9.49-1.4-11.48,3s-.76,10.44,2.44,14a7.82,7.82,0,0,0,12.49-.78c4.06-6,.35-12.57-3.5-17.56A2.57,2.57,0,0,0,78,33.42a11,11,0,0,0-6,15.21c1.42,2.93,5.59.37,4.32-2.52l-3.17-7.19c-1.3-2.94-5.61-.4-4.32,2.52Z"/>
      <path d="M85.59,64.83A72.1,72.1,0,0,1,68.2,44.52c-1.62-2.86-7.78-12.11-3.75-14.84,4.61-3.11,9,8.09,10,10.69a40.38,40.38,0,0,1,2.8,13.49A11,11,0,0,1,77,57.05c-2.3,1.49-4.15,1.24-5.57-.75a22.94,22.94,0,0,1-4.31-5.93c-4.53-8.64-2.27-20.69,8.35-23.08l-2.82-1.15a48.55,48.55,0,0,1,5.73,15.09c.72,3.82,2.85,16-4.3,15.15-6.17-.76-6.69-9.53-7.23-14-.34-2.74-4.11-14.22,1.7-13.8,4.2.3,5.81,8.45,6.69,11.63,1.13,4.06,2,8.44,1.31,12.66-.43,2.47-1.83,7.31-5.27,5.12-1.49-1-2.82-4.24-3.66-5.77A55.5,55.5,0,0,1,62,36.81c-.58-2.71-5.23-2.17-4.91.66a44.61,44.61,0,0,0,10,23.71c1.58,2,4.94-.14,4.18-2.43-2.35-7-4.92-14-7-21.09A24,24,0,0,1,63,29.28c.34-4.7,4.12-7.73,8.81-5.45,5.71,2.77,9.15,12.2,11,17.8,2.17,6.42,2.48,15.89-5.42,18.53l2.82,1.14a45.73,45.73,0,0,1-4.56-13.55l-4.18,2.43a34.59,34.59,0,0,1,9.6,11.43,2.53,2.53,0,0,0,3.93.5c2.41-2.14,4.85-6.84.68-8.68a3.72,3.72,0,0,0-5.36,4.13c.67,3.14,5.49,1.81,4.82-1.33L85,55.62l-.65,2.44c-1.23-.71-2.2-.53-2.91.52l3.93.51A37.8,37.8,0,0,0,75,46.65a2.52,2.52,0,0,0-4.18,2.43,49.81,49.81,0,0,0,5.07,14.75A2.52,2.52,0,0,0,78.74,65c8.31-2.77,11.58-11.55,10.19-19.74-.92-5.41-3.45-10.56-5.88-15.43-2-4.08-4.6-8.1-8.74-10.3-7.2-3.83-15.13.18-16.19,8.2-.55,4.21.45,8.5,1.71,12.49,2.1,6.66,4.42,13.26,6.63,19.88l4.18-2.43a38.66,38.66,0,0,1-8.53-20.18l-4.91.67c1.38,6.45,9.8,34.26,20,24.21,8-7.9,4.08-22.59.07-31.48-1.94-4.32-6-8.33-11.19-7.3-5.4,1.08-6.39,6.58-5.66,11.23C61.8,43.38,62.61,64,76.56,61.34c15.3-2.86,4.71-30.16.38-37.73a2.55,2.55,0,0,0-2.82-1.14c-14.55,3.28-17.47,20.4-10.55,31.82,2.74,4.51,8.93,12,15,8.49,5.56-3.24,3.6-12.15,2.52-17.18C79.72,39.06,76.93,29.93,71,26.08c-4.15-2.68-10.73-2-12.65,3.13-2.29,6.08,4.15,15.7,7.24,20.61a76.21,76.21,0,0,0,16.5,18.54c2.48,2,6-1.5,3.54-3.53Z"/>
      <path d="M67.06,58.42A17.85,17.85,0,0,0,87.9,67l-2.82-3.67c-1.22,2.81-4.27,2.07-4-1L78,64.75a7.15,7.15,0,0,0,8.59-4.39c1.95-4.54-.82-9-3.48-12.59l-3.92,3a9,9,0,0,1,3.33,10.1c-.85,2.81,3,4.23,4.56,1.93a24.64,24.64,0,0,0,4.11-13.91l-4.91.67a18.25,18.25,0,0,1,1.34,6A17,17,0,0,1,87.35,59a5.1,5.1,0,0,0,1.16,5.33c2.33-2.23-1.21-5.76-3.53-3.53-3.15,3,1.28,7.65,4.69,5,4.54-3.55,3.08-13,1.38-17.5-1-2.52-4.92-2.33-4.91.66a19.93,19.93,0,0,1-3.42,11.39l4.57,1.92a13.8,13.8,0,0,0-4.62-15c-2-1.57-5.79.53-3.92,3a21.53,21.53,0,0,1,2.72,4.24c.68,1.61,1.35,6.39-2.19,5.39a2.54,2.54,0,0,0-3.17,2.41c-.78,7.94,10.1,10.86,13.29,3.49.8-1.85-.54-4.37-2.83-3.67A12.79,12.79,0,0,1,71.38,55.9c-1.52-2.84-5.84-.32-4.32,2.52Z"/>
      <path d="M69.61,36.39,73.75,46,75.9,42.2a2.51,2.51,0,0,1-2-3.07c.8-3.12-4-4.45-4.82-1.33a7.57,7.57,0,0,0,6.77,9.4c2.11.21,2.83-2.22,2.16-3.76l-4.13-9.57c-1.28-2.95-5.59-.4-4.32,2.52Z"/>
    </g>
  </g>
</svg>
