<svg xmlns="http://www.w3.org/2000/svg" viewBox="0 0 72.25 86.29">
  <title>diamond</title>
  <g id="Layer_2" data-name="Layer 2">
    <g id="Layer_1-2" data-name="Layer 1">
      <path d="M1.67,38.71l9.48,29.77c1.43,4.5,2.56,9.28,4.37,13.64,1,2.34,2.32,4.19,5.06,4.17,3.21,0,6.38-2.53,9-4.19a98.6,98.6,0,0,0,10.13-7.35A117.72,117.72,0,0,0,56.94,57.12,140.74,140.74,0,0,0,70.8,36.76c3.85-7.09-.87-14-3.62-20.8-3-7.4-6.61-10.17-14.49-11.58C47.86,3.51,43,2.67,38.2,1.82,33.71,1,28.91-.31,24.31.06c-8.09.66-14.37,8-18.49,14.39C1.1,21.74-1,30.13.48,38.73,1,41.89,5.86,40.55,5.3,37.4c-1.62-9.21,2.33-18.16,8.31-25,2.52-2.9,5.66-6.17,9.54-7.11C28,4.11,34,6.13,38.8,7c5,.88,10,1.59,15,2.66,5.16,1.11,7,3.78,8.91,8.48,1.43,3.47,3.88,7.66,4.55,11.38.78,4.38-3.11,8.77-5.35,12.23-8.7,13.42-19.47,25.83-32.84,34.76Q26.74,78,24.34,79.43c-3,1.72-3.24,1.9-4.82-1.11-2-3.8-2.85-8.95-4.14-13L6.49,37.38c-1-3.06-5.8-1.75-4.82,1.33Z"/>
      <path d="M4.25,33.46c4.61,3,13.5,5.15,17.73.18,2.08-2.44,1.7-6.22,1.72-9.17a149.49,149.49,0,0,0-.68-15c-.3-3.17-5.3-3.21-5,0a149.49,149.49,0,0,1,.68,15c0,3.43-.11,6.84-4.47,7a12.47,12.47,0,0,1-7.46-2.34c-2.71-1.76-5.22,2.57-2.52,4.32Z"/>
      <path d="M21.65,35a40.84,40.84,0,0,0,24-21.18c1.38-2.89-2.93-5.43-4.31-2.52A36,36,0,0,1,20.32,30.2c-3,1-1.73,5.86,1.33,4.82Z"/>
      <path d="M25.84,35.37c6.24-1.52,12.28-.14,18.46,1,3.32.62,9.34,2.61,12.34.22,2.51-2,1.75-5.72,1.29-8.47a35.94,35.94,0,0,0-6.18-14.72c-1.83-2.62-6.16-.12-4.31,2.52a32.38,32.38,0,0,1,5.35,11.84c.3,1.4,1.07,3.76,0,4.82-.81.82-5.88-.79-7.19-1-7.1-1.33-14-2.75-21.12-1-3.12.76-1.8,5.58,1.33,4.82Z"/>
      <path d="M58.86,34.47h3.06a2.5,2.5,0,0,0,0-5H58.86a2.5,2.5,0,0,0,0,5Z"/>
      <path d="M20.8,38.47a114.44,114.44,0,0,0-1.9,43.12c.46,3.17,5.28,1.82,4.82-1.33A107.66,107.66,0,0,1,25.63,39.8c.74-3.13-4.08-4.46-4.83-1.33Z"/>
      <path d="M52.22,32.55a390.4,390.4,0,0,1-26.9,44.26c-1.85,2.64,2.48,5.14,4.32,2.52a390.4,390.4,0,0,0,26.9-44.26c1.48-2.85-2.83-5.38-4.32-2.52Z"/>
    </g>
  </g>
</svg>
