<svg xmlns="http://www.w3.org/2000/svg" viewBox="0 0 122.54 229.77">
  <title>doppelganger</title>
  <g id="Layer_2" data-name="Layer 2">
    <g id="Layer_1-2" data-name="Layer 1">
      <path d="M84.92,227.36c-1.16-31.15-13.67-59.89-26.17-87.94-.77-1.72-3.5-1.54-4.32,0a541.2,541.2,0,0,0-35.75,83.49c-1,3.06,3.81,4.38,4.82,1.33A533.39,533.39,0,0,1,58.75,142H54.43c12.13,27.2,24.37,55.2,25.49,85.41.12,3.2,5.12,3.22,5,0Z"/>
      <path d="M60.49,142.91a404.91,404.91,0,0,1,7.26-75.22c.61-3.14-4.21-4.49-4.82-1.33a411.5,411.5,0,0,0-7.44,76.55c0,3.22,5,3.22,5,0Z"/>
      <path d="M67.9,67.3c-2.78,2.4-1.67,5.86.39,8.41,4.41,5.48,11.18,10,16.46,14.65l33.45,29.46c2.4,2.12,6-1.4,3.53-3.54l-26-22.91c-2.22-2-25-21.93-24.29-22.53,2.44-2.11-1.11-5.63-3.53-3.54Z"/>
      <path d="M66.21,63.82A554.66,554.66,0,0,1,1.3,97.8c-2.93,1.29-.39,5.6,2.53,4.31a552.94,552.94,0,0,0,64.9-34c2.74-1.67.23-6-2.52-4.32Z"/>
      <path d="M68.84,66.63a94.08,94.08,0,0,0,24.44-7.7c6.35-3,12.08-7,13.82-14.16,1.62-6.72.29-14.34-1-21-1.24-6.36-3.65-12.74-9-16.74C91,2.46,82.76,1.49,75.46.53c-7.15-.95-14.83-1-21.08,3.1-10.23,6.72-14,20.24-12.32,31.81C44,48.83,52.47,60.64,65.12,65.67c3,1.19,4.29-3.64,1.33-4.82-11.9-4.74-19.39-17.22-19.79-29.79a29.48,29.48,0,0,1,4.18-16.5C55.92,6.37,63.92,4.3,73.1,5.24,80.45,6,90.26,6.9,95.71,12.43c5.19,5.26,6,13.94,6.75,20.92.39,3.77.7,7.89-.59,11.53-1.59,4.52-5.44,6.91-9.5,8.95a88.86,88.86,0,0,1-24.86,8c-3.16.55-1.82,5.37,1.33,4.82Z"/>
      <path d="M82.14,40.27c4.74-1.89,7.48-7.89,4.55-12.48S76.65,24,74,28.37c-3,4.94,1.91,10.68,7.19,10.08,5.81-.65,7.55-8.35,3.54-12.14-2.18-2.06-5.44-3.11-7.8-.65-2.51,2.63-.74,6.71,2.4,7.71s4.38-3.83,1.32-4.82c.28.09-.28.57-.22.77s1,.75,1.23,1.09A2.5,2.5,0,0,1,81.48,33c-1.15,1.3-4-.19-3.36-1.87.53-1.51,3.22-2,4.25-.84,1.3,1.5.13,4.45-1.56,5.13-3,1.17-1.67,6,1.33,4.82Z"/>
      <path d="M81.55,35.5a48,48,0,0,1,19,6.46c2.78,1.64,5.3-2.68,2.52-4.32A53.91,53.91,0,0,0,81.55,30.5c-3.19-.37-3.16,4.64,0,5Z"/>
      <path d="M56.2,34c3.9,0,11.73-2.78,9.48-7.86-1.77-4-6.44-7.1-10.83-5.33C51.26,22.29,49,27,51,30.56c2.29,4,8.06,4.13,11.52,1.71,6.31-4.42,6.17-16.37-3.06-16.67a9.64,9.64,0,0,0-8.78,5c-1.87,3.8.27,8,4,9.54a7.72,7.72,0,0,0,10.57-6.5c.56-6.25-7.6-6-10.69-2.35-2.06,2.44,1.46,6,3.54,3.54a2.57,2.57,0,0,1,3.3-.88l-1.15-1.49c.88,5-7.22,3.29-4.83-.12,1.46-2.08,5.59-2.68,6.5.17s-2,7-5.18,6.31c-2-.4-1.86-2.51-.16-3.32,2.09-1,4.15,1.5,4.75,3.21L62,26.3A7.16,7.16,0,0,1,56.2,29c-3.21,0-3.22,5,0,5Z"/>
      <path d="M54.51,20.47H46.06c-3.21,0-3.22,5,0,5h8.45c3.22,0,3.22-5,0-5Z"/>
      <path d="M80.34,41.25a10.07,10.07,0,0,0,7.58-10.32c-.29-4.87-4.47-8.22-9.18-8.39a9.05,9.05,0,0,0-9.52,7.81A10,10,0,0,0,75.67,41c3,1.13,4.32-3.7,1.33-4.82-4.6-1.72-3.36-9,1.74-8.64,5.55.36,5.26,7.8.27,8.89-3.14.68-1.81,5.5,1.33,4.82Z"/>
    </g>
  </g>
</svg>
