<svg xmlns="http://www.w3.org/2000/svg" viewBox="0 0 322.32 310.58">
  <title>duck</title>
  <g id="Layer_2" data-name="Layer 2">
    <g id="Layer_1-2" data-name="Layer 1">
      <path d="M84.85,104.07c30.36,13.13,63.58,11,95.89,11,31.89,0,63.81,4.13,93.26,17a157.9,157.9,0,0,1,44.06,28.47l.5-3.92C273,186.74,222,214.84,166.48,219.32c-25.73,2.07-58.6,1.2-77.76-18.66-9.13-9.47-16.12-21.74-21.44-33.7-5.61-12.64-8.91-26.45-7.51-40.33,2.88-28.54,22.32-52.88,21.6-82.15-.08-3.21-5.08-3.22-5,0,.69,27.8-17.14,51.37-21.12,78.3s8.43,54.27,24.58,75.14c17.12,22.12,44.55,26.88,71.1,27,28.71.12,57.06-6.71,83.66-17.2,30.6-12.07,59.13-28.73,86.5-46.84a2.54,2.54,0,0,0,.5-3.93c-22.3-20.6-50.23-33.81-79.66-40.69-32.08-7.49-64.22-5.49-96.85-6.15-19.67-.4-39.49-2.48-57.71-10.36-2.92-1.26-5.47,3-2.52,4.32Z"/>
      <path d="M107.75,105.65c-3.59-5.54-7.67-11.73-8.14-18.51-.51-7.31,4.68-12.37,7.71-18.46a48.83,48.83,0,0,0,4.33-29.76C108.22,18.56,90.79,2.61,70.37.27,60.5-.86,50.91,1.43,44.61,9.5c-3.45,4.42-5.8,9.91-10,13.68-3.65,3.26-8.41,4.69-13,6-6.91,2-15,3.65-19.48,9.89-5.16,7.25-.15,14.25,8.37,13,4.46-.68,8.27-3.26,12.38-4.91,2.31-.93,4.75-1.84,7.17-.78,2.66,1.16,4.14,4.22,6.66,5.71,4.67,2.76,10.18,1.5,15-.25S65.07,45.55,69,51.12c1.83,2.61,6.17.12,4.31-2.53C68.9,42.32,61,42.92,54.52,45.32,49.36,47.23,43,50.88,37.94,46.79,35,44.41,33.42,41.58,29.38,41c-7.55-1.15-13.13,5.77-20.3,6.24-7.64.5-1.74-7.08,1.21-8.8,3.5-2,7.57-3,11.43-4.06C29.19,32.23,36.07,29.75,41,23.48c2.59-3.26,4.51-7,7-10.29,4-5.36,9.53-7.91,16.19-8.19,21.84-.93,41.24,17,43,38.53a44.2,44.2,0,0,1-2,17.36c-2.07,6.24-6.36,11.06-8.93,17-4.6,10.66,1.45,21.44,7.19,30.28,1.74,2.69,6.07.19,4.32-2.52Z"/>
      <path d="M62.81,27.22c-2.92-2.15-2.45-7.81,1.81-7.6,1.49.07,3.23,1,3,2.73a2.9,2.9,0,0,1-3.55,2.47c-3.06-1-4.38,3.83-1.33,4.83,4.2,1.37,8.69-1.74,9.67-5.9s-2-8.14-6.21-8.95A8.49,8.49,0,0,0,56.48,20a10.12,10.12,0,0,0,3.8,11.51c2.6,1.91,5.09-2.42,2.53-4.31Z"/>
      <path d="M118.84,127.74c4.78,10.11,14.41,17.1,25.22,19.57a39,39,0,0,0,16.49.27,33.76,33.76,0,0,0,7.5-2.51c2.83-1.33,5.25-3.91,8.14-5,5.05-1.88,9,4.09,12.35,6.77a40.47,40.47,0,0,0,8.75,5.46c6.42,2.82,12.88,2.72,19.57,1,7-1.8,15.52-6.12,22.67-2.67,5.5,2.66,8.49,8.77,13.07,12.58s10.61,4.83,16.07,1.8c7.52-4.18,10.12-12.88,14.71-19.59,1.83-2.66-2.5-5.17-4.31-2.52-4.09,6-6.57,14.86-13.58,18.16-6.66,3.13-11.35-3.16-15.19-7.54-3.21-3.67-6.71-7.18-11.56-8.5-5.73-1.56-11.69.09-17.21,1.72-6.77,2-13.49,4.16-20.47,1.7a33.79,33.79,0,0,1-10.21-6.14c-2.5-2.07-4.64-4.85-7.36-6.61-5-3.22-9.45-.2-13.72,2.62a29.84,29.84,0,0,1-15.92,5c-12.74.3-25.18-6.49-30.7-18.12-1.37-2.91-5.68-.37-4.31,2.52Z"/>
      <path d="M190.35,229.45l6.82,32c.44,2.05,2.08,5.93.92,7.73s-5.26.93-7.36.93l-16.61,0a2.53,2.53,0,0,0-2.5,2.5A19.43,19.43,0,0,0,186.53,291l-1.11-4.18A25.87,25.87,0,0,0,179,304a2.51,2.51,0,0,0,3.16,2.41l13.34-4.07c1.89-.57,12.48-5,14-3.28.88,1-.25,5.66,0,7a5.76,5.76,0,0,0,2.88,4.17,2.53,2.53,0,0,0,3.68-1.49q3.76-12.56,7.35-25.18c.87-3.07,2.26-6.46,1.66-9.73s-3-5.86-4.69-8.58A73.48,73.48,0,0,1,210,218.61c.34-3.19-4.66-3.17-5,0a78.26,78.26,0,0,0,7.12,41.85,76.6,76.6,0,0,0,5.36,9.41c2.89,4.34,2.5,7.62,1.16,12.36q-3.57,12.61-7.36,25.18l3.68-1.49c-1.48-.9-.14-6.55-.61-8.21a5.59,5.59,0,0,0-4.86-4.24c-4-.44-8.71,2-12.42,3.16l-16.2,4.94L184,304A20.46,20.46,0,0,1,189,290.39c1.15-1.37.85-3.71-1.1-4.18a14.35,14.35,0,0,1-11.24-13.63l-2.5,2.5c7.16,0,14.33.13,21.49.05,4.23-.05,8.1-.66,8.14-5.74,0-6.12-2.55-13-3.82-19l-4.76-22.31c-.67-3.15-5.49-1.82-4.82,1.33Z"/>
      <path d="M151.46,227a12.78,12.78,0,0,1-2.85,14.25c-3.1,3-7.49,3-11.25,4.74-2.46,1.11-4.6,2.84-5,5.66a8,8,0,0,0,.75,4.52c.56,1.3,3.23,4.09,2.49,5.54l2.16-1.23c-6.25-.09-13.76.23-17.61,6-2.8,4.19-2.8,10.09,1.65,13.15,4.66,3.22,12.62,3,17.93,2s9.69-3.57,11.3-8.88l-4.18,1.1a104.37,104.37,0,0,1,7.09,9c1.11,1.58,4.14,1.7,4.57-.6q5.85-31.44,10.2-63.12c.44-3.15-4.38-4.51-4.82-1.33q-4.35,31.68-10.2,63.12l4.56-.6a116.47,116.47,0,0,0-7.86-10c-1.29-1.47-3.66-.59-4.18,1.1-1.9,6.27-10.81,6-16.07,5.51-4.68-.45-9.42-3.68-5.3-8.4,3-3.48,8.79-3.12,12.92-3.06a2.47,2.47,0,0,0,2.16-1.24c2.32-4.6-1.62-6.34-2.32-10.54s9.13-5,12.13-7c7.32-4.8,9.63-14.52,6.05-22.27-1.34-2.92-5.65-.38-4.31,2.52Z"/>
    </g>
  </g>
</svg>
