<svg xmlns="http://www.w3.org/2000/svg" viewBox="0 0 259.34 442.09">
  <title>earth_golem</title>
  <g id="Layer_2" data-name="Layer 2">
    <g id="Layer_1-2" data-name="Layer 1">
      <path d="M84.9,341.16l-24,60.8c-3.15,8-5.84,14.37,1.9,20.41,6.33,4.92,14.27,9.73,21.92,12.24,8.45,2.77,15.34-3.19,22-7.68,7.48-5.05,14.83-10.6,20.53-17.68,11.29-14,13-30.4,5.31-46.63-7.86-16.49-24.37-31.15-43.8-25.53-3.09.89-1.77,5.72,1.33,4.82,16-4.62,29.55,7.06,36.67,20.32,7.86,14.63,7.6,29.77-2.75,43.08-4.71,6.06-10.72,11-17,15.35-5.72,4-13.58,11.35-21,9.13-6.84-2.05-14.34-6.84-19.95-11.19-3.94-3-3.9-6.33-2.19-10.71,1.56-4,3.15-8,4.72-12l21.07-53.43c1.18-3-3.65-4.29-4.82-1.33Z"/>
      <path d="M100,337.2c-1.08,3.16-5,3.85-7.89,2.82-3.46-1.26-5.27-4.83-6.31-8.14-2.17-7-2.31-14.89-2.42-22.14-.1-6.41-1.08-15.91,2.84-21.42s12.3-5.24,18.23-5,12.47,1.66,16.75,6c5,5.16,5.43,12.66,5.15,19.47a159.61,159.61,0,0,1-9,45.34c-1.05,3.05,3.78,4.36,4.82,1.33,5.47-15.79,9.29-33,9.23-49.78,0-13-6-23.4-19.23-26.39-10.28-2.34-26.8-2.53-31.65,8.95-2.84,6.7-2.3,15.32-2.14,22.41.17,7.55.39,15.92,2.81,23.16,1.85,5.58,5.66,10.66,11.84,11.42,5.2.63,10-1.69,11.77-6.77,1-3-3.79-4.36-4.82-1.33Z"/>
      <path d="M121.79,278.91a39.78,39.78,0,0,0,8.82,26.38c6.85,8.4,16.78,12,26.21,16.69,9.63,4.74,19,11.89,18.21,23.66-.44,6.78-.72,15.57,8.63,15.15,19.07-.86,38.73-15.78,41.84-35,1.63-10.07-2-19.27-7.36-27.63s-11.29-17.08-18.89-23.52c-20.41-17.29-46.31-6.88-70.17-10.19-3.14-.44-4.51,4.38-1.33,4.82,18.16,2.52,37.54-3.74,55.24,1.86,9.29,2.94,16.25,9.58,22.1,17.13,5.74,7.4,12.18,15.77,14.8,24.88,5.89,20.54-12.36,36.94-30.53,41.5-2.54.63-7.52,2.39-9.35-.63-.79-1.3-.36-3.8-.27-5.25.22-3.36.7-6.61-.05-9.95-1.66-7.39-7.34-13.26-13.45-17.35-8.12-5.42-17.9-7.86-25.78-13.68a34.5,34.5,0,0,1-13.67-28.92c.1-3.22-4.9-3.22-5,0Z"/>
      <path d="M103,274.82a33.31,33.31,0,0,1-9-1.3c-.75-.23-3.73-.87-4-1.49-.36-.84.89-2.15,1.37-2.92l10-16c3.3-5.32,6.24-12,10.51-16.57,4-4.32,13.72-2.49,19.12-2.49l18.86,0c5.09,0,16.11-1.93,19.61,2.24s5.63,11.33,7.14,16.44c1.87,6.3,2.32,12.47.06,18.72-1.09,3,3.74,4.34,4.82,1.33,2.55-7,2-14.28-.06-21.38a83.43,83.43,0,0,0-4.08-10.56c-1.35-3-2.61-6.64-5-9C167.55,227,157.86,229,151.81,229L124,229c-6.62,0-12.73-.25-17,5.59-5.23,7.14-9.52,15.18-14.19,22.7-2.4,3.87-5.4,7.71-7.33,11.82-.95,2-1.51,3.75,0,5.69,3.39,4.3,12.6,4.92,17.53,5,3.22.05,3.22-4.95,0-5Z"/>
      <path d="M89,245.12c-6.64-3.36-8.51-10.87-7.13-17.78,1.6-8.1,7.6-13.59,14.73-17.2a66.17,66.17,0,0,1,12.3-4.52c4.28-1.18,11.24-4.4,14.56-.3,2.84,3.5,4.41,9.42,6.32,13.52l6.54,14c1.35,2.91,5.66.38,4.31-2.52l-9.39-20.2c-1.95-4.19-3.69-10.83-8.95-12-4.71-1-11,1.55-15.46,2.82a64.2,64.2,0,0,0-15.39,6.26c-8.1,4.82-13.9,12.22-14.85,21.77-.82,8.18,2.29,16.56,9.89,20.4,2.86,1.45,5.4-2.86,2.52-4.32Z"/>
      <path d="M128.75,196c.58-8.52,7.92-14.9,15.93-16.69,8.76-2,17.86,1.06,25.6,5,4.05,2.08,9.24,4.36,10.49,9.15,1.13,4.31.69,9.49.81,13.95.07,2.47-.69,27.87-.07,28.07-3.08-1-4.39,3.86-1.33,4.82,3.58,1.11,5.72-2,6.31-5.17,1.24-6.61.32-14.35.23-21.06s.23-13.69-.83-20.26c-1-6.1-4.92-9.25-10-12.16-10-5.69-22.33-10.25-33.87-6.84-9.73,2.88-17.52,10.81-18.23,21.15-.22,3.21,4.78,3.2,5,0Z"/>
      <path d="M87.2,209.76c-9.08-4.49-11.24-15.49-8.9-24.58C80.77,175.56,87.42,168,96,163.29c9.34-5.1,20.14-6.95,30.63-7.84,2.4-.2,4.82-.41,7.23-.47,3.83-.1,5.88,1.62,7.17,4.94,2.37,6,4.36,12.27,6.53,18.39,1.07,3,5.91,1.71,4.82-1.33-2.48-7-4.3-14.87-7.75-21.45-2.82-5.37-7.56-5.75-13.13-5.43-13.48.79-27.58,2.69-39.41,9.66-9.81,5.78-17.18,15.36-19.21,26.69C71,197,74.54,209.07,84.68,214.08c2.88,1.42,5.41-2.89,2.52-4.32Z"/>
      <path d="M87,140.26q-10.23,1.53-20.42,3.27c-6,1-12.55,1.55-18.2,3.88-8,3.32-11.7,11.35-13.06,19.46-1.27,7.58-3.21,18.94,3.53,24.44,8.34,6.8,21.77,6.37,31.2,2.57,3-1.18,1.66-6-1.33-4.82a31.46,31.46,0,0,1-14.53,2.42c-4.1-.34-10.27-1.58-13.12-4.88s-1.79-9.61-1.47-13.67A45,45,0,0,1,41.37,163c2.78-9,9.13-11.52,17.85-13.12q14.53-2.65,29.15-4.81c3.17-.48,1.83-5.3-1.33-4.82Z"/>
      <path d="M25.51,174.82c-6.94,15.5-14.14,32-11.88,49.42,1,8,4,15.56,7.49,22.79,2.41,5,5.74,15.5,12.06,16.75,5.9,1.17,11.24-6.42,14.33-10.42a66.93,66.93,0,0,0,9.74-18.1c5.07-14.07,6-29.43,4.32-44.19-.34-3.17-5.35-3.2-5,0,1.32,11.94,1,24.11-2,35.8a68.68,68.68,0,0,1-6.43,16.43c-2.57,4.62-6.57,11.67-11.36,14.28s-6.45-3.57-8.14-6.77c-1.52-2.87-3-5.75-4.35-8.7-3.1-6.75-5.55-13.94-6-21.4-1-15.24,5.48-29.78,11.56-43.37,1.3-2.91-3-5.46-4.32-2.52Z"/>
      <path d="M25.89,244.57c-9.77-3-18.73,7.77-23.14,15.22-5.54,9.37-2.12,19.43,5,26.82,6.41,6.63,18,14.27,27.21,8.85,10.12-5.93,8.88-18.9,7.18-28.72-.54-3.17-5.36-1.83-4.82,1.33,1.26,7.28,2.92,17.32-4,22.42s-17-2.23-22-7.41C6.05,277.59,2.76,270.27,6.66,263c2.95-5.49,10.78-15.8,17.9-13.61,3.09.94,4.41-3.88,1.33-4.82Z"/>
      <path d="M186.19,361.63,185.28,388c-.27,7.9-1.36,16.21-.66,24.08.53,6,4.17,8.8,9.52,10.93,8.2,3.27,16.47,6.39,24.7,9.58,4.36,1.69,12.31,7,16.68,3.26,4-3.44,3.87-12,3.81-16.8-.09-7.36-1.48-14.73-.86-22.1s5.12-13.09,6.56-20.17-2.21-13.34-6.33-18.9c-6.1-8.24-12.33-16.38-18.5-24.57-1.91-2.53-6.25-.05-4.32,2.53q8.42,11.18,16.83,22.34c2.27,3,4.77,6.06,6.33,9.53,2.2,4.9,1.16,9-.94,13.64-2.92,6.51-4.78,12.41-4.76,19.64s1.38,14.73.9,22.12c-.13,2-.21,4.56-1,6.47-1,2.26-.92,2.18-3,2.09s-5.29-2-7.32-2.84l-5.49-2.13-12.81-5C201,420.3,195,419.05,192,416.51c-3.78-3.21-2.39-9.6-2.24-13.9l.48-13.66.94-27.32c.11-3.22-4.89-3.21-5,0Z"/>
      <path d="M184.25,423.31c2.78,9.12,11.68,13.2,20.58,14.17,6.31.68,12.56-.54,18.83-1.08a42.79,42.79,0,0,1,11.53.18c3.42.65,6.27,2.53,9.57,3.43,18.61,5.05,17.55-36.56-3.5-32.37-3.16.63-1.82,5.45,1.33,4.82,8.34-1.66,11.77,11,10.18,17-.5,1.92-1.42,4.37-3.29,5.38-2.58,1.41-5-.39-7.39-1.36a31.4,31.4,0,0,0-10.51-2.34c-12-.66-37.33,7.77-42.51-9.2-.93-3.07-5.76-1.76-4.82,1.33Z"/>
      <path d="M66.5,415.58a34.49,34.49,0,0,1-16,4.47c-3.61.18-7.66.22-10.86,2.13-6.48,3.89-5.4,12.16-.14,16.59,7.55,6.35,19,1.84,27.6.72a135.09,135.09,0,0,1,38.36.54c3.14.49,4.5-4.33,1.32-4.82a143.36,143.36,0,0,0-26.9-1.77c-8.8.29-17.23,1.95-25.91,3.2-4.43.64-11,1-13.23-4.06-2.46-5.6,3.35-7.12,7.72-7.44,7.45-.55,13.91-1.45,20.55-5.24,2.79-1.6.27-5.92-2.53-4.32Z"/>
      <path d="M121.45,434.47a21.23,21.23,0,0,0,2.93-26.89,2.52,2.52,0,0,0-4.66,1.26l-1.11,23.82c-.15,3.22,4.85,3.21,5,0l1.11-23.82-4.66,1.26a16.2,16.2,0,0,1-2.15,20.83c-2.31,2.24,1.22,5.78,3.54,3.54Z"/>
      <path d="M112.84,132.06c-11.9.66-24.45,1.46-35.82-2.88-10.52-4-19.24-12.62-19.9-24.35-.34-6,1.16-11.85,3.14-17.44,1-2.93,2.24-5.79,3.51-8.63,1.76-4,2.76-6.43,7.56-6.82,12.14-1,24.68-.4,36.83.06,6.11.23,12.21.64,18.31,1,5.2.33,9.88,0,14.52-2.55,5-2.79,9.19-6,15.3-5.5s11.62,3.44,16.61,6.62c8.25,5.24,19.85,13,22,23.33,2.36,11.29-12.06,19.77-19.73,25.47-9.93,7.39-21.22,14.27-33.89,15s-24.55-4.45-37.18-2.35c-3.16.53-1.82,5.35,1.33,4.82,13.83-2.3,27.36,4.28,41.3,1.91,12.6-2.15,23.65-9.38,33.6-17.05,8.07-6.21,19.84-13.53,19.88-25,0-11.1-9.9-19.62-18-25.69-9.05-6.78-20.72-14.34-32.61-11.45-6.78,1.64-11.42,7.45-18.66,7.65-7.54.21-15.22-.92-22.76-1.21q-11.62-.45-23.26-.35c-5.9,0-14-1.2-19.52,1.41-4.24,2-5.67,7.47-7.38,11.49C55.26,86,52.91,92.66,52.25,99.67,51,113.18,57.94,124.8,69.68,131.26c13.17,7.25,28.64,6.6,43.16,5.8,3.2-.18,3.23-5.18,0-5Z"/>
      <path d="M77.87,63.24,68.74,48.06c-1.4-2.33-5.66-.79-4.57,1.92a6,6,0,0,0,7.44,3.78c4.18-1.11,5.49-5.52,6.12-9.29H72.91A12.71,12.71,0,0,0,88.69,52.7l-3.16-2.41a42.6,42.6,0,0,1-1.94,11.64c-1,3.08,3.87,4.39,4.82,1.32a47.93,47.93,0,0,0,2.12-13,2.52,2.52,0,0,0-3.16-2.41,7.66,7.66,0,0,1-9.64-4.74c-.72-2.11-4.38-2.63-4.82,0a13.65,13.65,0,0,1-.64,3.06c-.18.43-2.51,4.34-3.27,2.45l-4.57,1.93,9.12,15.19c1.66,2.75,6,.24,4.32-2.53Z"/>
      <path d="M87.13,101.23c-4.12-3.11.16-10,4.75-9a8,8,0,0,1,5.8,5.6,4.55,4.55,0,0,1-.6,4c-.53.77-2,2.46-3,1.56-2.42-2.1-6,1.43-3.54,3.53,4.43,3.82,10.13.33,11.87-4.55,2-5.63-1.92-11.88-7-14.22a10,10,0,0,0-13.24,4.18c-2.48,4.57-1.69,10.09,2.51,13.26,2.57,1.94,5.07-2.4,2.53-4.31Z"/>
      <path d="M170,97.59c-3.19-1-3.49-7.26.07-7.92,2.16-.4,4.15,1.77,4.73,3.64.23.76.4,2-.16,2.49a10.38,10.38,0,0,1-2.22.88l-2.93,1.25c-3,1.25-.41,5.56,2.52,4.31,2.54-1.08,6.1-1.72,7.3-4.43a8.51,8.51,0,0,0,.12-6.37c-1.49-4.15-5.84-7.59-10.41-6.64-8.59,1.79-8.41,15.2-.35,17.61,3.09.93,4.41-3.9,1.33-4.82Z"/>
      <path d="M160.74,142.06a17.35,17.35,0,0,1,16.83,1c6.62,4,8.79,11,7.62,18.47a59.85,59.85,0,0,1-2.89,10.42c-.46,1.28-1,3.53-1.93,4.59-2.13,2.32-4.9.94-7.16.28-7.94-2.32-15.87-4.7-23.8-7.06-3.1-.91-4.42,3.91-1.33,4.82L166.39,180c4.07,1.21,9.73,4.07,14.09,2.58,3.4-1.17,4.86-4.51,6-7.62,2-5.19,3.7-10.71,4-16.29.83-16.8-17.21-28.55-32.27-20.93-2.87,1.45-.34,5.77,2.52,4.32Z"/>
      <path d="M193.6,163.18a40.16,40.16,0,0,1,22.89,28.76c.67,3.52,2.22,9-2.4,10.06-2.56.6-5.74.29-8.34.2-6.61-.22-13.71-1.57-17.63-7.43-1.78-2.66-6.12-.16-4.32,2.52,4.42,6.59,11.49,9.08,19.14,9.75,6.65.58,18,1.93,19.11-6.95,2.07-17-11.16-34.49-25.93-41.23-2.91-1.32-5.45,3-2.52,4.32Z"/>
      <path d="M221.54,200.26,234.27,209c3.52,2.42,6,3.53,6.07,8.36,0,2.44-1.05,5.3-1.52,7.7-1.77,9-2.7,22-11.75,26.89-4.79,2.61-10.56,2.1-13.35-3.07-2.28-4.22-2.18-9.55-2.43-14.19l-1.81-33.6c-.17-3.2-5.18-3.22-5,0l1.35,25c.34,6.41.19,13.11,1.51,19.42,2.27,10.84,12.19,16.37,22.25,10.8,11.27-6.24,12.41-21.52,14.62-32.77,1.12-5.69,2.84-10.93-2.13-15.12-5.51-4.63-12.09-8.39-18-12.47-2.65-1.83-5.15,2.5-2.52,4.32Z"/>
      <path d="M239.58,247.69c4.1,1.12,8.67,2.21,11.86,5.2s4.49,9.07-.25,11.32c-3.59,1.7-9.93,1.55-13.83,1.1-5.59-.66-11.25-4-11-10.29.14-3.22-4.86-3.21-5,0-.28,6.52,4.27,12,10.29,14.1,4,1.43,8.42,1.46,12.64,1.15,3.63-.27,7.87-.35,11-2.5,4.56-3.16,5-9.62,2.72-14.3-3.16-6.52-10.62-8.84-17.09-10.6-3.11-.85-4.43,4-1.33,4.82Z"/>
      <path d="M18.09,194a8.29,8.29,0,0,1-3.61-6.4c-.17-3.2-5.18-3.22-5,0a13.58,13.58,0,0,0,6.09,10.71c2.67,1.81,5.18-2.52,2.52-4.31Z"/>
      <path d="M23.4,181.11a17.43,17.43,0,0,1-3.94-14.73c.6-3.14-4.22-4.49-4.82-1.32a22.79,22.79,0,0,0,5.23,19.59c2.1,2.44,5.63-1.11,3.53-3.54Z"/>
      <path d="M108.81,66a48.43,48.43,0,0,1,7.11-28.79c1.69-2.75-2.64-5.26-4.32-2.52A53.07,53.07,0,0,0,103.81,66c.2,3.2,5.2,3.22,5,0Z"/>
      <path d="M117.57,27.75c-1.58.76-4.22-2.14-2.8-3.49,1-1,3.93-.33,4.07,1.22.29,3.18,5.29,3.21,5,0-.55-6.07-9-9.15-13.06-4.23-2.16,2.64-1.58,6.3.52,8.77a7.24,7.24,0,0,0,8.8,2.05c2.9-1.38.37-5.69-2.53-4.32Z"/>
      <path d="M109.21,26.62c-1.17.38-4.57,2.16-5.74,1.64-1-.42-1.36-2.66-1.4-3.5-.19-3.61,1.81-5.31,5-6,2.11-.44,4.44-.67,5.74-2.64,2-3-1.36-5.87.13-8.88a4,4,0,0,1,6.46-.89c2.1,2.15,1.39,4.34.79,6.84-.51,2.11-1.25,4.41-.29,6.52s2.48,2.66,4.5,3.1,4-.28,5.21,2.25c1.92,4-2.55,6.22-5.51,4.66-1.84-1-4.37.64-3.68,2.82a11.71,11.71,0,0,1-2.1,11.48l3.43-.9a12.1,12.1,0,0,1-5.25-13.92c.89-3.1-3.94-4.42-4.83-1.33a17.22,17.22,0,0,0,7.55,19.57,2.57,2.57,0,0,0,3.42-.9,16.31,16.31,0,0,0,2.6-15.33l-3.67,2.82c9.42,5,18.81-7.54,9.87-14.37-2-1.55-6.55-1.2-6.77-3.9-.2-2.47,1.54-4.72,1.07-7.44C124.93,3.83,121-.13,116.22,0a9.36,9.36,0,0,0-8.75,8.3c-.1,1.08,1,4.65.67,5.23s-3.06.48-3.62.62a9.07,9.07,0,0,0-5.07,3.21A11.61,11.61,0,0,0,98,28.91c2.8,6.3,7.19,4.26,12.55,2.53,3.06-1,1.75-5.81-1.32-4.82Z"/>
      <path d="M156.21,63.32a65.09,65.09,0,0,0,1.68-21c-.27-3.19-5.27-3.21-5,0A60.82,60.82,0,0,1,151.39,62c-.77,3.12,4.05,4.46,4.82,1.33Z"/>
      <path d="M163.63,65.16a14.81,14.81,0,0,0,7.5-10.34c.55-3.15-4.27-4.5-4.82-1.33a10.1,10.1,0,0,1-5.2,7.35c-2.83,1.54-.31,5.86,2.52,4.32Z"/>
      <path d="M178,72.46a38.45,38.45,0,0,1,12.26-11.38c2.76-1.64.25-6-2.53-4.32a44.29,44.29,0,0,0-14,13.17c-1.83,2.66,2.5,5.17,4.31,2.53Z"/>
    </g>
  </g>
</svg>
