<svg xmlns="http://www.w3.org/2000/svg" viewBox="0 0 187.57 237.24">
  <title>ghost</title>
  <g id="Layer_2" data-name="Layer 2">
    <g id="Layer_1-2" data-name="Layer 1">
      <path d="M38.94,71.59A99.9,99.9,0,0,0,0,151.79a2.52,2.52,0,0,0,4.66,1.26,185.38,185.38,0,0,1,44.41-46.41l-3-.39c8.61,9.82,3.19,26.15,13.37,35.13,6.25,5.51,14.44,3.74,22,3.4,9.51-.43,20.06,2.44,25.37,11,5.17,8.33,2.9,17.8-4.86,23.39-5.81,4.19-12.72,6.57-18.42,10.94-11,8.43-12.3,23.26-4.67,34.53,10.25,15.13,31,15.16,46,7.91,2.39-1.15,1-4.53-1.26-4.66-7.13-.4-12.39-6.93-13.13-13.77-.94-8.78,6.48-13,13.28-16.57,12.13-6.29,24.63-15.1,29.7-28.36,4.7-12.29-.17-23.92-7.7-33.78s-18.74-19.56-19-32.93l-3.16,2.41A95.94,95.94,0,0,1,183.32,138c1.67,2,4.78-.15,4.18-2.43-5.89-22.19-13.09-46.08-32-60.76-8.39-6.51-18.67-11-29.41-11.1-5.09,0-9.91,1.4-14.93,1.94-2.94.31-6.34.36-8.69-1.77-2.82-2.57-3.09-7.27-3.18-10.8-.24-10.1,3-20.17,1.49-30.26C99.2,12.52,91.8,6.9,82.46,3.65,71.55-.15,59-1.81,48.05,2.79a34.23,34.23,0,0,0-18.5,20c-7.84,21.48,9.21,43.87,31.53,44.33l-1.77-4.27a18.23,18.23,0,0,1-14.69,6.4c-3.22-.09-3.22,4.91,0,5a23,23,0,0,0,18.23-7.86,2.53,2.53,0,0,0-1.77-4.27C40.32,61.68,26.2,39.67,35.77,20.93c5-9.77,14.45-15.46,25.35-15.9,9.53-.39,23.8,2.17,30.62,9.5C104.6,28.36,86.8,51,97.62,65.84c5,6.79,13.82,4.86,20.89,3.57,10.38-1.88,20.47.56,29.37,6.1,21.25,13.23,28.75,38.56,34.79,61.36l4.18-2.43a100,100,0,0,0-62-34.39c-1.55-.22-3.21.62-3.17,2.41.22,10.26,5.87,18.5,12.12,26.19,6.85,8.44,15.87,17.37,16.52,28.88.8,14.22-11.4,25.28-22.51,32-9.36,5.7-22.41,9.8-22.46,22.87,0,10.26,7.76,19.84,18.2,20.43l-1.26-4.66c-15.07,7.28-37.16,5.36-42.51-13.22-2.15-7.49-.29-15.09,5.75-20.17,5.49-4.62,12.51-6.95,18.39-11,11.3-7.76,14.15-21.81,5.51-33-4.41-5.69-11.24-9.12-18.23-10.43a42.37,42.37,0,0,0-9.8-.66c-5.09.23-10.6,1.6-15.51-.3-7.3-2.83-8.13-11.69-9.28-18.41s-2.49-13.15-7.06-18.36a2.52,2.52,0,0,0-3-.39A192.66,192.66,0,0,0,.35,150.53L5,151.79A94.72,94.72,0,0,1,41.46,75.9c2.51-1.93,0-6.28-2.52-4.31Z"/>
      <path d="M56.3,43.76c-6.08-3.28.55-9,4.74-9.5a18.64,18.64,0,0,1,11,2.65C79.55,41.15,84,49,86.55,57c.94,2.9,4.6,10.82-.86,10.61-3.4-.12-7.48-3.15-10.07-5.17-6.08-4.75-10.63-11.18-15-17.46-1.82-2.63-6.15-.13-4.31,2.52,7,10,15,21.2,27.33,24.75,4,1.14,9.54,1.06,10.33-4.12.85-5.62-2.67-13.47-4.91-18.5C84.23,38.74,73.86,28.25,61,29.26c-4.51.35-9.23,2.51-11.12,6.85a9.26,9.26,0,0,0,3.86,12c2.83,1.52,5.36-2.79,2.52-4.32Z"/>
      <path d="M47.37,20.46,43,21.77l1.32,4.82L48.59,25a2.58,2.58,0,0,0,1.75-3.08,2.52,2.52,0,0,0-3.08-1.74L43,21.77a2.56,2.56,0,0,0-1.75,3.07,2.53,2.53,0,0,0,3.07,1.75l4.35-1.31a2.5,2.5,0,1,0-1.33-4.82Z"/>
      <path d="M60.55,22.07l8.53-1.61-2.43-4.17L61.6,21.15c-2.32,2.24,1.22,5.77,3.53,3.54l5.05-4.87c1.92-1.85-.11-4.61-2.43-4.18l-8.53,1.61c-3.15.59-1.82,5.41,1.33,4.82Z"/>
    </g>
  </g>
</svg>
