<svg xmlns="http://www.w3.org/2000/svg" viewBox="0 0 210.89 284.62">
  <title>goblin</title>
  <g id="Layer_2" data-name="Layer 2">
    <g id="Layer_1-2" data-name="Layer 1">
      <path d="M11.54,66.66,45.19,271.09c.52,3.17,5.34,1.83,4.82-1.33L16.36,65.33c-.52-3.17-5.34-1.82-4.82,1.33Z"/>
      <path d="M18.12,60.81c16.6,32.8,23,69.24,27,105.45,2,17.93,3.45,35.92,5.36,53.86.92,8.59,1.94,17.17,3.16,25.73q1,6.87,2.15,13.7c.4,2.29,1.52,5.31,1,7.59-1.46,6.84-9.6,3.76-7.33-1.54,1.25-2.93-3.05-5.48-4.32-2.52-2.06,4.81-.69,10.77,4.67,12.69a9.05,9.05,0,0,0,11.74-6.72c.73-3.54-.37-7.35-1-10.83q-1.19-6.83-2.16-13.7c-1.28-9-2.31-18-3.25-27-3.63-34.7-5.69-69.75-13.36-103.89a237.33,237.33,0,0,0-19.4-55.34c-1.46-2.87-5.77-.34-4.32,2.53Z"/>
      <path d="M3.11,68.72c4.83-1.25,10-2.13,14.68-3.84A7.53,7.53,0,0,0,23,59.43c1-4,.38-8.77.45-12.82l.25-14.52C23.8,24.41,24.32,16,20.47,9c-3.11-5.65-9-9.6-15.59-9A2.55,2.55,0,0,0,2.47,3.23a218.78,218.78,0,0,1-.81,65.48C1.15,71.86,6,73.21,6.48,70A226.59,226.59,0,0,0,7.29,1.9L4.88,5.07C20,3.62,18.8,24.34,18.63,34L18.3,53.38c0,1.06.34,3.21-.09,4.15-1,2.22-3.93,3.13-6,3.68L1.78,63.9c-3.12.81-1.8,5.63,1.33,4.82Z"/>
      <path d="M86,108.12C78.1,103.68,72.91,96.31,69.54,88c-3.46-8.5-6.77-18.85-.48-26.77,9.7-12.2,28.76-16.8,42.6-9.29,13,7,20.2,24.69,13.78,38.47-6.09,13-23.35,19.46-36.27,12.94-2.87-1.44-5.4,2.87-2.52,4.32,12,6,26.54,3.26,36.33-5.7,10.42-9.55,12.16-24.71,6.59-37.31A35.66,35.66,0,0,0,96,43.36c-13.32.26-30.62,8.2-34.81,22-2.69,8.82,1.32,19.45,5,27.44,3.75,8.15,9.4,15.24,17.3,19.68,2.81,1.58,5.33-2.74,2.52-4.32Z"/>
      <path d="M58.79,86.48a59.75,59.75,0,0,1-8-29.09L47,59.55A25.36,25.36,0,0,1,57.7,79.47c.13,3.21,5.13,3.23,5,0A30.68,30.68,0,0,0,49.51,55.24c-1.57-1.12-3.79.38-3.76,2.15A65.25,65.25,0,0,0,54.47,89c1.6,2.79,5.92.28,4.32-2.52Z"/>
      <path d="M135.51,82l3.22-13.49c.39-1.64.7-5.86,2.27-6.89,3.17-2.08,2.45,1.78,2.53,3.46.32,6,0,14.91-6.69,17.33-3,1.08-1.71,5.92,1.33,4.82,10.19-3.66,12.78-18.6,9.62-28-1.65-4.9-6.64-5.23-9.93-1.72-2,2.18-2.78,4.92-3.49,7.71-1.3,5.12-2.45,10.28-3.68,15.42-.74,3.13,4.08,4.46,4.82,1.33Z"/>
      <path d="M137.7,95.26a62.71,62.71,0,0,1,3.74-10.21c.73-1.54,1.52-3.06,2.39-4.53,1.17-2,1-1.45,1.74.46,1,2.5,2.87,7.67.12,9.68-1.17.85-4.22.92-4-1,.3-3.2-4.71-3.18-5,0-.42,4.5,4,6.84,8,6.45,6-.59,7.93-6.41,7.07-11.68-.63-3.9-3.65-14.11-9.53-9.86-2.45,1.76-3.82,5.32-5.08,8a70,70,0,0,0-4.24,11.4c-.87,3.1,4,4.43,4.82,1.33Z"/>
      <path d="M90,77.77a3.65,3.65,0,0,1-4.11.71l1.83,2.41A2.66,2.66,0,0,1,91,78.81c3.09.89,4.42-3.93,1.32-4.82a7.69,7.69,0,0,0-9.61,6.9,2.57,2.57,0,0,0,1.84,2.41,8.55,8.55,0,0,0,9-2c2.3-2.26-1.23-5.79-3.53-3.54Z"/>
      <path d="M114.21,75.73q.56-.21.18-.09c.43,0,.51,0,.24,0s-.19,0,.24.05l-.27-.08c.1,0,.54.24.06,0s.45.36-.07-.08c-.32-.28.33.46,0-.09-.26-.37.14.52,0,0-.06-.26-.06-.18,0,.25a2.81,2.81,0,0,1,0-.29c-.07.43-.07.51,0,.24-.17.37-.2.43-.07.19a2.5,2.5,0,1,0-4.32-2.52,5,5,0,0,0,6.58,6.73,2.51,2.51,0,0,0,.89-3.42,2.56,2.56,0,0,0-3.42-.9Z"/>
      <path d="M98,59.19c-.52-10.66,0-22.07-1.71-32.6-1.09-6.6-7.15-9-13.17-7.13-13.68,4.25-17.53,22.44-11.68,34,1.46,2.87,5.77.34,4.32-2.52C71.36,42.26,74,27.59,84.44,24.28a8.67,8.67,0,0,1,3.18-.49c3.37.34,3.58,3,3.94,5.71.38,2.92.29,6,.43,8.91l1,20.78c.15,3.21,5.15,3.22,5,0Z"/>
      <path d="M94.45,113.54l-3.45,5a2.5,2.5,0,0,0,4.32,2.53l3.45-5a2.51,2.51,0,0,0-.9-3.42,2.55,2.55,0,0,0-3.42.89Z"/>
      <path d="M98.46,116.73l1.69,1.69a2.5,2.5,0,0,0,3.53-3.53L102,113.2a2.5,2.5,0,0,0-3.53,3.53Z"/>
      <path d="M108.66,126.09l-25.6-.35,2.41,3.16c1-4.07,5-5.82,8.74-4.29,3,1.2,4.28-3.63,1.33-4.82a11.18,11.18,0,0,0-14.89,7.79,2.53,2.53,0,0,0,2.41,3.16l25.6.35c3.22,0,3.22-5,0-5Z"/>
      <path d="M114.42,124.2a9.12,9.12,0,0,1,5.52.66l-1.75-3.08c-.14.63-.85,1.23-1.39,1a2.57,2.57,0,0,0-3.42.9,2.53,2.53,0,0,0,.9,3.42c3.42,1.64,7.87-.07,8.73-4a2.6,2.6,0,0,0-1.74-3.08,13.78,13.78,0,0,0-8.18-.65c-3.14.65-1.81,5.47,1.33,4.82Z"/>
      <path d="M64.61,149.92c-4.91,0-7-5.9-6.13-10.1,1.1-5.3,6.61-8.48,11.17-10.49,1.82-.8,6.63-3.54,8.37-1.67,1.32,1.43,1,5.46.91,7.24a22.32,22.32,0,0,1-7.48,15.51c-2.39,2.17,1.16,5.7,3.53,3.53a27.1,27.1,0,0,0,8.76-23.34c-.4-3.08-1.16-7.48-4.55-8.72-3.6-1.31-8.82,1.69-12.06,3.14-6.95,3.11-13.92,8.59-13.82,16.9.09,6.58,4.31,12.93,11.3,13,3.22,0,3.22-5,0-5Z"/>
      <path d="M129.73,139.17A4.3,4.3,0,0,1,124,135c.08-2.68,2.75-4.61,5-5.37,4.25-1.45,8.6.19,12.4,2.16,3,1.54,8,3.94,9.62,7.11,2.63,5.26-4.6,8.59-8.27,10.28-2.92,1.35-.38,5.66,2.52,4.32,6.06-2.79,13.72-8.19,10.62-15.92-2.8-7-14-12.32-20.94-13.31-6.37-.9-14.42,2.16-15.76,9.18C117.9,140,124.6,146.69,131.06,144c2.92-1.22,1.64-6.06-1.33-4.82Z"/>
      <path d="M58.93,153.15a298.22,298.22,0,0,1-18.77,57.39c-1.3,2.92,3,5.47,4.31,2.53a305.77,305.77,0,0,0,19.29-58.59c.68-3.13-4.13-4.47-4.83-1.33Z"/>
      <path d="M46,224.7a159.3,159.3,0,0,1,18.47-62.37c1.52-2.83-2.79-5.36-4.32-2.52A165.6,165.6,0,0,0,41,224.7c-.26,3.2,4.74,3.19,5,0Z"/>
      <path d="M69,158.64a48,48,0,0,1,4.81,31.61c-.59,3.15,4.22,4.5,4.82,1.33a53.62,53.62,0,0,0-5.31-35.46c-1.5-2.85-5.82-.32-4.32,2.52Z"/>
      <path d="M127.66,153.84l1.24,19.72c.09,1.56.62,18.1.89,18.15-3.15-.62-4.49,4.2-1.33,4.82,6.63,1.32,6.45-6.76,6.18-11.13l-2-31.56c-.2-3.19-5.21-3.21-5,0Z"/>
      <path d="M83.33,168.15c3.22,0,3.22-5,0-5s-3.22,5,0,5Z"/>
      <path d="M86.71,181.66c3.22,0,3.22-5,0-5s-3.22,5,0,5Z"/>
      <path d="M88.4,198.56c3.22,0,3.22-5,0-5s-3.22,5,0,5Z"/>
      <path d="M118.81,196.87c3.21,0,3.22-5,0-5s-3.22,5,0,5Z"/>
      <path d="M123.88,188.42c3.21,0,3.22-5,0-5s-3.23,5,0,5Z"/>
      <path d="M110.36,193.49c3.22,0,3.22-5,0-5s-3.22,5,0,5Z"/>
      <path d="M95.44,174.83a14.6,14.6,0,0,0,14.38-.44c2.74-1.67.23-6-2.53-4.32a9.45,9.45,0,0,1-9.33.44c-2.86-1.46-5.39,2.85-2.52,4.32Z"/>
      <path d="M96.85,159.7h11.82c3.22,0,3.22-5,0-5H96.85c-3.22,0-3.23,5,0,5Z"/>
      <path d="M84.07,190.08c-6.67,5.18-.22,13.39,6.06,14.59,5.28,1,11,.45,16.37.47l20.23.07c3.21,0,3.22-5,0-5l-22.15-.08c-3.37,0-6.76.09-10.13,0-2.27-.09-12.08-2.39-6.84-6.46,2.54-2-1-5.49-3.54-3.54Z"/>
      <path d="M85.27,209.05a378,378,0,0,0-3.82,64.75c.09,3.21,5.09,3.22,5,0a370.57,370.57,0,0,1,3.65-63.42c.45-3.15-4.37-4.51-4.83-1.33Z"/>
      <path d="M93.53,271.9a141.86,141.86,0,0,0-29.48,6A2.52,2.52,0,0,0,62.31,281c1.09,2.91,3.19,4.15,6.27,3.5s1.82-5.48-1.33-4.82h-.12l-1.75,3.08a135.26,135.26,0,0,1,28.15-5.8c3.17-.3,3.2-5.31,0-5Z"/>
      <path d="M112.13,277.07l-1.69-1.69a2.53,2.53,0,0,0-3.54,0,2.55,2.55,0,0,0,0,3.53l1.69,1.69a2.5,2.5,0,1,0,3.54-3.53Z"/>
      <path d="M91.11,272.82c11.58,1.82,21.36-11.4,15.68-21.88-1.54-2.83-5.86-.31-4.32,2.53,3.44,6.34-2.71,15.68-10,14.52-3.15-.49-4.5,4.32-1.33,4.83Z"/>
      <path d="M102.24,281.21c12.19-2.33,10.24-16.59,7.21-25.19-1.06-3-5.89-1.72-4.82,1.33,2.09,5.92,5.42,17.29-3.72,19-3.16.61-1.82,5.43,1.33,4.83Z"/>
      <path d="M106.26,251.09a35.57,35.57,0,0,1,9.25-31.3c2.22-2.33-1.31-5.87-3.53-3.54a40.87,40.87,0,0,0-10.55,36.17c.61,3.15,5.43,1.82,4.83-1.33Z"/>
      <path d="M111.94,219.82a70,70,0,0,1,20,59.83c-.48,3.14,4.34,4.5,4.82,1.32a75.24,75.24,0,0,0-21.32-64.69c-2.29-2.26-5.83,1.27-3.54,3.54Z"/>
      <path d="M131.9,206.58c9.3,11.77,14.1,26.13,16.55,40.78a196.2,196.2,0,0,1,2.22,21.78q.14,2.81.24,5.61c.1,2.92.14,2.93-2.71,3.36-4.36.67-9.43-.21-13.77-.65l.67,4.91a97.75,97.75,0,0,1,29.32-2.69c3.21.19,3.2-4.81,0-5a102.36,102.36,0,0,0-30.65,2.87c-2.92.72-2,4.64.66,4.91,5.27.54,10.95,1.16,16.25.56,2.69-.31,4.64-1.4,5.21-4.22.8-4-.15-8.85-.41-12.88-.31-4.83-.76-9.65-1.4-14.45C151.75,234,146.5,217,135.43,203c-2-2.52-5.51,1-3.53,3.54Z"/>
      <path d="M138.42,242.76a4.18,4.18,0,0,1-2.88-4.85c.42-2.68,3.18-3.81,5.64-3.56a7.38,7.38,0,0,1,6.07,4.88,11.21,11.21,0,0,1,.75,4.48,8.94,8.94,0,0,1-.34,2.57c-.39,1.16-.85.9.13,1.71-2.46-2-6,1.48-3.54,3.54a4.39,4.39,0,0,0,6.32-.41c2-2,2.44-5.16,2.43-7.88,0-6-3.42-12-9.54-13.54-5-1.25-11.07.88-12.58,6.22-1.37,4.82,1.18,10.43,6.21,11.66,3.13.77,4.46-4.06,1.33-4.82Z"/>
      <path d="M90.93,241.82c-1-2-3.12-7.07-1.16-9.12,1.73-1.8,4,.56,4.57,2.3.82,2.77-.71,5.94-1.8,8.42-1.28,2.92,3,5.47,4.32,2.52,1.85-4.21,3.87-9.14,1.76-13.65-1.59-3.43-5.34-6.08-9.23-5-7.56,2.1-5.28,12-2.77,17.06,1.42,2.88,5.74.35,4.31-2.53Z"/>
      <path d="M91.78,215.45c3.22,0,3.22-5,0-5s-3.22,5,0,5Z"/>
      <path d="M96.85,213.76c3.21,0,3.22-5,0-5s-3.23,5,0,5Z"/>
      <path d="M123.88,213.76c3.21,0,3.22-5,0-5s-3.23,5,0,5Z"/>
      <path d="M130.63,220.52c3.22,0,3.23-5,0-5s-3.22,5,0,5Z"/>
      <path d="M149.23,225.25c-19.54-.95-17.78-28.55-15.56-41.86,1.57-9.43,6.94-13.86,15.83-16.47,8.53-2.49,18.26-5.45,27.07-2.73,7.67,2.36,12.86,9.06,17.05,15.5,4.46,6.85,8.84,14.14,11,22.07,4.35,15.73-4.14,30.7-18.83,37.06-17.31,7.48-36.75-.65-49.27-13.26-2.27-2.29-5.81,1.25-3.54,3.54,13.16,13.25,33.31,21.85,51.84,15.45,16.37-5.66,28.34-21.5,25.67-39.16-1.58-10.5-7.24-20.12-13-28.85-4.86-7.36-10.89-14.5-19.63-17.17-10.1-3.09-21.49.13-31.22,3.18-8.88,2.79-15.25,7.92-17.4,17.27-3.91,17-4.17,49.26,19.95,50.43,3.22.15,3.21-4.85,0-5Z"/>
      <path d="M134.53,155.8l3.37,1.71a2.5,2.5,0,0,0,2.52-4.32l-3.36-1.71a2.5,2.5,0,0,0-2.53,4.32Z"/>
      <path d="M140.71,144.7l8.23,13.64c1.66,2.76,6,.25,4.32-2.52L145,142.18c-1.66-2.76-6-.24-4.32,2.52Z"/>
      <path d="M167.09,211.33c-5.1-2.09-3.39-10.26,2.31-9.69,2.44.25,4.66,1.9,4.65,4.51s-2,5.24-4.59,5.52c-3.16.35-3.2,5.35,0,5a10.72,10.72,0,0,0,9.56-9.91c.37-5.33-3.82-9.47-9-10s-9.78,2.37-10.79,7.44a10.67,10.67,0,0,0,6.48,12c3,1.22,4.28-3.61,1.33-4.82Z"/>
      <path d="M136.59,182.54a244.42,244.42,0,0,0,4.69,39.62c.64,3.15,5.46,1.81,4.82-1.33a237,237,0,0,1-4.51-38.29c-.11-3.21-5.11-3.22-5,0Z"/>
      <path d="M146.29,173.18,152.13,200c.69,3.15,5.51,1.82,4.82-1.33l-5.84-26.86c-.69-3.14-5.51-1.81-4.82,1.33Z"/>
      <path d="M158.59,173.08,162,186.6c.78,3.12,5.6,1.8,4.82-1.33l-3.37-13.52c-.77-3.12-5.6-1.8-4.82,1.33Z"/>
      <path d="M153.56,228.82l1.69,5.07a2.56,2.56,0,0,0,3.08,1.74,2.52,2.52,0,0,0,1.74-3.07l-1.69-5.07a2.5,2.5,0,1,0-4.82,1.33Z"/>
      <path d="M163.61,229.84v3.38a2.5,2.5,0,1,0,5,0v-3.38a2.5,2.5,0,0,0-5,0Z"/>
      <path d="M173.74,169a50.14,50.14,0,0,0,5.35,19.88c1.44,2.87,5.76.34,4.31-2.53A43.94,43.94,0,0,1,178.74,169c-.19-3.2-5.19-3.22-5,0Z"/>
      <path d="M187.43,213.6l3.62,21.92c.52,3.17,5.34,1.83,4.82-1.33l-3.62-21.92c-.52-3.16-5.34-1.82-4.82,1.33Z"/>
      <path d="M196.52,205.31c3.22,0,3.22-5,0-5s-3.22,5,0,5Z"/>
      <path d="M194.44,197.69l2.34,18.72c.4,3.15,5.4,3.19,5,0l-2.34-18.72c-.4-3.15-5.4-3.19-5,0Z"/>
      <path d="M175.35,223.78l1.75,10.13c.54,3.16,5.36,1.82,4.82-1.33l-1.75-10.13c-.54-3.16-5.36-1.82-4.82,1.33Z"/>
    </g>
  </g>
</svg>
