<svg xmlns="http://www.w3.org/2000/svg" viewBox="0 0 208.84 206.34">
  <title>goomba</title>
  <g id="Layer_2" data-name="Layer 2">
    <g id="Layer_1-2" data-name="Layer 1">
      <path d="M105.34,129.67c-18.55-3.18-35.93,3.52-54.19,5.33-16.71,1.66-34.66-1.83-42.43-18.45-7.49-16-2.63-34,5.74-48.56A160.94,160.94,0,0,1,47.12,28c13.6-12,30.21-20.89,48.45-22.73,18.39-1.87,35.1,4.85,49.07,16.52,13,10.86,24.35,24.27,34.62,37.67,10.6,13.83,19.9,29.28,23.5,46.53,1.64,7.9,1.91,17.27-2.41,24.42-5.59,9.24-17.14,9.6-26.79,9.89A202.9,202.9,0,0,1,109,131.67c-3.09-.93-4.41,3.9-1.33,4.82a207.41,207.41,0,0,0,64,8.89c8.51-.17,18.13-.21,25.6-4.87,6.15-3.83,9.67-10.4,10.89-17.4,3-17.15-4.81-35.29-13.38-49.72C185.07,57,172.24,42,159,28.41,146.17,15.26,130.86,3.57,112.25.75S74.41,3.32,58.56,13.24c-16.07,10.07-29,24.35-40.11,39.57C7.73,67.53-1.68,85.07.25,103.87S14.87,137,33.88,139.8c23.73,3.46,46.49-9.36,70.13-5.31,3.15.54,4.5-4.28,1.33-4.82Z"/>
      <path d="M52,191c-6.21.79-8.55-7.26-6-11.87,3-5.6,10.11-7.86,15.79-9.62,7-2.15,14-4,21.15-5.58,7-1.55,13.38-1.78,17.74,4.66,7.26,10.73.1,22.81-10.38,27.71-13.36,6.24-28.48,1.84-41.84-2-3.1-.89-4.43,3.93-1.33,4.82,14.22,4.08,29.8,8.24,44.1,2.2,10.52-4.45,19-14.35,17.13-26.31-1.74-11.3-10.88-18.62-22.24-16.81a187.55,187.55,0,0,0-25.66,6.49c-5.64,1.74-11.53,3.86-15.81,8.1s-5.83,9.68-3.87,15.27c1.71,4.84,5.93,8.62,11.27,7.94,3.15-.4,3.19-5.4,0-5Z"/>
      <path d="M145,201.31c-8,1.13-14.93-5-20.37-10-2.57-2.37-5.47-5.21-5.28-9,.19-3.56,2.79-7.12,5.2-9.55,10.51-10.62,26.69-9.48,39.73-5,5.88,2,15,4.66,16.32,11.73,1.23,6.5-3.37,12.46-8.87,15.29-6.46,3.33-14.2,3.64-21.31,3.72a119.51,119.51,0,0,1-23-2c-3.14-.58-4.49,4.24-1.33,4.82,14.45,2.66,32.61,4.77,46.48-1.38,9.84-4.37,17.94-17.22,10.42-27.22-4-5.28-11.35-7.69-17.34-9.75-7.59-2.61-15.76-4.15-23.79-3.26-11.43,1.27-26,9.07-27.36,21.87-.78,7.5,5.64,12.76,10.88,17,6.18,5,12.81,8.78,21,7.62,3.17-.45,1.82-5.27-1.33-4.82Z"/>
      <path d="M72.49,134.69a20.83,20.83,0,0,0,1.32,27.8c2.27,2.28,5.81-1.25,3.53-3.54A15.73,15.73,0,0,1,76,138.22c2-2.49-1.52-6.05-3.53-3.53Z"/>
      <path d="M140,144.42a10.52,10.52,0,0,1-3,14.79c-2.74,1.69-.23,6,2.52,4.31a15.53,15.53,0,0,0,4.77-21.63c-1.8-2.64-6.13-.14-4.31,2.53Z"/>
      <path d="M65.39,82.51C47.05,74.22,56,32.3,77.33,44.08,97.47,55.23,90.9,96,64.45,88.57c-3.11-.87-4.43,4-1.33,4.82,14.61,4.09,28-5.78,30.71-20.25,2.37-12.84-2.89-28.07-15.21-34C51.39,26,39.61,76.32,62.87,86.83c2.91,1.31,5.45-3,2.52-4.32Z"/>
      <path d="M136.88,86.78c-5.82.25-7.54-8.11-8.88-12.38-1.75-5.53-3.9-11.1-5-16.8-1.18-6,.15-12.57,7.06-13.66,5.65-.89,10.55,2.18,14.09,6.36,6,7.09,14.08,21.62,8.47,30.75-5.87,9.54-20.08,4.81-28,1-2.89-1.37-5.43,2.93-2.52,4.32,8.83,4.19,20.84,8.06,29.87,2.27,10.25-6.57,7.88-19.86,3.54-29.26-4.47-9.69-11.89-20.86-23.86-20.65-12.14.21-15.57,11.42-13.13,21.64a144,144,0,0,0,6.94,22c2.08,5,5.59,9.65,11.45,9.4,3.2-.13,3.22-5.13,0-5Z"/>
      <path d="M78.61,30.45C67.88,24,60.13,11.83,46.73,10.65,33,9.44,21.2,19.56,11.81,28.3,9.45,30.5,13,34,15.35,31.84c8.78-8.18,20.73-18.92,33.81-15.75C59.91,18.7,66.88,29.24,76.09,34.77c2.76,1.66,5.28-2.66,2.52-4.32Z"/>
      <path d="M123.86,31.12c3.55-9,8.06-19.82,18.49-22.38C153,6.14,164,11.68,173.16,16.45c2.85,1.48,5.39-2.83,2.53-4.32-10.75-5.6-23.9-11.86-36.21-7.75C128.1,8.18,123.11,19.45,119,29.79c-1.18,3,3.66,4.3,4.82,1.33Z"/>
      <path d="M61.24,69.31c1.15-4,3.32-11.54,9-10,2.29.63,2.67,2.76.82,4.21a7.58,7.58,0,0,1-6.12,1.12c-3.14-.7-4.48,4.12-1.33,4.82,4,.89,8.61.09,11.56-2.92a7.09,7.09,0,0,0-.07-10.15c-2.8-2.65-7.52-2.83-10.82-1.1-4.68,2.46-6.49,8-7.85,12.68-.9,3.1,3.93,4.42,4.82,1.33Z"/>
      <path d="M131.13,65.53A5.14,5.14,0,0,1,129.76,59c.9-1.5,3.6-3.18,5.25-2.18,3.81,2.32,2.84,8.83.71,11.75-1.89,2.61,2.45,5.11,4.32,2.53,4.25-5.85,3-20.1-6.53-19.5-9.8.62-12.15,12.71-4.9,18.24,2.55,2,5-2.39,2.52-4.32Z"/>
      <path d="M45.59,124.1a155.42,155.42,0,0,1,58.91-19c16.77-1.85,46.17-4.06,51.89,17,.84,3.1,5.66,1.78,4.82-1.33-6-22-33-22.55-51.43-21.18a161,161,0,0,0-66.71,20.22c-2.81,1.58-.29,5.9,2.52,4.32Z"/>
      <path d="M45,111.76c-1.54-1.5-1.52-4.66.55-5.76s4.65.58,5.13,2.68c.71,3.13,5.53,1.81,4.82-1.33-1.19-5.23-7.72-8.41-12.48-5.67s-5.42,9.84-1.56,13.61c2.31,2.25,5.85-1.28,3.54-3.53Z"/>
      <path d="M158.41,113.35l15.24-9.46-3.42-.9a14.59,14.59,0,0,1-1.52,15.5c-1.91,2.6,2.43,5.09,4.32,2.53a19.56,19.56,0,0,0,1.52-20.55,2.52,2.52,0,0,0-3.42-.9L155.88,109c-2.73,1.7-.22,6,2.53,4.32Z"/>
      <path d="M102.37,174.73l10.13,1.72c3.15.53,4.5-4.29,1.33-4.83l-10.13-1.71c-3.15-.54-4.5,4.28-1.33,4.82Z"/>
    </g>
  </g>
</svg>
