<svg xmlns="http://www.w3.org/2000/svg" viewBox="0 0 79.75 83.74">
  <title>helm</title>
  <g id="Layer_2" data-name="Layer 2">
    <g id="Layer_1-2" data-name="Layer 1">
      <path d="M11.39,77.7a171.07,171.07,0,0,1-6.3-40.89c-.16-5.44-.68-11.8,1.13-17,2.21-6.39,8.4-9.39,14.41-11.36C31.39,4.87,44.56,2.63,54.72,9c9.72,6.13,14,18,16.65,28.59A111.45,111.45,0,0,1,74.28,55.5c.25,3.13.36,6.26.35,9.39,0,2.72.69,4.77-2.82,6-1.42.47-4-.14-5.45-.19-2.24-.07-8.71.58-10.23-1.36-1.71-2.17-1.19-7.35-1.38-9.86-.26-3.29-1.57-8.45.45-11.36,1-1.5,2.92-2.31,3.83-4a8.07,8.07,0,0,0-1.25-9c-3.11-3.73-8-4.07-12.5-3.36a86.26,86.26,0,0,0-14.76,3.73c-3.72,1.3-9.68,3.13-11.4,7.08-1.81,4.12,2.14,7.19,5.52,8.59a16.35,16.35,0,0,0,7.15,1.23c3.21-.16,4.89-2.11,6.35,1.48a22.41,22.41,0,0,1,1.27,10.54c-.8,5.06-6.21,5.7-10.23,7L7.4,78.78c-3,1-1.73,5.85,1.33,4.82l21.78-7.34c4.36-1.47,11.59-2.43,13.35-7.52,1.67-4.8.42-11.45-.9-16.22-1.43-5.18-3.68-6.67-8.89-5.58-1.82.38-10.78,1.15-9.15-3.46.73-2,8.08-3.6,10.11-4.2,3.22-.94,6.53-1.77,9.83-2.4,2.36-.44,5.68-1.09,7.89.37,3,2,1.66,4.21-.18,6.45-4.13,5-3.31,9.35-2.82,15.73.34,4.46-.18,11.13,3.72,14.28s11.69,2,16.52,2.07c5.55.13,9.16-1,9.57-7.13a106,106,0,0,0-5.64-40.2C70.43,18.27,64.61,8.08,54.54,3.24,43.56-2,30.46-.08,19.3,3.59,14,5.33,8.65,7.7,5,12,.84,16.81.17,23.05,0,29.14A172.66,172.66,0,0,0,6.57,79c.86,3.1,5.68,1.79,4.82-1.32Z"/>
    </g>
  </g>
</svg>
