<svg xmlns="http://www.w3.org/2000/svg" viewBox="0 0 73.75 83.83">
  <title>leg armor</title>
  <g id="Layer_2" data-name="Layer 2">
    <g id="Layer_1-2" data-name="Layer 1">
      <path d="M7.89,8.62q-1,19.89-.4,39.82c.11,3.21,5.11,3.22,5,0q-.64-19.92.4-39.82c.17-3.22-4.83-3.21-5,0Z"/>
      <path d="M14,42.11c1.19-3.55,6-3.21,8.32-1.14s4.1,7.21,3.6,10.38c-1.25,8-18.3-.09-21.65-2.71v3.53a23,23,0,0,1,8.35-4.28c3.09-.88,1.78-5.71-1.32-4.82A29.29,29.29,0,0,0,.73,48.64a2.5,2.5,0,0,0,0,3.53C6.89,57,14.3,59.8,22.21,59.27c7.17-.47,9.39-4.51,8.42-11.35-.82-5.72-3.8-11.89-9.92-13.26-5-1.11-9.91,1.3-11.54,6.12-1,3.06,3.8,4.37,4.83,1.33Z"/>
      <path d="M52.71,51.81c-4.91.46-4.24-5.76-1.82-8.05,2.24-2.12,5.63-3,8.58-3.59,3.86-.7,9.33-.18,9.15,5-.15,4.65-5.08,6.4-9,5.62-3.15-.63-4.49,4.19-1.33,4.82C64.77,56.92,72,54.07,73.42,47c1.51-7.6-4.86-12.65-12-12.15-6.33.44-14.86,3.13-17.1,9.83-1.84,5.52,2.06,12.68,8.35,12.09,3.17-.3,3.2-5.31,0-5Z"/>
      <path d="M28.52,25,29,48.42c.17,7.79,1.48,16.53.38,24.23-.62,4.31-3.64,5.61-7.62,5.87-3.11.21-7.07.35-8.47-2.78-1.48-3.32-1.49-8.66-1.76-12.18a107.83,107.83,0,0,1-.2-12.06c.11-3.21-4.89-3.21-5,0A106.87,106.87,0,0,0,7,68.18c.45,3.61.49,9.53,2.85,12.56,3.38,4.36,14.18,3.44,18.6,1.3,7.93-3.83,6-13.68,5.83-20.92L33.52,25c-.07-3.21-5.07-3.22-5,0Z"/>
      <path d="M36.76,26.54l2.36,1.3.39,2.06c.14,1.07.14,2.18.22,3.26.18,2.51.38,5,.64,7.52q.71,6.91,1.79,13.76Q43.35,61.9,45,69.27c.7,3,1.38,6.47,4.2,8.31s6.48.94,9.55.35c3.72-.7,8.33-1.34,11.53-3.53,2.42-1.65,3.14-3.94,3.31-6.78.31-5.34,0-10.78,0-16.12,0-3.22-5-3.23-5,0,0,5.13.2,10.3,0,15.43s-7.88,5.64-12.06,6.35c-3.8.65-5.26.08-6.3-3.51-.51-1.8-.84-3.69-1.22-5.52q-1.56-7.39-2.62-14.87c-.76-5.38-1.31-10.79-1.69-16.22-.2-2.78-.1-6-1.55-8.49-2.35-4-8.21-5-10.74-.66-1.62,2.79,2.7,5.31,4.32,2.53Z"/>
      <path d="M67,34.1,64.57,9.39C64.13,5,63.94-.59,58.06.05c-3.57.39-6.92,2.09-10.56,2.5a70.19,70.19,0,0,1-12.72,0C26.83,2,18.89,1.11,11,.38c-3.2-.3-3.18,4.7,0,5C23.49,6.54,36.73,9,49.29,7.33c2.14-.29,5.65-2,7.64-1.82l1.21-.39a4.83,4.83,0,0,1,1.34,3.32A39.38,39.38,0,0,1,60,13.19L62,34.1c.32,3.18,5.32,3.21,5,0Z"/>
      <path d="M15,11.14c3.22,0,3.23-5,0-5s-3.22,5,0,5Z"/>
      <path d="M16,18.29c3.22,0,3.23-5,0-5s-3.22,5,0,5Z"/>
      <path d="M19.08,26.45c3.21,0,3.22-5,0-5s-3.23,5,0,5Z"/>
      <path d="M21.12,15.23c3.21,0,3.22-5,0-5s-3.23,5,0,5Z"/>
      <path d="M22.14,21.35c3.21,0,3.22-5,0-5s-3.23,5,0,5Z"/>
      <path d="M51.73,12.16c3.22,0,3.22-5,0-5s-3.22,5,0,5Z"/>
      <path d="M51.73,17.27c3.22,0,3.22-5,0-5s-3.22,5,0,5Z"/>
      <path d="M54.79,25.43c3.22,0,3.22-5,0-5s-3.22,5,0,5Z"/>
      <path d="M57.85,16.25c3.22,0,3.22-5,0-5s-3.22,5,0,5Z"/>
      <path d="M45.61,13.18c3.21,0,3.22-5,0-5s-3.23,5,0,5Z"/>
      <path d="M54.79,72.37c3.22,0,3.22-5,0-5s-3.22,5,0,5Z"/>
      <path d="M59.89,69.31c3.22,0,3.22-5,0-5s-3.22,5,0,5Z"/>
      <path d="M53.77,66.25c3.22,0,3.22-5,0-5s-3.22,5,0,5Z"/>
      <path d="M19.08,77.47c3.21,0,3.22-5,0-5s-3.23,5,0,5Z"/>
      <path d="M24.18,76.45c3.22,0,3.22-5,0-5s-3.22,5,0,5Z"/>
      <path d="M19.08,66.25c3.21,0,3.22-5,0-5s-3.23,5,0,5Z"/>
    </g>
  </g>
</svg>
