<svg xmlns="http://www.w3.org/2000/svg" viewBox="0 0 113.5 75.43">
  <title>log</title>
  <g id="Layer_2" data-name="Layer 2">
    <g id="Layer_1-2" data-name="Layer 1">
      <path d="M27.27,58.94c-7.84,1.87-13.4-7.55-11.35-14.37C17,41,20.43,38.06,24.34,39.33c4.36,1.42,3.64,8-1.19,7.46-3.19-.37-3.17,4.63,0,5C29.27,52.49,34,45.6,31.9,40c-2.27-6.07-10.4-7.28-15.47-4.14C3,44.12,13.73,67.31,28.6,63.76c3.13-.75,1.81-5.57-1.33-4.82Z"/>
      <path d="M13.1,66C1.37,55.35,2.46,35.69,15.61,26.7c7.17-4.9,16-7,24.14-9.56l29-9c9-2.8,17.86-5,26.69-.29a24.28,24.28,0,0,1,13,20c1.08,20.23-19.06,27.71-35.11,32.59-9.86,3-20,5.16-30,7.29-11.12,2.36-22.52,4.52-33.49.35-3-1.14-4.31,3.69-1.33,4.82,10.61,4,21.82,2.58,32.67.38A352.07,352.07,0,0,0,75.53,65c17.88-5.53,38.54-14.43,38-36.43C113,10.7,96.21-2.36,78.83.36,66.45,2.29,54.11,7.45,42.16,11.16c-10,3.1-21,5.53-29.71,11.68C-2.82,33.65-4.35,56.89,9.57,69.55c2.37,2.17,5.92-1.36,3.53-3.53Z"/>
      <path d="M23.22,27.84C32.79,26,41.9,34,43.18,43.32,44.57,53.41,38.1,62.78,30,68.06c-2.68,1.75-.18,6.08,2.53,4.32,10.44-6.78,18.36-19.3,15.2-32.12C44.89,28.89,33.49,20.8,21.89,23c-3.16.6-1.82,5.42,1.33,4.82Z"/>
      <path d="M56.07,30.83A188.15,188.15,0,0,0,89.62,18.14c2.89-1.42.36-5.74-2.53-4.32A181.27,181.27,0,0,1,54.74,26c-3.1.85-1.79,5.67,1.33,4.82Z"/>
      <path d="M55.11,54.77c4.12-1,6.19-4,8.68-7.13,3.49-4.39,7.63-6,13.06-6.87C85,39.46,94.35,39.69,100,32.62c2-2.48-1.52-6-3.53-3.53-5.48,6.84-15.55,5.63-23.33,7.3a22.24,22.24,0,0,0-9.57,4.2c-3.39,2.76-5.32,8.29-9.79,9.36-3.12.76-1.8,5.58,1.33,4.82Z"/>
    </g>
  </g>
</svg>
