<svg xmlns="http://www.w3.org/2000/svg" viewBox="0 0 99.32 115.16">
  <title>mace</title>
  <g id="Layer_2" data-name="Layer 2">
    <g id="Layer_1-2" data-name="Layer 1">
      <path d="M5.58,17C4.05,20.86,2.48,24.73,1,28.63.12,30.89-.68,32.69.91,34.77c1.83,2.38,5.31,3.5,7.48,5.65,3.19,3.18,5,6.82,4.64,11.37a2.52,2.52,0,0,0,3.16,2.41,9.31,9.31,0,0,0,4.66-2.7c1.52-1.56,2.66-4.85,4.54-5.87,3.19-1.73,4.52,1.81,6.61,3.18a5.91,5.91,0,0,0,5.38.76c3.07-.93,1.76-5.76-1.33-4.82-1.86.56-4.06-3.47-5.55-4.29a6.49,6.49,0,0,0-5.12-.55c-4.91,1.54-5.86,8.29-10.52,9.47L18,51.79c.53-6.32-2.58-11.86-7.24-15.95a33,33,0,0,0-2.94-2.29C5.57,32,4.94,32.66,5.81,30,7.07,26,8.88,22.16,10.4,18.31c1.18-3-3.65-4.3-4.82-1.33Z"/>
      <path d="M9.44,12.75c-3.75,4.87-.42,12.9,5.8,13.52.58.06,1.14-.08,1.71-.07a3.6,3.6,0,0,1,3.27.17c1.38-.12,2,.44,1.92,1.7.76,1.34.75,2.9,1.78,4.22,2,2.51,12.95,5.48,11.47,9.17-1.19,3,3.64,4.29,4.82,1.33,3.88-9.7-10.68-9.4-13.11-15.44C26,24.49,26,21.69,22.48,20.71c-1.89-.54-3.37.21-5.24.36-3.38.27-5.77-2.82-3.49-5.79,2-2.55-2.38-5-4.31-2.53Z"/>
      <path d="M18,11.15c3.6-1.86,5.51-1.57,8.07,1.62,1.24,1.53,1.92,2.75,3.85,3.57a8.23,8.23,0,0,0,9.3-2.08H35.65c3.05,3.34,1,9.25,2,13.33a8.39,8.39,0,0,0,2.51,4.27c.47.4,1.31.63,1.65,1,2.8,3.44,1.48,4.41-.78,6.29-2.48,2,1.08,5.57,3.54,3.53,5.29-4.39,6.89-10.29.32-14-3.74-2.1-2.51-6.35-2.74-10.06-.19-3.07-.88-5.68-3-8a2.54,2.54,0,0,0-3.54,0c-3.54,3.76-5-1.27-6.78-3.46a7,7,0,0,0-3.31-2.43c-3.39-1.15-7.13.46-10.11,2s-.33,5.79,2.52,4.32Z"/>
      <path d="M21.54,5,40,5.73c2.82.12,5.95-.16,8.73.35,1.48.28,2.36-.35,2.89,1.51.24.85-.23,2.9-.16,3.76.38,4.86,3.3,9.27,2.82,14.24a15.66,15.66,0,0,1-9.49,12.83c-2.94,1.21-1.65,6,1.33,4.82A20.71,20.71,0,0,0,57.93,31.42c2.69-7-.07-12.16-1.31-19-.53-2.92,1.12-6.36-.68-9-1.26-1.83-3.27-2.08-5.31-2.28C41,.23,31.18.39,21.54,0c-3.22-.13-3.21,4.87,0,5Z"/>
      <path d="M38.21,46.94c8.13,6.15,10.55,17,16.76,24.75,3.56,4.44,8.52,7.45,12,12,3.73,4.88,5.94,10.68,8.1,16.38,1.13,3,6,1.69,4.82-1.33C77.71,93,75.54,87.2,72,82.16S63.4,73.85,59.42,69.25c-7.27-8.38-9.53-19.7-18.69-26.63-2.57-1.94-5.06,2.4-2.52,4.32Z"/>
      <path d="M45.53,38.54a32.58,32.58,0,0,0,13,17.51c3.58,2.37,7.85,3.87,10.89,7,3.48,3.56,4.66,8.75,6.31,13.28A60.35,60.35,0,0,0,88.28,96.88c1.37,1.47,3.5,2.81,4.63,4.45a6.48,6.48,0,0,1,.9,4.56c-.39,2.32-1,2.51-3.26,2.33-2.64-.21-2.46-.52-3.81-2.45l-2.1-3L79.9,96c-1.83-2.62-6.17-.12-4.32,2.53,3.28,4.7,6.31,10.83,10.56,14.73a6.48,6.48,0,0,0,9,.22,14.43,14.43,0,0,0,4.13-10.35c-.31-4.72-5.74-7.72-8.59-11a53.72,53.72,0,0,1-9.89-16.41c-1.89-5-3.16-10.28-6.46-14.57-3.14-4.07-7.74-6-12-8.61a27.37,27.37,0,0,1-12-15.32c-1-3.05-5.81-1.74-4.82,1.33Z"/>
    </g>
  </g>
</svg>
