<svg xmlns="http://www.w3.org/2000/svg" viewBox="0 0 111.16 81.13">
  <title>meat</title>
  <g id="Layer_2" data-name="Layer 2">
    <g id="Layer_1-2" data-name="Layer 1">
      <path d="M35.34,75.56a59.57,59.57,0,0,1-13.78-3c-4.73-1.64-11-4-13.75-8.41C5.6,60.55,5.34,55.48,5.07,51.32c-.31-4.83.21-9.87,3.64-13.58,5.12-5.55,13.6-6.82,20.55-8.66A97.58,97.58,0,0,0,53.12,19.8a67,67,0,0,0,9.56-6.74c4.1-3.43,8.07-7.47,13.69-8,8.87-.9,17.81,5.19,23,11.88a32.38,32.38,0,0,1-4.16,44c-7.86,7-18.47,8.5-28.45,10.41L49.67,74.58c-6.08,1.16-12,2.39-18,.27-3-1.07-4.35,3.76-1.33,4.82,10.91,3.85,24.08-.91,35-3s22.3-3.46,31.23-10.36C111.33,54.86,115.7,33.76,106,17.63a37.19,37.19,0,0,0-21-16.58,22,22,0,0,0-14.2.26c-5,2-8.72,6-12.84,9.25C48.31,18.21,36.62,22,24.91,25,17,27.06,7.85,29.48,3.12,36.8c-2.95,4.55-3.41,10-3,15.31C.55,57.12.92,63,3.71,67.33s8,6.6,12.46,8.5a64.78,64.78,0,0,0,19.17,4.73c3.2.32,3.18-4.69,0-5Z"/>
      <path d="M27.16,49.87c-4.35-.53-6.48-5.28-5.44-9.18,1-3.61,4-6.36,7.14-8C35.33,29.21,43.4,29,50.51,28.08c6-.8,12-1.76,17.66-4a39.72,39.72,0,0,0,7.5-3.94c4-2.66,7.71-6.66,11.74-1.18,5,6.81,6.53,15.47.56,22.09-4.88,5.42-12.22,7.49-19,9.4s-13.65,4.07-20.56,5.59C40,57.9,32.58,56.12,24.8,52.84c-3-1.25-4.25,3.59-1.33,4.82,7.35,3.1,14.74,5,22.74,3.87s16.18-4,24.08-6.25C82.41,51.87,98.62,45,97,29.55c-.58-5.51-4.1-14.21-8.93-17.32-5.88-3.78-11.43,1.49-16.24,4.48C58.21,25.16,41.15,21.11,27.13,28c-5.87,2.86-10.95,8.58-10.69,15.45A11.94,11.94,0,0,0,27.16,54.87c3.19.38,3.16-4.62,0-5Z"/>
      <path d="M33.38,44.84c-2.07-1.82-1-4.73,1.17-6A10.66,10.66,0,0,1,41.48,38c2.16.39,4.66,1.58,3.11,4.09s-5.52,2.39-8.14,2.43c-3.21,0-3.22,5,0,5,5.06-.08,11-.87,13.1-6.22,1.89-4.76-1.39-8.78-5.95-10s-10.39-.65-13.81,2.89c-3.18,3.3-3.49,9,.06,12.1,2.41,2.11,6-1.41,3.53-3.54Z"/>
    </g>
  </g>
</svg>
