<svg xmlns="http://www.w3.org/2000/svg" viewBox="0 0 122.54 229.8">
  <title>p_armor</title>
  <g id="Layer_2" data-name="Layer 2">
    <g id="Layer_1-2" data-name="Layer 1">
      <path d="M77.84,170.31a538.11,538.11,0,0,1,21.2,54c1,3,5.84,1.74,4.82-1.33a548.17,548.17,0,0,0-21.7-55.15c-1.33-2.92-5.65-.39-4.32,2.52Z"/>
      <path d="M42.62,227.39C43.37,207.51,49,188.47,56.13,170c1.17-3-3.67-4.3-4.82-1.33C44,187.56,38.39,207.07,37.62,227.39c-.12,3.22,4.88,3.21,5,0Z"/>
      <path d="M29,91.49.81,116.31c-2.42,2.14,1.13,5.66,3.53,3.54L32.53,95c2.41-2.13-1.13-5.66-3.54-3.54Z"/>
      <path d="M95.39,91.22q11.53,5.72,23.32,10.93c2.92,1.28,5.47-3,2.53-4.32q-11.79-5.2-23.33-10.93c-2.87-1.43-5.41,2.89-2.52,4.32Z"/>
      <path d="M55,61.84a88.33,88.33,0,0,1-24.86-8c-4-2-8-4.43-9.5-9-1.26-3.67-1-7.73-.59-11.52.68-6.74,1.52-15.14,6.24-20.41C31.69,7,41.9,6.05,49.44,5.27c8.89-.91,16.72.89,21.86,8.71a29.33,29.33,0,0,1,4.58,17.11C75.48,43.66,68,56.14,56.09,60.88c-3,1.18-1.66,6,1.33,4.83C79.5,56.91,89.57,24.91,72,6.89,66.92,1.63,60-.22,52.83,0,45.39.27,36.87,1.47,30,4.45,17.16,10,14.28,27,14.78,39.62,15.54,58.3,38.55,64,53.7,66.67c3.15.54,4.5-4.27,1.33-4.83Z"/>
      <path d="M41.73,35.48c-1.69-.68-2.86-3.63-1.56-5.13,1-1.2,3.72-.67,4.25.84.6,1.68-2.21,3.17-3.36,1.87a2.5,2.5,0,0,1-.13-2.62c.21-.34,1.15-.8,1.23-1.09s-.5-.68-.22-.77c-3.06,1-1.75,5.81,1.32,4.82a4.86,4.86,0,0,0,3.15-6.6,4.79,4.79,0,0,0-7-1.72,7.91,7.91,0,0,0-3.8,6.56A6.82,6.82,0,0,0,39.45,38c4.9,2.28,11.24-2.37,9.88-7.8-1.25-5-8.26-7.15-12.16-3.83-4.88,4.16-2.09,11.87,3.23,14,3,1.19,4.29-3.65,1.33-4.82Z"/>
      <path d="M41,30.53a54.07,54.07,0,0,0-21.56,7.14c-2.77,1.64-.26,6,2.52,4.32a48,48,0,0,1,19-6.46c3.16-.36,3.2-5.37,0-5Z"/>
      <path d="M66.34,29.07a7.18,7.18,0,0,1-5.78-2.74l.64,2.43c.58-1.66,2.5-4.05,4.55-3.29,1.54.58,2.24,2.7.4,3.33-3.32,1.14-6.48-3.28-5.54-6.24s4.88-2.25,6.41-.28c2.65,3.44-5.64,5.31-4.74.23L61.13,24a2.57,2.57,0,0,1,3.3.88c2.08,2.46,5.6-1.09,3.54-3.54-2.32-2.75-9.68-4.42-10.62.45a7.86,7.86,0,0,0,7.14,9c4.17.2,8.35-3.26,8.06-7.6-.24-3.66-3.48-6.5-6.9-7.3a8.07,8.07,0,0,0-9.22,3.77c-1.88,3.45-.86,7.81,1.55,10.72,2.69,3.27,7.55,4.72,11.35,2.43s3.73-7.21.93-10.18c-3.69-3.91-9.57-2.27-12.41,1.78a7.26,7.26,0,0,0-1.56,3.67c0,1.36,1.29,2.48,2.25,3.28a12,12,0,0,0,7.8,2.69c3.21,0,3.22-5,0-5Z"/>
      <path d="M68,25.5h8.45c3.21,0,3.22-5,0-5H68c-3.22,0-3.22,5,0,5Z"/>
      <path d="M43.53,36.46c-5-1.09-5.28-8.53.27-8.89,5.1-.33,6.34,6.92,1.74,8.64-3,1.12-1.69,6,1.33,4.82a10,10,0,0,0,6.45-10.65,9.06,9.06,0,0,0-9.52-7.81c-4.71.17-8.89,3.52-9.18,8.39A10.07,10.07,0,0,0,42.2,41.28c3.13.68,4.47-4.14,1.33-4.82Z"/>
      <path d="M39.07,167.21a91.73,91.73,0,0,0,45.85,4.46c4.93-.8,9.25-2.33,10-7.82,1-6.84-.61-14.83-1.71-21.61a138.86,138.86,0,0,0-5.84-23.08c-1.31-3.8-3.19-7.44-4.41-11.24-.3-.94-1.1-2.92-.59-3.77,1.22-2.06,2.08-.42,3.33.24,4,2.09,7.91.77,10.43-2.88,4.21-6.08,0-13.58,3.72-19.52,1.7-2.74-2.63-5.26-4.32-2.52-3.35,5.42-.8,10.84-2.31,16.55-.6,2.26-2,4.8-5,4-1-.24-2-1.42-3-1.8a5.78,5.78,0,0,0-4.56,0c-3.21,1.49-3.59,5.37-3.13,8.48.92,6.15,4.57,12.16,6.43,18.13a137.58,137.58,0,0,1,4.69,20.54q.89,6,1.21,12.1c.22,4.1.23,8.09-4.56,9.07-14.88,3-30.81,1-45-4.16-3-1.1-4.34,3.73-1.33,4.82Z"/>
      <path d="M83.28,78.22c-3.13,3.21-7.4,7.57-12.27,7.56-5.45,0-7.43-6.44-4.94-10.58s8.68-5,13-3.37c4.7,1.75,7.91,5.78,10.31,10,1.6,2.8,5.92.28,4.32-2.52C90,72.75,84.18,66.94,76.34,66.15c-6.55-.65-13.8,2.61-15.79,9.28-1.61,5.41.45,11.81,5.71,14.28C74,93.34,81.73,87,86.81,81.76c2.25-2.31-1.28-5.85-3.53-3.54Z"/>
      <path d="M74.08,89.55l6,16.55c1.09,3,5.93,1.7,4.82-1.33l-6-16.55c-1.09-3-5.93-1.7-4.82,1.33Z"/>
      <path d="M43.67,161.42a497.91,497.91,0,0,1-4.14-67.61c0-3.22-5-3.22-5,0a497.91,497.91,0,0,0,4.14,67.61c.41,3.15,5.42,3.19,5,0Z"/>
      <path d="M41.14,78.74,29.75,85.48c-2,1.2-4.84,3-6.18,0-.67-1.52-.05-4.14.4-5.6A13.55,13.55,0,0,1,30.32,72a8.75,8.75,0,0,1,6.62-.92c2.4.75,4.56,4,1.34,5.46-2.93,1.31-.39,5.62,2.53,4.32,5.91-2.63,4.94-10.95-.24-13.8-6.42-3.54-14.44.28-18.46,5.65-3.42,4.57-6,13.77-1.31,18.43,2.58,2.54,6,1.63,8.87.15,4.79-2.47,9.36-5.51,14-8.25,2.77-1.64.26-6-2.52-4.32Z"/>
      <path d="M41.05,73.05a21.05,21.05,0,0,0,27,7.8c2.91-1.38.37-5.7-2.52-4.32a15.94,15.94,0,0,1-20.16-6c-1.69-2.73-6-.22-4.31,2.52Z"/>
      <path d="M47.39,115.16a50.22,50.22,0,0,0,19.33,1.31c3.15-.41,3.19-5.41,0-5a46.49,46.49,0,0,1-18-1.13c-3.11-.82-4.44,4-1.33,4.82Z"/>
      <path d="M48.17,140.07l25.31,2.07c3.21.26,3.19-4.74,0-5l-25.31-2.07c-3.21-.26-3.19,4.74,0,5Z"/>
      <path d="M51.53,158.82c3.22,0,3.23-5,0-5s-3.22,5,0,5Z"/>
      <path d="M49.85,148.69c3.21,0,3.22-5,0-5s-3.23,5,0,5Z"/>
      <path d="M61.67,162.2c3.22,0,3.22-5,0-5s-3.22,5,0,5Z"/>
      <path d="M75.19,165.58c3.21,0,3.22-5,0-5s-3.23,5,0,5Z"/>
      <path d="M83.63,162.2c3.22,0,3.22-5,0-5s-3.22,5,0,5Z"/>
      <path d="M83.63,150.38c3.22,0,3.22-5,0-5s-3.22,5,0,5Z"/>
      <path d="M38,103.07c3.22,0,3.22-5,0-5s-3.22,5,0,5Z"/>
      <path d="M39.71,92.94c3.22,0,3.22-5,0-5s-3.22,5,0,5Z"/>
      <path d="M23.12,88.07A81,81,0,0,0,6,101a2.53,2.53,0,0,0,.51,3.93,72.11,72.11,0,0,0,11.41,5c2.93,1,7.75,3,10.84,2.4,5.79-1.08,10.1-9.46,11.59-14.42.92-3.09-3.9-4.41-4.83-1.33-1.44,4.8-4.85,11.38-10.57,10.09a63.08,63.08,0,0,1-15.92-6l.51,3.93A75.6,75.6,0,0,1,25.64,92.38c2.81-1.57.29-5.89-2.52-4.31Z"/>
      <path d="M17.75,103.07c3.21,0,3.22-5,0-5s-3.23,5,0,5Z"/>
      <path d="M26.19,104.76c3.22,0,3.23-5,0-5s-3.22,5,0,5Z"/>
    </g>
  </g>
</svg>
