<svg xmlns="http://www.w3.org/2000/svg" viewBox="0 0 155.31 229.8">
  <title>p_bone</title>
  <g id="Layer_2" data-name="Layer 2">
    <g id="Layer_1-2" data-name="Layer 1">
      <path d="M42.62,227.39C43.74,197.18,56,169.18,68.11,142H63.79A533.81,533.81,0,0,1,99,224.27c1,3,5.84,1.74,4.82-1.33a541.62,541.62,0,0,0-35.75-83.49c-.82-1.54-3.55-1.72-4.32,0-12.5,28.05-25,56.8-26.17,87.94-.12,3.22,4.88,3.21,5,0Z"/>
      <path d="M67.05,142.94a411.59,411.59,0,0,0-7.44-76.55c-.61-3.15-5.43-1.82-4.82,1.33a404.91,404.91,0,0,1,7.26,75.22c0,3.22,5,3.23,5,0Z"/>
      <path d="M51.11,70.87c.92.8-9.72,9.7-10.91,10.75L26.82,93.4l-26,22.91c-2.42,2.14,1.13,5.66,3.53,3.54L37.79,90.39c5.27-4.64,11.32-9,16-14.2,2.31-2.53,3.79-6.29.81-8.86-2.42-2.09-6,1.43-3.53,3.54Z"/>
      <path d="M53.81,68.17a555.32,555.32,0,0,0,64.9,34c2.92,1.28,5.47-3,2.53-4.32a554.66,554.66,0,0,1-64.91-34c-2.75-1.68-5.26,2.64-2.52,4.32Z"/>
      <path d="M55,61.84a88.33,88.33,0,0,1-24.86-8c-4-2-8-4.43-9.5-9-1.26-3.67-1-7.73-.59-11.52.68-6.74,1.52-15.14,6.24-20.41C31.69,7,41.9,6.05,49.44,5.27c8.89-.91,16.72.89,21.86,8.71a29.33,29.33,0,0,1,4.58,17.11C75.48,43.66,68,56.14,56.09,60.88c-3,1.18-1.66,6,1.33,4.83C79.5,56.91,89.57,24.91,72,6.89,66.92,1.63,60-.22,52.83,0,45.39.27,36.87,1.47,30,4.45,17.16,10,14.28,27,14.78,39.62,15.54,58.3,38.55,64,53.7,66.67c3.15.54,4.5-4.27,1.33-4.83Z"/>
      <path d="M41.73,35.48c-1.69-.68-2.86-3.63-1.56-5.13,1-1.2,3.72-.67,4.25.84.6,1.68-2.21,3.17-3.36,1.87a2.5,2.5,0,0,1-.13-2.62c.21-.34,1.15-.8,1.23-1.09s-.5-.68-.22-.77c-3.06,1-1.75,5.81,1.32,4.82a4.86,4.86,0,0,0,3.15-6.6,4.79,4.79,0,0,0-7-1.72,7.91,7.91,0,0,0-3.8,6.56A6.82,6.82,0,0,0,39.45,38c4.9,2.28,11.24-2.37,9.88-7.8-1.25-5-8.26-7.15-12.16-3.83-4.88,4.16-2.09,11.87,3.23,14,3,1.19,4.29-3.65,1.33-4.82Z"/>
      <path d="M41,30.53a54.07,54.07,0,0,0-21.56,7.14c-2.77,1.64-.26,6,2.52,4.32a48,48,0,0,1,19-6.46c3.16-.36,3.2-5.37,0-5Z"/>
      <path d="M66.34,29.07a7.18,7.18,0,0,1-5.78-2.74l.64,2.43c.58-1.66,2.5-4.05,4.55-3.29,1.54.58,2.24,2.7.4,3.33-3.32,1.14-6.48-3.28-5.54-6.24s4.88-2.25,6.41-.28c2.65,3.44-5.64,5.31-4.74.23L61.13,24a2.57,2.57,0,0,1,3.3.88c2.08,2.46,5.6-1.09,3.54-3.54-2.32-2.75-9.68-4.42-10.62.45a7.86,7.86,0,0,0,7.14,9c4.17.2,8.35-3.26,8.06-7.6-.24-3.66-3.48-6.5-6.9-7.3a8.07,8.07,0,0,0-9.22,3.77c-1.88,3.45-.86,7.81,1.55,10.72,2.69,3.27,7.55,4.72,11.35,2.43s3.73-7.21.93-10.18c-3.69-3.91-9.57-2.27-12.41,1.78a7.26,7.26,0,0,0-1.56,3.67c0,1.36,1.29,2.48,2.25,3.28a12,12,0,0,0,7.8,2.69c3.21,0,3.22-5,0-5Z"/>
      <path d="M68,25.5h8.45c3.21,0,3.22-5,0-5H68c-3.22,0-3.22,5,0,5Z"/>
      <path d="M43.53,36.46c-5-1.09-5.28-8.53.27-8.89,5.1-.33,6.34,6.92,1.74,8.64-3,1.12-1.69,6,1.33,4.82a10,10,0,0,0,6.45-10.65,9.06,9.06,0,0,0-9.52-7.81c-4.71.17-8.89,3.52-9.18,8.39A10.07,10.07,0,0,0,42.2,41.28c3.13.68,4.47-4.14,1.33-4.82Z"/>
      <path d="M122.11,88.68a17.41,17.41,0,0,1-5.39,15.46c-3.29,3-8.84,3.51-11.15,7.55-4.36,7.66,5.93,11.38,11.62,11.48,3.17,0,6.63-.33,8.39,2.85,1,1.74,1.06,3.71,2.62,5.15,2.63,2.44,6.77,1.85,9.31-.4,3.33-2.93,3.38-7.78,3.64-11.87.42-6.77.72-13.55,1.16-20.32.9-13.86,2.32-27.76,6.18-41.15,3-10.57,8-21.46,6.55-32.72-.93-7.09-7.44-20-16.58-14.42A7.13,7.13,0,0,0,135,18.06c.35,1.3,2.86,3.38,2.78,4.52-.13,1.69-3.63.93-4.95.94-3,0-6.63.1-8.38,3-2.56,4.28,1.76,10.74,2.69,15,3.3,15.08-.15,30.79-3.36,45.56-.68,3.14,4.14,4.48,4.82,1.33,2.05-9.43,4-18.94,4.64-28.6a76.55,76.55,0,0,0-.37-14.2c-.64-5.06-2.57-9.48-3.72-14.35-.59-2.5-.05-2.55,2.23-2.71,1.28-.09,2.59.06,3.88,0,2.19,0,4.64-.15,6.28-1.81a5.32,5.32,0,0,0,1-5.7c-.47-1.29-2.26-2.63-2.47-3.88-.43-2.57,2.38-3.45,4.43-2.55,1.67.73,2.88,2.73,3.67,4.25,4.95,9.49.55,21.21-2.45,30.58a165.29,165.29,0,0,0-6.55,28.91c-1.36,10.38-1.95,20.85-2.52,31.3-.14,2.47-.27,4.93-.41,7.39-.11,1.94.32,6-.76,7.61-3.79,5.79-5.26-1-6.3-2.5a8.53,8.53,0,0,0-3.17-2.7c-3.74-1.9-7.89-.72-11.82-1.45-3.35-.63-6-2.48-1.91-5.58,1.52-1.16,3.69-1.61,5.32-2.69a22.12,22.12,0,0,0,9.49-21.07c-.4-3.15-5.41-3.19-5,0Z"/>
    </g>
  </g>
</svg>
