<svg xmlns="http://www.w3.org/2000/svg" viewBox="0 0 126.49 233.26">
  <title>b_boots</title>
  <g id="Layer_2" data-name="Layer 2">
    <g id="Layer_1-2" data-name="Layer 1">
      <path d="M48.56,192.05C53.62,174.81,60.8,158.36,68.11,142H63.79q12.54,23.58,22.71,48.29c1.21,2.94,6,1.65,4.82-1.33q-10.38-25.31-23.21-49.49c-.82-1.54-3.55-1.72-4.32,0-7.48,16.78-14.87,33.62-20.06,51.27-.9,3.09,3.92,4.42,4.83,1.33Z"/>
      <path d="M67.05,142.94a411.59,411.59,0,0,0-7.44-76.55c-.61-3.15-5.43-1.82-4.82,1.33a404.91,404.91,0,0,1,7.26,75.22c0,3.22,5,3.23,5,0Z"/>
      <path d="M51.11,70.87c.92.8-9.72,9.7-10.91,10.75L26.82,93.4l-26,22.91c-2.42,2.14,1.13,5.66,3.53,3.54L37.79,90.39c5.27-4.64,11.32-9,16-14.2,2.31-2.53,3.79-6.29.81-8.86-2.42-2.09-6,1.43-3.53,3.54Z"/>
      <path d="M53.81,68.17a555.32,555.32,0,0,0,64.9,34c2.92,1.28,5.47-3,2.53-4.32a554.66,554.66,0,0,1-64.91-34c-2.75-1.68-5.26,2.64-2.52,4.32Z"/>
      <path d="M55,61.84a88.33,88.33,0,0,1-24.86-8c-4-2-8-4.43-9.5-9-1.26-3.67-1-7.73-.59-11.52.68-6.74,1.52-15.14,6.24-20.41C31.69,7,41.9,6.05,49.44,5.27c8.89-.91,16.72.89,21.86,8.71a29.33,29.33,0,0,1,4.58,17.11C75.48,43.66,68,56.14,56.09,60.88c-3,1.18-1.66,6,1.33,4.83C79.5,56.91,89.57,24.91,72,6.89,66.92,1.63,60-.22,52.83,0,45.39.27,36.87,1.47,30,4.45,17.16,10,14.28,27,14.78,39.62,15.54,58.3,38.55,64,53.7,66.67c3.15.54,4.5-4.27,1.33-4.83Z"/>
      <path d="M41.73,35.48c-1.69-.68-2.86-3.63-1.56-5.13,1-1.2,3.72-.67,4.25.84.6,1.68-2.21,3.17-3.36,1.87a2.5,2.5,0,0,1-.13-2.62c.21-.34,1.15-.8,1.23-1.09s-.5-.68-.22-.77c-3.06,1-1.75,5.81,1.32,4.82a4.86,4.86,0,0,0,3.15-6.6,4.79,4.79,0,0,0-7-1.72,7.91,7.91,0,0,0-3.8,6.56A6.82,6.82,0,0,0,39.45,38c4.9,2.28,11.24-2.37,9.88-7.8-1.25-5-8.26-7.15-12.16-3.83-4.88,4.16-2.09,11.87,3.23,14,3,1.19,4.29-3.65,1.33-4.82Z"/>
      <path d="M41,30.53a54.07,54.07,0,0,0-21.56,7.14c-2.77,1.64-.26,6,2.52,4.32a48,48,0,0,1,19-6.46c3.16-.36,3.2-5.37,0-5Z"/>
      <path d="M66.34,29.07a7.18,7.18,0,0,1-5.78-2.74l.64,2.43c.58-1.66,2.5-4.05,4.55-3.29,1.54.58,2.24,2.7.4,3.33-3.32,1.14-6.48-3.28-5.54-6.24s4.88-2.25,6.41-.28c2.65,3.44-5.64,5.31-4.74.23L61.13,24a2.57,2.57,0,0,1,3.3.88c2.08,2.46,5.6-1.09,3.54-3.54-2.32-2.75-9.68-4.42-10.62.45a7.86,7.86,0,0,0,7.14,9c4.17.2,8.35-3.26,8.06-7.6-.24-3.66-3.48-6.5-6.9-7.3a8.07,8.07,0,0,0-9.22,3.77c-1.88,3.45-.86,7.81,1.55,10.72,2.69,3.27,7.55,4.72,11.35,2.43s3.73-7.21.93-10.18c-3.69-3.91-9.57-2.27-12.41,1.78a7.26,7.26,0,0,0-1.56,3.67c0,1.36,1.29,2.48,2.25,3.28a12,12,0,0,0,7.8,2.69c3.21,0,3.22-5,0-5Z"/>
      <path d="M68,25.5h8.45c3.21,0,3.22-5,0-5H68c-3.22,0-3.22,5,0,5Z"/>
      <path d="M43.53,36.46c-5-1.09-5.28-8.53.27-8.89,5.1-.33,6.34,6.92,1.74,8.64-3,1.12-1.69,6,1.33,4.82a10,10,0,0,0,6.45-10.65,9.06,9.06,0,0,0-9.52-7.81c-4.71.17-8.89,3.52-9.18,8.39A10.07,10.07,0,0,0,42.2,41.28c3.13.68,4.47-4.14,1.33-4.82Z"/>
      <path d="M84.23,199.89c2.92-2.74,7.34-2.69,10.65-.61,4.26,2.69,3,6.71,4.05,10.9,1.94,7.94,10.39,7.37,16.67,9,2,.54,6.52,2.24,5.85,5.19-.57,2.45-4.69,2.75-6.54,2.81-5.25.2-10.68-.46-15.91-.91-5.76-.49-15.56.45-16.46-7-.7-5.87.15-12.05,1.44-17.77.7-3.14-4.12-4.48-4.82-1.33-1.58,7-3.14,15.8-1,22.86,2,6.58,8.36,7,14.28,7.65,8,.85,17,2.44,25,1.34,4.59-.63,9.42-3.31,9.07-8.63-.34-5.14-5.66-8.11-10.16-9.15-2.83-.66-5.87-.53-8.61-1.58-4.94-1.88-3.54-5.92-4.56-10.09-2.38-9.67-15.46-12.79-22.44-6.21-2.35,2.21,1.19,5.74,3.53,3.53Z"/>
      <path d="M33.76,202.26c5.83-1.3,16.88-2.39,14.72,6.93C48,211.25,47,213,47,215.13a32.71,32.71,0,0,0,1,6.05c1.78,9.26-8.69,4.92-13.78,4.23a46.74,46.74,0,0,0-15,.41c-2.63.49-5.2,1.79-7.8,2.16-4.49.63-2.1-3.34.14-5.06,3.21-2.45,7.32-3.35,10.92-5,6.33-3,13.24-10.68,8.39-17.69-1.82-2.63-6.15-.13-4.32,2.52,5,7.19-8.71,11.49-13.11,13.49s-9.22,5.16-10,10.38,3.44,7.33,8,6.51c4-.73,7.65-2.4,11.77-2.86a42.21,42.21,0,0,1,13,.56c4.93,1,11.4,3.35,15.32-1.22,4.31-5-.71-11,.66-16.44s2.95-10-2.45-14.18c-5.09-4-11.62-2.81-17.46-1.51-3.14.71-1.81,5.53,1.33,4.82Z"/>
      <path d="M45.05,200.45l3.38-6.76c1.44-2.87-2.88-5.41-4.32-2.52l-3.38,6.75c-1.43,2.87,2.88,5.41,4.32,2.53Z"/>
      <path d="M90.19,196.62c3.22,0,3.23-5,0-5s-3.22,5,0,5Z"/>
      <path d="M22.35,216.37l3.38,10.13c1,3,5.84,1.74,4.82-1.33L27.17,215c-1-3-5.84-1.74-4.82,1.33Z"/>
      <path d="M103.35,215.7v10.14c0,3.21,5,3.22,5,0V215.7c0-3.22-5-3.22-5,0Z"/>
      <path d="M116,226.65c3.21,0,3.22-5,0-5s-3.23,5,0,5Z"/>
      <path d="M23.07,225c3.22,0,3.22-5,0-5s-3.22,5,0,5Z"/>
      <path d="M41.65,209.75c3.22,0,3.23-5,0-5s-3.22,5,0,5Z"/>
      <path d="M38.28,218.2c3.21,0,3.22-5,0-5s-3.23,5,0,5Z"/>
      <path d="M92.34,206.37c3.21,0,3.22-5,0-5s-3.23,5,0,5Z"/>
      <path d="M94,219.89c3.22,0,3.23-5,0-5s-3.22,5,0,5Z"/>
    </g>
  </g>
</svg>
