<svg xmlns="http://www.w3.org/2000/svg" viewBox="0 0 122.54 235.42">
  <title>p_helm</title>
  <g id="Layer_2" data-name="Layer 2">
    <g id="Layer_1-2" data-name="Layer 1">
      <path d="M42.62,233C43.74,202.8,56,174.8,68.11,147.6H63.79A533.5,533.5,0,0,1,99,229.9c1,3,5.84,1.73,4.82-1.33a540.78,540.78,0,0,0-35.75-83.49c-.82-1.55-3.55-1.72-4.32,0-12.5,28-25,56.79-26.17,87.93-.12,3.22,4.88,3.21,5,0Z"/>
      <path d="M67.05,148.57A411.42,411.42,0,0,0,59.61,72c-.61-3.16-5.43-1.82-4.82,1.33a404.83,404.83,0,0,1,7.26,75.22c0,3.21,5,3.22,5,0Z"/>
      <path d="M51.11,76.49c.92.8-9.72,9.7-10.91,10.75L26.82,99l-26,22.92c-2.42,2.13,1.13,5.65,3.53,3.53L37.79,96c5.27-4.63,11.32-9,16-14.2,2.31-2.53,3.79-6.29.81-8.85-2.42-2.1-6,1.42-3.53,3.53Z"/>
      <path d="M55.5,74.83a554.94,554.94,0,0,0,63.21,32.94c2.92,1.29,5.47-3,2.53-4.32A554.24,554.24,0,0,1,58,70.51c-2.75-1.67-5.27,2.65-2.52,4.32Z"/>
      <path d="M60.31,59.13c-10-1.29-19.31,7.72-29,4.84-6.54-1.94-5.61-8.53-4.44-13.84,1.34-6,2.8-12.05,4.2-18.07,2.29-9.85,3.65-22.51,14.89-26C54.8,3.3,66.11,6,74.27,9.93c11.3,5.48,12.65,15.8,12.6,27.2,0,5.75,0,11.51-.14,17.25-.06,2.94.11,6.83-2.77,8.54-2.24,1.32-4.95.52-7-.77-10.93-6.74-.53-19.56.46-28.26s-13.08-9.7-18.88-9.18c-3.6.33-20.94,4.43-15.14,11.16,2,2.38,5.48,1.61,8.18,1.87,10.25,1,6.26,13.81,3.73,19.74C54,60.41,58.34,63,59.6,60c3.55-8.35,7.18-21.47-3.67-26.36a11.53,11.53,0,0,0-6.46-.86c-.76.14-2.58,1.27-1.11.3A20.37,20.37,0,0,1,52.87,31a25.86,25.86,0,0,1,10.47-1.33,23.83,23.83,0,0,1,4.89.91c3.57,1.06,3.88,2.4,3.12,5.9-1.3,6-4.52,11-4.19,17.44A15,15,0,0,0,73,65.44c6.13,4.72,15.53,4.27,18-4.12,1.71-5.73.8-12.55.85-18.44.05-6.37.41-12.89-.81-19.19C88.82,12.43,80.28,6.19,69.84,2.87,61,0,50.23-1.65,41.45,2.43c-10.73,5-12.62,17-15,27.35-1.8,7.73-4.17,15.56-5.27,23.43-.71,5,.07,10.26,4.4,13.47,10.92,8.12,23.39-4,34.76-2.55,3.19.41,3.16-4.59,0-5Z"/>
    </g>
  </g>
</svg>
