<svg xmlns="http://www.w3.org/2000/svg" viewBox="0 0 122.54 229.8">
  <title>p_leg_armor</title>
  <g id="Layer_2" data-name="Layer 2">
    <g id="Layer_1-2" data-name="Layer 1">
      <path d="M96.94,218q1.07,3.12,2.1,6.24c1,3,5.84,1.74,4.82-1.33q-1-3.12-2.1-6.24A2.57,2.57,0,0,0,98.68,215,2.52,2.52,0,0,0,96.94,218Z"/>
      <path d="M42.62,227.39q.1-3.22.36-6.43a2.52,2.52,0,0,0-2.5-2.5A2.55,2.55,0,0,0,38,221q-.25,3.21-.36,6.43c-.1,3.22,4.9,3.21,5,0Z"/>
      <path d="M66.4,120.46a416.76,416.76,0,0,0-6.79-54.07c-.61-3.15-5.43-1.82-4.82,1.33a408.41,408.41,0,0,1,6.61,52.74c.19,3.2,5.19,3.22,5,0Z"/>
      <path d="M51.11,70.87c.92.8-9.72,9.7-10.91,10.75L26.82,93.4l-26,22.91c-2.42,2.14,1.13,5.66,3.53,3.54L37.79,90.39c5.27-4.64,11.32-9,16-14.2,2.31-2.53,3.79-6.29.81-8.86-2.42-2.09-6,1.43-3.53,3.54Z"/>
      <path d="M53.81,68.17a555.32,555.32,0,0,0,64.9,34c2.92,1.28,5.47-3,2.53-4.32a554.66,554.66,0,0,1-64.91-34c-2.75-1.68-5.26,2.64-2.52,4.32Z"/>
      <path d="M55,61.84a88.33,88.33,0,0,1-24.86-8c-4-2-8-4.43-9.5-9-1.26-3.67-1-7.73-.59-11.52.68-6.74,1.52-15.14,6.24-20.41C31.69,7,41.9,6.05,49.44,5.27c8.89-.91,16.72.89,21.86,8.71a29.33,29.33,0,0,1,4.58,17.11C75.48,43.66,68,56.14,56.09,60.88c-3,1.18-1.66,6,1.33,4.83C79.5,56.91,89.57,24.91,72,6.89,66.92,1.63,60-.22,52.83,0,45.39.27,36.87,1.47,30,4.45,17.16,10,14.28,27,14.78,39.62,15.54,58.3,38.55,64,53.7,66.67c3.15.54,4.5-4.27,1.33-4.83Z"/>
      <path d="M41.73,35.48c-1.69-.68-2.86-3.63-1.56-5.13,1-1.2,3.72-.67,4.25.84.6,1.68-2.21,3.17-3.36,1.87a2.5,2.5,0,0,1-.13-2.62c.21-.34,1.15-.8,1.23-1.09s-.5-.68-.22-.77c-3.06,1-1.75,5.81,1.32,4.82a4.86,4.86,0,0,0,3.15-6.6,4.79,4.79,0,0,0-7-1.72,7.91,7.91,0,0,0-3.8,6.56A6.82,6.82,0,0,0,39.45,38c4.9,2.28,11.24-2.37,9.88-7.8-1.25-5-8.26-7.15-12.16-3.83-4.88,4.16-2.09,11.87,3.23,14,3,1.19,4.29-3.65,1.33-4.82Z"/>
      <path d="M41,30.53a54.07,54.07,0,0,0-21.56,7.14c-2.77,1.64-.26,6,2.52,4.32a48,48,0,0,1,19-6.46c3.16-.36,3.2-5.37,0-5Z"/>
      <path d="M66.34,29.07a7.18,7.18,0,0,1-5.78-2.74l.64,2.43c.58-1.66,2.5-4.05,4.55-3.29,1.54.58,2.24,2.7.4,3.33-3.32,1.14-6.48-3.28-5.54-6.24s4.88-2.25,6.41-.28c2.65,3.44-5.64,5.31-4.74.23L61.13,24a2.57,2.57,0,0,1,3.3.88c2.08,2.46,5.6-1.09,3.54-3.54-2.32-2.75-9.68-4.42-10.62.45a7.86,7.86,0,0,0,7.14,9c4.17.2,8.35-3.26,8.06-7.6-.24-3.66-3.48-6.5-6.9-7.3a8.07,8.07,0,0,0-9.22,3.77c-1.88,3.45-.86,7.81,1.55,10.72,2.69,3.27,7.55,4.72,11.35,2.43s3.73-7.21.93-10.18c-3.69-3.91-9.57-2.27-12.41,1.78a7.26,7.26,0,0,0-1.56,3.67c0,1.36,1.29,2.48,2.25,3.28a12,12,0,0,0,7.8,2.69c3.21,0,3.22-5,0-5Z"/>
      <path d="M68,25.5h8.45c3.21,0,3.22-5,0-5H68c-3.22,0-3.22,5,0,5Z"/>
      <path d="M43.53,36.46c-5-1.09-5.28-8.53.27-8.89,5.1-.33,6.34,6.92,1.74,8.64-3,1.12-1.69,6,1.33,4.82a10,10,0,0,0,6.45-10.65,9.06,9.06,0,0,0-9.52-7.81c-4.71.17-8.89,3.52-9.18,8.39A10.07,10.07,0,0,0,42.2,41.28c3.13.68,4.47-4.14,1.33-4.82Z"/>
      <path d="M53.52,183.16c-5.41.35-9.52-2.79-13.11-6.5-1.93-2-5.76-5.63-2.94-8.35,1.75-1.68,4.71-2.22,7-2.37,4.22-.28,9.25.78,11.74,4.53s1.66,8.95-2.41,10.94c-2.89,1.42-.36,5.73,2.53,4.32,5.92-2.9,7.63-10.37,5.08-16.18-3.14-7.12-11.82-9.4-18.93-8.4-6.42.91-14.69,6.16-10.27,13.51,4.26,7.07,12.67,14.05,21.28,13.5,3.19-.21,3.22-5.21,0-5Z"/>
      <path d="M86.23,171.23a4.15,4.15,0,0,1-4.47-4.61c.24-3,3.6-4.3,6.19-4.25,5.56.1,9.31,5.77,8.61,11-.72,5.44-6.82,9.11-12,7.4s-7-7.9-5-12.58c1.24-3-3.59-4.26-4.82-1.33-3.47,8.29,2.17,18.55,11.35,19.26a14.36,14.36,0,0,0,15-18.1c-2.36-8.49-12.79-14.11-20.53-8.38-6.75,5-3.36,17.64,5.68,16.6,3.16-.37,3.2-5.37,0-5Z"/>
      <path d="M34.1,179.89c-1.87,6.94-3.86,13.87-5.62,20.84-1.14,4.53-2.09,9.8.36,14.09,6.2,10.85,20.2,2.57,29.23,3.38A2.51,2.51,0,0,0,60.48,215a69.46,69.46,0,0,1-3.69-29.47c.28-3.2-4.72-3.18-5,0a73.11,73.11,0,0,0,3.87,30.8l2.41-3.17c-6.69-.6-23.49,7.37-25.62-2.93-1-4.62,1.34-10,2.52-14.42l4-14.63c.84-3.11-4-4.44-4.82-1.33Z"/>
      <path d="M74.46,184.71,77,201.28c.67,4.3.67,10,3.5,13.54,4.8,6.09,16.85,4.33,23.47,3.69,8.94-.87,7.49-8.95,6.07-15.55a116.35,116.35,0,0,0-10.48-28.68c-1.48-2.86-5.8-.33-4.32,2.52A111.09,111.09,0,0,1,103,195.75c1,3.38,1.89,6.8,2.57,10.26.41,2.06,1.21,3.89,0,5.82-1.5,2.34-3.26,1.76-6,1.82-3.19.07-6.46.34-9.65.13-5.06-.34-6.49-3.54-7.2-8-1.19-7.47-2.32-15-3.48-22.42-.49-3.17-5.31-1.82-4.82,1.33Z"/>
      <path d="M42.5,162.71l7.2-30.31c.74-3.13-4.08-4.46-4.83-1.33l-7.2,30.31c-.74,3.12,4.08,4.46,4.83,1.33Z"/>
      <path d="M46.76,134.07a109.34,109.34,0,0,0,27.68-1.77c3.16-.6,1.82-5.42-1.33-4.82a104.41,104.41,0,0,1-26.35,1.59c-3.22-.21-3.2,4.79,0,5Z"/>
      <path d="M74,130.89l12.75,29.05c1.29,2.94,5.6.4,4.31-2.52L78.31,128.36c-1.29-2.94-5.6-.39-4.32,2.53Z"/>
      <path d="M62.72,167.75l2.44-12.29L61,156.57a53.73,53.73,0,0,1,12.28,13.5c1.71,2.71,6,.21,4.31-2.52a57.56,57.56,0,0,0-13-14.52c-1.34-1.05-3.78-.94-4.18,1.11L57.9,166.43c-.62,3.14,4.2,4.48,4.82,1.32Z"/>
      <path d="M60.94,113.06l2,15.16c.42,3.14,5.42,3.18,5,0l-2-15.16c-.42-3.15-5.42-3.19-5,0Z"/>
      <path d="M48.44,154.38c3.22,0,3.23-5,0-5s-3.22,5,0,5Z"/>
      <path d="M53.51,145.94c3.22,0,3.22-5,0-5s-3.22,5,0,5Z"/>
      <path d="M58.58,142.56c3.22,0,3.22-5,0-5s-3.22,5,0,5Z"/>
      <path d="M72.09,142.56c3.22,0,3.23-5,0-5s-3.22,5,0,5Z"/>
      <path d="M78.85,152.69c3.22,0,3.22-5,0-5s-3.22,5,0,5Z"/>
      <path d="M40,205.06c3.21,0,3.22-5,0-5s-3.23,5,0,5Z"/>
      <path d="M38.31,211.82c3.21,0,3.22-5,0-5s-3.23,5,0,5Z"/>
      <path d="M46.75,213.51c3.22,0,3.23-5,0-5s-3.22,5,0,5Z"/>
      <path d="M89,213.51c3.22,0,3.22-5,0-5s-3.22,5,0,5Z"/>
      <path d="M97.44,211.82c3.21,0,3.22-5,0-5s-3.23,5,0,5Z"/>
      <path d="M100.81,203.37c3.22,0,3.23-5,0-5s-3.22,5,0,5Z"/>
    </g>
  </g>
</svg>
