<svg xmlns="http://www.w3.org/2000/svg" viewBox="0 0 122.54 229.8">
  <title>p_pants</title>
  <g id="Layer_2" data-name="Layer 2">
    <g id="Layer_1-2" data-name="Layer 1">
      <path d="M96.94,218q1.07,3.12,2.1,6.24c1,3,5.84,1.74,4.82-1.33q-1-3.12-2.1-6.24A2.57,2.57,0,0,0,98.68,215,2.52,2.52,0,0,0,96.94,218Z"/>
      <path d="M42.62,227.39q.1-3.22.36-6.43a2.52,2.52,0,0,0-2.5-2.5A2.55,2.55,0,0,0,38,221q-.25,3.21-.36,6.43c-.1,3.22,4.9,3.21,5,0Z"/>
      <path d="M66.4,120.46a416.76,416.76,0,0,0-6.79-54.07c-.61-3.15-5.43-1.82-4.82,1.33a408.41,408.41,0,0,1,6.61,52.74c.19,3.2,5.19,3.22,5,0Z"/>
      <path d="M51.11,70.87c.92.8-9.72,9.7-10.91,10.75L26.82,93.4l-26,22.91c-2.42,2.14,1.13,5.66,3.53,3.54L37.79,90.39c5.27-4.64,11.32-9,16-14.2,2.31-2.53,3.79-6.29.81-8.86-2.42-2.09-6,1.43-3.53,3.54Z"/>
      <path d="M53.81,68.17a555.32,555.32,0,0,0,64.9,34c2.92,1.28,5.47-3,2.53-4.32a554.66,554.66,0,0,1-64.91-34c-2.75-1.68-5.26,2.64-2.52,4.32Z"/>
      <path d="M55,61.84a88.33,88.33,0,0,1-24.86-8c-4-2-8-4.43-9.5-9-1.26-3.67-1-7.73-.59-11.52.68-6.74,1.52-15.14,6.24-20.41C31.69,7,41.9,6.05,49.44,5.27c8.89-.91,16.72.89,21.86,8.71a29.33,29.33,0,0,1,4.58,17.11C75.48,43.66,68,56.14,56.09,60.88c-3,1.18-1.66,6,1.33,4.83C79.5,56.91,89.57,24.91,72,6.89,66.92,1.63,60-.22,52.83,0,45.39.27,36.87,1.47,30,4.45,17.16,10,14.28,27,14.78,39.62,15.54,58.3,38.55,64,53.7,66.67c3.15.54,4.5-4.27,1.33-4.83Z"/>
      <path d="M41.73,35.48c-1.69-.68-2.86-3.63-1.56-5.13,1-1.2,3.72-.67,4.25.84.6,1.68-2.21,3.17-3.36,1.87a2.5,2.5,0,0,1-.13-2.62c.21-.34,1.15-.8,1.23-1.09s-.5-.68-.22-.77c-3.06,1-1.75,5.81,1.32,4.82a4.86,4.86,0,0,0,3.15-6.6,4.79,4.79,0,0,0-7-1.72,7.91,7.91,0,0,0-3.8,6.56A6.82,6.82,0,0,0,39.45,38c4.9,2.28,11.24-2.37,9.88-7.8-1.25-5-8.26-7.15-12.16-3.83-4.88,4.16-2.09,11.87,3.23,14,3,1.19,4.29-3.65,1.33-4.82Z"/>
      <path d="M41,30.53a54.07,54.07,0,0,0-21.56,7.14c-2.77,1.64-.26,6,2.52,4.32a48,48,0,0,1,19-6.46c3.16-.36,3.2-5.37,0-5Z"/>
      <path d="M66.34,29.07a7.18,7.18,0,0,1-5.78-2.74l.64,2.43c.58-1.66,2.5-4.05,4.55-3.29,1.54.58,2.24,2.7.4,3.33-3.32,1.14-6.48-3.28-5.54-6.24s4.88-2.25,6.41-.28c2.65,3.44-5.64,5.31-4.74.23L61.13,24a2.57,2.57,0,0,1,3.3.88c2.08,2.46,5.6-1.09,3.54-3.54-2.32-2.75-9.68-4.42-10.62.45a7.86,7.86,0,0,0,7.14,9c4.17.2,8.35-3.26,8.06-7.6-.24-3.66-3.48-6.5-6.9-7.3a8.07,8.07,0,0,0-9.22,3.77c-1.88,3.45-.86,7.81,1.55,10.72,2.69,3.27,7.55,4.72,11.35,2.43s3.73-7.21.93-10.18c-3.69-3.91-9.57-2.27-12.41,1.78a7.26,7.26,0,0,0-1.56,3.67c0,1.36,1.29,2.48,2.25,3.28a12,12,0,0,0,7.8,2.69c3.21,0,3.22-5,0-5Z"/>
      <path d="M68,25.5h8.45c3.21,0,3.22-5,0-5H68c-3.22,0-3.22,5,0,5Z"/>
      <path d="M43.53,36.46c-5-1.09-5.28-8.53.27-8.89,5.1-.33,6.34,6.92,1.74,8.64-3,1.12-1.69,6,1.33,4.82a10,10,0,0,0,6.45-10.65,9.06,9.06,0,0,0-9.52-7.81c-4.71.17-8.89,3.52-9.18,8.39A10.07,10.07,0,0,0,42.2,41.28c3.13.68,4.47-4.14,1.33-4.82Z"/>
      <path d="M29.85,217.26l11.2,0c2.65,0,5.63.36,8.15-.64,4.91-2,4.51-7.71,5-12.09a104.66,104.66,0,0,1,14.08-41.78l-4.57-.6a216.07,216.07,0,0,0,10.76,31q3.12,7.17,6.79,14.09c1.91,3.61,3.74,7.77,7.82,9.31,3.86,1.46,8.69,1,12.73.84s10.56.39,14-2.28c2.4-1.88,2.1-4.52,1.14-7.11-2-5.59-4.72-11-7.07-16.5L95.94,159.14c-4.62-10.78-8.79-21.9-14-32.43-4.47-9.15-13-7.54-21.77-6.41-4.78.61-10,1-14.59,2.57-4.25,1.4-5.05,4.52-5.7,8.58-4.18,25.94-9.36,51.66-15.87,77.13-.8,3.12,4,4.45,4.82,1.33q6.78-26.53,11.83-53.46,1.23-6.62,2.35-13.24c.69-4.09.65-9.1,2.09-13s8.17-3.93,11.87-4.49c4.42-.68,11.59-2.56,16-1.29,3.86,1.09,5.19,6,6.59,9.29l5.79,13.5,10.8,25.2,11.18,26.09,2.7,6.3a25.51,25.51,0,0,1,1.16,2.7c.62,2.09,1.43,3.32-.69,4.14-3.79,1.47-9.6.83-13.6.78-3.06,0-6,0-8.28-2.31-1.57-1.63-2.56-4.23-3.6-6.23q-3.42-6.52-6.36-13.27A209.41,209.41,0,0,1,68.5,160.85a2.52,2.52,0,0,0-4.56-.6,110.5,110.5,0,0,0-12.65,31.5,123.78,123.78,0,0,0-2.36,15.44c-.27,2.75-1.21,4.22-4.15,5.11-1.19.36-3.37,0-4.67,0l-10.26,0c-3.22,0-3.23,5,0,5Z"/>
      <path d="M47.94,139.83c.91-.83,2.11.2,2.73.93a3.25,3.25,0,0,1,.52,3.87c-1.62,3.1-5.68,4.34-8.8,5.22s-1.77,5.7,1.33,4.82c5.68-1.6,13.91-5.43,12.83-12.69-.82-5.51-7.47-10-12.14-5.68-2.38,2.17,1.16,5.7,3.53,3.53Z"/>
      <path d="M82.32,138c-.36-2.68-3.45-3.81-5.8-3-3.07,1-3.54,4.44-3,7.21,1,5.61,4,12.33,10.49,12.65,3.21.16,3.2-4.84,0-5-2.23-.11-3.46-2.32-4.25-4.15a21.3,21.3,0,0,1-1-2.92c-.18-.65-.24-1.35-.43-2a3.45,3.45,0,0,0-.14-.78c0-.38-.24-.6-.67-.68.43,3.18,5.25,1.83,4.82-1.32Z"/>
    </g>
  </g>
</svg>
