<svg xmlns="http://www.w3.org/2000/svg" viewBox="0 0 197.46 238.18">
  <title>p_sword</title>
  <g id="Layer_2" data-name="Layer 2">
    <g id="Layer_1-2" data-name="Layer 1">
      <path d="M42.62,235.77c1.12-30.21,13.36-58.21,25.49-85.42H63.79A533.91,533.91,0,0,1,99,232.65c1,3,5.84,1.74,4.82-1.33a540.78,540.78,0,0,0-35.75-83.49c-.82-1.54-3.55-1.72-4.32,0-12.5,28-25,56.79-26.17,87.94-.12,3.21,4.88,3.21,5,0Z"/>
      <path d="M67.05,151.32a411.42,411.42,0,0,0-7.44-76.55C59,71.61,54.18,73,54.79,76.1a404.91,404.91,0,0,1,7.26,75.22c0,3.22,5,3.22,5,0Z"/>
      <path d="M51.11,79.25C52,80.05,41.39,89,40.2,90L26.82,101.78l-26,22.91c-2.42,2.13,1.13,5.66,3.53,3.54L37.79,98.77c5.27-4.64,11.32-9,16-14.2,2.31-2.54,3.79-6.29.81-8.86-2.42-2.09-6,1.43-3.53,3.54Z"/>
      <path d="M53.81,76.55a553.73,553.73,0,0,0,64.9,34c2.92,1.29,5.47-3,2.53-4.31a554.66,554.66,0,0,1-64.91-34c-2.75-1.68-5.26,2.64-2.52,4.32Z"/>
      <path d="M55,70.22a88.33,88.33,0,0,1-24.86-8c-4-2-8-4.43-9.5-9-1.26-3.68-1-7.73-.59-11.53.68-6.73,1.52-15.14,6.24-20.4,5.37-6,15.58-6.94,23.12-7.71,8.89-.92,16.72.88,21.86,8.7a29.37,29.37,0,0,1,4.58,17.11C75.48,52,68,64.52,56.09,69.26c-3,1.18-1.66,6,1.33,4.82C79.5,65.29,89.57,33.28,72,15.26,66.92,10,60,8.16,52.83,8.4c-7.44.25-16,1.44-22.81,4.42C17.16,18.41,14.28,35.36,14.78,48c.76,18.67,23.77,24.4,38.92,27,3.15.55,4.5-4.27,1.33-4.82Z"/>
      <path d="M41.73,43.85c-1.69-.67-2.86-3.62-1.56-5.12,1-1.2,3.72-.67,4.25.84.6,1.68-2.21,3.17-3.36,1.87a2.5,2.5,0,0,1-.13-2.62c.21-.35,1.15-.8,1.23-1.09s-.5-.68-.22-.77c-3.06,1-1.75,5.81,1.32,4.82a4.86,4.86,0,0,0,3.15-6.6,4.8,4.8,0,0,0-7-1.73A7.94,7.94,0,0,0,35.65,40a6.8,6.8,0,0,0,3.8,6.3c4.9,2.29,11.24-2.36,9.88-7.79-1.25-5-8.26-7.15-12.16-3.83-4.88,4.15-2.09,11.86,3.23,14,3,1.18,4.29-3.65,1.33-4.83Z"/>
      <path d="M41,38.91a53.91,53.91,0,0,0-21.56,7.14c-2.77,1.63-.26,6,2.52,4.32a48,48,0,0,1,19-6.46c3.16-.37,3.2-5.37,0-5Z"/>
      <path d="M66.34,37.44a7.14,7.14,0,0,1-5.78-2.73l.64,2.43c.58-1.66,2.5-4,4.55-3.29,1.54.57,2.24,2.7.4,3.33-3.32,1.14-6.48-3.28-5.54-6.24s4.88-2.25,6.41-.28c2.65,3.44-5.64,5.31-4.74.23l-1.15,1.49a2.57,2.57,0,0,1,3.3.87c2.08,2.46,5.6-1.09,3.54-3.53-2.32-2.75-9.68-4.42-10.62.45a7.86,7.86,0,0,0,7.14,9c4.17.2,8.35-3.26,8.06-7.6-.24-3.66-3.48-6.5-6.9-7.31-3.62-.84-7.4.41-9.22,3.77S55.57,35.87,58,38.78c2.69,3.26,7.55,4.72,11.35,2.43S73.06,34,70.26,31c-3.69-3.91-9.57-2.27-12.41,1.78a7.23,7.23,0,0,0-1.56,3.66c0,1.37,1.29,2.49,2.25,3.29a11.93,11.93,0,0,0,7.8,2.68c3.21,0,3.22-5,0-5Z"/>
      <path d="M68,33.88h8.45c3.21,0,3.22-5,0-5H68c-3.22,0-3.22,5,0,5Z"/>
      <path d="M43.53,44.83c-5-1.08-5.28-8.53.27-8.88,5.1-.33,6.34,6.91,1.74,8.64-3,1.12-1.69,5.95,1.33,4.82a10,10,0,0,0,6.45-10.65A9.06,9.06,0,0,0,43.8,31c-4.71.17-8.89,3.52-9.18,8.39A10.07,10.07,0,0,0,42.2,49.66c3.13.68,4.47-4.14,1.33-4.83Z"/>
      <path d="M127.44,95.77a79.2,79.2,0,0,0-11.74,16c-2.09,3.82-4.21,9.24.28,12.3,3.58,2.43,8.5,1,11.14-2.07,3.84-4.43,2.82-12.3,7.92-15.6a2.54,2.54,0,0,0,.5-3.92l-4.27-5.07c-2.08-2.46-5.6,1.09-3.54,3.54L132,106l.5-3.92c-6.06,3.92-5,10.3-8.52,15.74-3.39,5.16-5.51.59-4-3.54a24.6,24.6,0,0,1,2.46-4.13A75.33,75.33,0,0,1,131,99.31c2.2-2.35-1.33-5.89-3.54-3.54Z"/>
      <path d="M116.21,118.91c-3.56-3.74-9.46-2.53-12.52,1.26-3.73,4.61-1.33,10.78,3.36,13.63,5.09,3.09,12.36,2.32,16.11-2.54a8.44,8.44,0,0,0-3.6-13.17c-3-1.15-4.31,3.68-1.33,4.82,3.32,1.28,1.54,5.31-.58,6.67a7.65,7.65,0,0,1-8.07-.1c-2.07-1.29-3.66-3.73-2.13-6,1.14-1.68,3.69-2.64,5.22-1,2.22,2.34,5.75-1.2,3.54-3.53Z"/>
      <path d="M112,90.35a79.84,79.84,0,0,1,35.07,18.28c2.39,2.14,5.94-1.38,3.54-3.53a85,85,0,0,0-37.28-19.57c-3.13-.75-4.46,4.07-1.33,4.82Z"/>
      <path d="M130.57,88.37a346,346,0,0,1,39-74.45c1.84-2.66-2.5-5.16-4.31-2.53A351.48,351.48,0,0,0,125.75,87c-1.14,3,3.69,4.32,4.82,1.33Z"/>
      <path d="M170.5,13.88,194,5c3-1.12,1.68-6-1.33-4.82L169.17,9.06c-3,1.13-1.69,6,1.33,4.82Z"/>
      <path d="M192.43,3l-2.64,20.37c-.41,3.18,4.59,3.15,5,0L197.43,3c.42-3.18-4.59-3.15-5,0Z"/>
      <path d="M190.07,24,142.93,95.08c-1.79,2.69,2.54,5.19,4.31,2.52l47.14-71.06c1.79-2.69-2.54-5.2-4.31-2.52Z"/>
      <path d="M136.33,92a455,455,0,0,1,32.81-53.58c1.87-2.63-2.46-5.13-4.31-2.52A454.3,454.3,0,0,0,132,89.52c-1.49,2.85,2.83,5.38,4.32,2.52Z"/>
      <path d="M124.23,115.34h3.38a2.5,2.5,0,1,0,0-5h-3.38a2.5,2.5,0,1,0,0,5Z"/>
      <path d="M125.92,106.9c3.22,0,3.22-5,0-5s-3.22,5,0,5Z"/>
    </g>
  </g>
</svg>
