<svg xmlns="http://www.w3.org/2000/svg" viewBox="0 0 122.54 250.39">
  <title>p_toque</title>
  <g id="Layer_2" data-name="Layer 2">
    <g id="Layer_1-2" data-name="Layer 1">
      <path d="M42.62,248c1.12-30.21,13.36-58.21,25.49-85.41H63.79A533.39,533.39,0,0,1,99,244.86c1,3,5.84,1.74,4.82-1.33A541.2,541.2,0,0,0,68.11,160c-.82-1.54-3.55-1.72-4.32,0-12.5,28.05-25,56.79-26.17,87.94-.12,3.21,4.88,3.21,5,0Z"/>
      <path d="M67.05,163.53A411.5,411.5,0,0,0,59.61,87c-.61-3.15-5.43-1.82-4.82,1.33a404.91,404.91,0,0,1,7.26,75.22c0,3.22,5,3.23,5,0Z"/>
      <path d="M51.11,91.46c.92.8-9.72,9.7-10.91,10.74L26.82,114,.81,136.9c-2.42,2.13,1.13,5.66,3.53,3.54L37.79,111c5.27-4.64,11.32-9,16-14.2,2.31-2.53,3.79-6.29.81-8.86-2.42-2.09-6,1.43-3.53,3.54Z"/>
      <path d="M53.81,88.76a553.73,553.73,0,0,0,64.9,34c2.92,1.29,5.47-3,2.53-4.31a554.66,554.66,0,0,1-64.91-34c-2.75-1.68-5.26,2.64-2.52,4.32Z"/>
      <path d="M71.93,35.56c10.36,16.52.75,38.85-16.44,46.16-3,1.26-.4,5.57,2.53,4.32,19.66-8.37,29.9-34.38,18.23-53-1.71-2.72-6-.21-4.32,2.53Z"/>
      <path d="M55,82.43c-13.09-2.91-34.49-5.36-35.26-22.56-.14-3.21-5.14-3.22-5,0,.9,20.25,23.11,23.86,38.93,27.38,3.14.7,4.48-4.12,1.33-4.82Z"/>
      <path d="M41.73,56.07c-1.69-.68-2.86-3.63-1.56-5.13,1-1.2,3.72-.67,4.25.84.6,1.68-2.21,3.17-3.36,1.87A2.5,2.5,0,0,1,40.93,51c.21-.34,1.15-.8,1.23-1.09s-.5-.68-.22-.77c-3.06,1-1.75,5.81,1.32,4.82a4.86,4.86,0,0,0,3.15-6.6,4.8,4.8,0,0,0-7-1.73,7.94,7.94,0,0,0-3.8,6.57,6.8,6.8,0,0,0,3.8,6.3c4.9,2.29,11.24-2.36,9.88-7.79-1.25-5-8.26-7.15-12.16-3.83-4.88,4.16-2.09,11.87,3.23,14,3,1.18,4.29-3.65,1.33-4.82Z"/>
      <path d="M41,51.12a53.91,53.91,0,0,0-21.56,7.14c-2.77,1.63-.26,6,2.52,4.32a48,48,0,0,1,19-6.46c3.16-.36,3.2-5.37,0-5Z"/>
      <path d="M66.34,49.65a7.14,7.14,0,0,1-5.78-2.73l.64,2.43c.58-1.66,2.5-4.05,4.55-3.29,1.54.58,2.24,2.7.4,3.33-3.32,1.14-6.48-3.28-5.54-6.24s4.88-2.25,6.41-.28c2.65,3.44-5.64,5.31-4.74.23l-1.15,1.49a2.58,2.58,0,0,1,3.3.87c2.08,2.47,5.6-1.09,3.54-3.53-2.32-2.75-9.68-4.42-10.62.45a7.86,7.86,0,0,0,7.14,9c4.17.2,8.35-3.26,8.06-7.6-.24-3.66-3.48-6.5-6.9-7.3a8.08,8.08,0,0,0-9.22,3.76C54.55,43.72,55.57,48.08,58,51c2.69,3.26,7.55,4.72,11.35,2.43s3.73-7.21.93-10.18C66.57,39.33,60.69,41,57.85,45a7.26,7.26,0,0,0-1.56,3.66c0,1.37,1.29,2.49,2.25,3.29a11.93,11.93,0,0,0,7.8,2.68c3.21,0,3.22-5,0-5Z"/>
      <path d="M68,46.09h8.45c3.21,0,3.22-5,0-5H68c-3.22,0-3.22,5,0,5Z"/>
      <path d="M42.92,48.24c2.49-.28,4.57.69,5.24,3.25a4.26,4.26,0,0,1-2.62,5.31c-3,1.1-1.7,5.94,1.33,4.82a9.46,9.46,0,0,0-3.95-18.38c-3.16.36-3.2,5.36,0,5Z"/>
      <path d="M43.53,57c-3-.66-5.31-4.67-3.1-7.35,2-2.47-1.49-6-3.54-3.54-4.44,5.41-1.7,14.17,5.31,15.72,3.13.69,4.47-4.13,1.33-4.83Z"/>
      <path d="M12.14,58.49c6.18-1.13,9.08-6.49,12.94-10.83A35.18,35.18,0,0,1,45.5,36.43c7.09-1.17,15.22,1.64,21.75-2.18,4.35-2.55,7.06-7.69,4.83-12.54C67.25,11.17,52.21,5.42,41.5,4.71,29.66,3.93,18.12,8.88,11.23,18.63,3.77,29.17,2.43,43.72,9.37,54.82c1.7,2.72,6,.22,4.31-2.52C6.85,41.37,9.51,26.71,18.46,17.73,28,8.17,43.36,7.62,55,13.35c4.86,2.38,18.65,11.32,9.69,16.58-4,2.34-9.31,1.08-13.66,1.08a41.2,41.2,0,0,0-8.43.9,39.76,39.76,0,0,0-16.54,7.92c-4.89,3.93-8.83,12.66-15.28,13.84-3.16.58-1.82,5.4,1.33,4.82Z"/>
      <path d="M11.78,47.85A52.81,52.81,0,0,1,64.87,24.6c3.15.56,4.5-4.26,1.33-4.83A58,58,0,0,0,7.46,45.33c-1.74,2.72,2.58,5.23,4.32,2.52Z"/>
      <path d="M13.85,19.7a16.83,16.83,0,0,0,4.53,13.57c2.2,2.36,5.73-1.18,3.54-3.54a12,12,0,0,1-3.07-10c.4-3.18-4.61-3.15-5,0Z"/>
      <path d="M27.48,17.06a4.84,4.84,0,0,1,5.15,3.42c.91,3.08,5.74,1.77,4.82-1.33a9.94,9.94,0,0,0-11.3-6.91,2.5,2.5,0,0,0-1.74,3.07,2.55,2.55,0,0,0,3.07,1.75Z"/>
      <path d="M36,9.62l11.62,7.09c2.75,1.68,5.27-2.64,2.52-4.31L38.51,5.3C35.76,3.62,33.24,7.94,36,9.62Z"/>
      <path d="M15.09,11.09c-2.47.25-5.36-3.42-3.15-5.46,1.72-1.58,5.41,0,5.52,2.3.14,3.21,5.14,3.22,5,0C22.16,1.42,13.28-2.73,8.4,2.1c-5,5-.3,14.7,6.69,14,3.17-.33,3.2-5.33,0-5Z"/>
    </g>
  </g>
</svg>
