<svg xmlns="http://www.w3.org/2000/svg" viewBox="0 0 79.4 73.73">
  <title>pants</title>
  <g id="Layer_2" data-name="Layer 2">
    <g id="Layer_1-2" data-name="Layer 1">
      <path d="M9.5,1.81l-6,38.95L.82,58.29c-.56,3.6-2,8.07,1.13,10.9,2.82,2.55,8.13,3.15,11.7,3.69,4.33.64,10.39,1.55,14.61,0,4.05-1.51,3.62-5.59,3.81-9.24.33-6.26.47-12.58,1-18.83.12-1.46,0-3.34.58-4.64C36,34.91,38.17,36,39.78,38.43c1.37,2.06,1.7,4.84,2.23,7.2a94.29,94.29,0,0,0,4.81,16c3,7,10,14.7,18.35,10.79,2.09-1,3.54-2.78,5.77-3.53,1.8-.6,3.7-.4,5.4-1.41,3.18-1.89,3.59-5.53,2.55-8.79-1.44-4.52-4.38-8.73-6.37-13a167,167,0,0,1-7-18C63,20.09,62.18,4.82,52.63,2.22,47.38.79,40.32,3.34,35.08,3.78a131.58,131.58,0,0,1-20.44.05c-3.21-.22-3.2,4.78,0,5a132.54,132.54,0,0,0,28.5-1c2.49-.36,5.7-1.51,8.16-.8,2.61.74,3.89,3.53,4.72,5.84,1.47,4.12,2.26,8.51,3.53,12.7a176.83,176.83,0,0,0,10.21,25.9C70.82,53.67,72,55.78,73.09,58c.56,1.13,1.65,4.23.23,5.45-.42.36-1.86.34-2.46.48C67,64.73,63.49,69,59.54,68.23c-9.6-1.89-11.33-18.61-13.23-26.31-1.24-5-4.27-11.6-10.64-10.23-7.89,1.69-7.53,11.63-7.85,17.81l-.75,14.12c0,.14.08,3.43-.2,3.77-.95,1.16-2.67.92-3.95,1A36.25,36.25,0,0,1,14.66,68c-2.2-.32-6.19-.6-8.06-1.91-2.76-1.93-.94-6.57-.51-9.37L8.78,39.17l5.55-36C14.81,0,10-1.36,9.5,1.81Z"/>
      <path d="M15.78,18.32c-1,3.25-1.92,6.84-.3,10.07a6.83,6.83,0,0,0,6.42,4,7.61,7.61,0,0,0,6.29-4.87c1.39-3.28.51-6.84-.46-10.11a2.59,2.59,0,0,0-2.41-1.83l-4.58-.36c-3.21-.25-3.19,4.76,0,5l4.58.36-2.41-1.84c.61,2.07,2.48,7.81-1,8.59-3.72.82-1.75-6.25-1.29-7.69,1-3.07-3.84-4.39-4.82-1.33Z"/>
      <path d="M43.64,18.86c-.27,4-.21,8.43,2.92,11.35,2.67,2.49,6.92,3.1,9.65.37,6-6-.42-15.75-7.86-15.69-3.22,0-3.23,5,0,5a5,5,0,0,1,4.36,2.41c.82,1.28,1.34,3.6-.06,4.72s-2.87-.35-3.5-1.56c-1-1.93-.65-4.51-.51-6.6.22-3.21-4.78-3.2-5,0Z"/>
    </g>
  </g>
</svg>
