<svg xmlns="http://www.w3.org/2000/svg" viewBox="0 0 93.52 98.97">
  <title>poop</title>
  <g id="Layer_2" data-name="Layer 2">
    <g id="Layer_1-2" data-name="Layer 1">
      <path d="M63.21,63.72C72,65.92,88,72.7,85.82,84.4c-2.09,11.17-20.54,8.77-28.72,9-5.67.17-11.35.39-17,.49-5.5.1-11.68.08-16.17-3.62-9.38-7.72-4.84-24.92,8.55-23,3.15.44,4.51-4.38,1.33-4.82a17.44,17.44,0,0,0-18.9,23.62c6.17,15.7,24.84,12.87,38.36,12.47,11-.32,33.16,2.63,37.22-11.69,4.32-15.27-14-25-25.93-27.93-3.12-.78-4.45,4-1.33,4.82Z"/>
      <path d="M24.65,61.64c-5.31-4,.41-10.88,4.38-12.93C34,46.12,39.94,45,45.32,43.5c3.09-.88,1.78-5.71-1.33-4.82-7.89,2.23-18.67,3.72-23.8,11C16.48,54.87,16.94,62,22.13,66c2.55,2,5.05-2.39,2.52-4.32Z"/>
      <path d="M35.71,36.45c-4.54-3.3,1.82-8.23,4.46-9.29C43,26,46.09,25.55,49,24.46c4.42-1.67,7.89-4.27,9.58-8.77L53.63,15c.1,5.68,3.91,9.39,8.44,12.3,2.84,1.81,6.19,3.16,8.45,5.75C73.94,37,72,43.42,66,41.35a2.51,2.51,0,0,0-3.16,2.42c.12,3.27,2.22,4.75,5.11,5.91,5.16,2.06,8.68,5.85,6.28,11.7-1.21,3,3.62,4.27,4.82,1.33a13,13,0,0,0-1-11.79,12.65,12.65,0,0,0-3.77-4c-1-.67-6.38-2.09-6.42-3.18l-3.17,2.41c7,2.4,14.64-3.79,12.65-11.25-1-3.62-3.91-6.34-6.87-8.41-4.26-3-11.68-5.34-11.79-11.5-.05-2.94-4-3.23-4.91-.66-3,8-15.77,6.12-21.27,11.87-4.07,4.25-4.09,11,.73,14.54,2.61,1.9,5.1-2.44,2.53-4.32Z"/>
      <path d="M91.11,34.61A12.77,12.77,0,0,0,93.18,24.2a12.45,12.45,0,0,0-2.29-4.83c-.36-.46-4.44-3.81-3.78-4.44,2.33-2.22-1.21-5.76-3.54-3.53s-2,5.79.24,8.14c1.75,1.86,3.69,2.83,4.43,5.47a8.09,8.09,0,0,1-1.45,7.08c-1.87,2.62,2.46,5.12,4.32,2.52Z"/>
      <path d="M25.45,11c-1.32-.57-1.27-2-.54-3.14C26,6.22,28.1,5.37,29.76,4.58c2.91-1.37.37-5.69-2.52-4.31-3.13,1.48-6.56,3.45-7.55,7-.83,3,.23,6.69,3.24,8s5.47-3,2.52-4.32Z"/>
      <path d="M12.56,49.84a14.22,14.22,0,0,0,1.95-12,13.81,13.81,0,0,0-2.58-5c-.91-1.11-8-6-6.37-7.31C8,23.5,4.48,20,2,22c-3.08,2.56-2.35,6.82.22,9.47,2.25,2.33,5.36,3.16,6.87,6.25a9.26,9.26,0,0,1-.87,9.58c-1.8,2.67,2.53,5.18,4.32,2.52Z"/>
      <path d="M27.16,86.27c3.22,0,3.22-5,0-5s-3.22,5,0,5Z"/>
      <path d="M28.18,77.09c3.22,0,3.22-5,0-5s-3.22,5,0,5Z"/>
      <path d="M38.38,88.31c3.22,0,3.22-5,0-5s-3.22,5,0,5Z"/>
      <path d="M73.08,90.35c3.21,0,3.22-5,0-5s-3.23,5,0,5Z"/>
      <path d="M78.18,80.15c3.22,0,3.22-5,0-5s-3.22,5,0,5Z"/>
      <path d="M29.2,56.68c3.22,0,3.22-5,0-5s-3.22,5,0,5Z"/>
    </g>
  </g>
</svg>
