<svg xmlns="http://www.w3.org/2000/svg" viewBox="0 0 95.86 107.42">
  <title>potion 1</title>
  <g id="Layer_2" data-name="Layer 2">
    <g id="Layer_1-2" data-name="Layer 1">
      <path d="M37.16,24.05c1.54,11.3-17.74,12.13-24.35,16.44C5.58,45.2,2.54,53.83,1,61.93-.66,70.8-.68,80.37,4.24,88.27c4,6.41,10.41,10.72,17.3,13.54,14.8,6.08,34,7.56,49.33,2.75,16.69-5.24,26.21-19.9,24.86-37.29-.75-9.69-4-20-10-27.79a22.34,22.34,0,0,0-9.95-7.56c-5-1.84-18.64-2.38-16.75-10.78.71-3.14-4.11-4.48-4.82-1.33-1.5,6.66,3.33,11.83,9.31,14,4.73,1.71,10,1.75,14.21,4.75,3.89,2.76,6.38,7,8.35,11.31C93.52,66,93.33,87.65,76,97.05c-13.74,7.44-32.68,6.26-47.23,2-7.57-2.22-15.32-6-19.81-12.75-5.67-8.52-4.45-19.77-1.63-29.1,1.52-5,4.06-10,8.72-12.83,4.48-2.67,9.84-3.32,14.63-5.27C37.54,36.28,43,30.51,42,22.72c-.43-3.18-5.25-1.83-4.83,1.33Z"/>
      <path d="M5.41,68.6l7.13-3c3-1.25,4.91-2.28,7.7-.16s4.89,4.7,8.37,6.31a25.18,25.18,0,0,0,19.22.88c7.06-2.62,12.87-9,20.38-10.28,8.21-1.46,14.88,6.12,22.53,7.91,3.13.73,4.47-4.09,1.33-4.82-7.43-1.74-13.12-7.94-21-8.27S57,62.21,50.6,65.82c-8,4.49-17.8,4.61-24.87-1.84-2.48-2.26-4-5.38-7.72-5.38-4.5,0-9.84,3.47-13.93,5.18C1.15,65,2.43,69.84,5.41,68.6Z"/>
      <path d="M28.07,90.51c0-.16,0-.37,0-.09,0-.48-.05,0,.07-.2s-.2.21.07-.1-.14.06.18-.16c.11-.08.29-.23.1-.07l.24-.07c-.21,0-.23,0-.05,0s.17,0,0,0-.11,0,0,0,.16,0,0,0a.33.33,0,0,1-.22-.16c.11.17.21.17.05,0a1.83,1.83,0,0,1,.23.38c-.2-.4,0,0,0,.14.05.4,0-.39,0,0,0,.23,0,.48,0,.12a3.45,3.45,0,0,1-.12.43c.15-.38-.16,0,0-.08l-.28.21a2.52,2.52,0,0,0,0,3.54,2.57,2.57,0,0,0,3.54,0c2.82-2.24,2.22-7.16-.81-8.92-3.54-2-8.29,1-8.13,5a2.5,2.5,0,0,0,5,0Z"/>
      <path d="M70.52,76.89c.29-.08.12.16.2.12s.3-.64.51-.81a2.34,2.34,0,0,1,2.1-.31,2.31,2.31,0,0,1,1.06,3.65c-2,2.46,1.46,6,3.53,3.54,4.17-5,.83-12.84-6-12.26-3.1.27-6.1,2.66-6.21,6a4.88,4.88,0,0,0,6.11,4.94c3.09-.87,1.78-5.69-1.33-4.82Z"/>
      <path d="M33.27,54.28c3.21,0,3.22-5,0-5s-3.22,5,0,5Z"/>
      <path d="M43.47,49.18c3.22,0,3.22-5,0-5s-3.22,5,0,5Z"/>
      <path d="M42.45,59.38c3.22,0,3.22-5,0-5s-3.22,5,0,5Z"/>
      <path d="M36.22,12.22a41.7,41.7,0,0,1,7,13.65c.91,3.08,5.74,1.77,4.82-1.33A45.38,45.38,0,0,0,40.53,9.7c-1.93-2.52-6.28,0-4.31,2.52Z"/>
      <path d="M39.05,7.33c2.2-.54,5-1.64,7.25-1.61Q48.67,4.58,50.15,7q.1,1.77.15,3.54a91.1,91.1,0,0,1-1,15.21c-.46,3.15,4.36,4.51,4.82,1.33a101.26,101.26,0,0,0,1.16-13c0-3.36.51-7.58-.59-10.78-2.16-6.32-12.8-1.84-17-.8-3.12.77-1.8,5.6,1.33,4.82Z"/>
    </g>
  </g>
</svg>
