<svg xmlns="http://www.w3.org/2000/svg" viewBox="0 0 75.04 120.56">
  <title>potion 2</title>
  <g id="Layer_2" data-name="Layer 2">
    <g id="Layer_1-2" data-name="Layer 1">
      <path d="M10.38,30.16a422.76,422.76,0,0,1-8.3,74.65C1.35,108.36-1,113.74.47,117.37c1.62,4,6.32,3.17,9.82,3l37.77-2,17.89-1c3-.16,7.45.37,8.78-3.12,1.06-2.77-.87-5.35-2.41-7.45a66.41,66.41,0,0,1-9.17-16.49,322.43,322.43,0,0,1-10-33.92Q51,48,49.25,39.57c-.89-4.17-.89-10.72-4.62-13.59A8.54,8.54,0,0,0,40,24.55c-2.09-.2-4,.18-5.58-1.54-1.26-1.41-1.49-3.55-2.13-5.27-1.17-3.15-3.14-6.69-6.61-7.7A6.42,6.42,0,0,0,17.93,14c-1.21,2.93,1.31,13.08-1.9,14.1-3.05,1-1.75,5.8,1.33,4.82,6.34-2,5.07-8.35,4.86-13.59,0-.47-.2-2.49.16-2.95,1.35-1.7,3.43-.44,4.19.82,1.06,1.76,1.39,3.88,2.16,5.76,1.05,2.59,2.56,5,5.26,6.09,1.52.6,2.81.38,4.38.58,3.63.45,4.25,2.49,4.9,5.66q1.51,7.53,3.24,15,3.5,15,8,29.66c2.55,8.4,5.19,17,9.9,24.52,1,1.61,2.15,3.11,3.31,4.62.51.67,1.46,1.41,1.67,2.26.53,2.12,1.15.1-.43.9s-6.08.32-8,.42l-8.94.48-31.81,1.69c-2.91.16-12.91,2-14.44-.16-1.07-1.51.33-4.79.71-6.61.67-3.17,1.29-6.36,1.88-9.55a430.65,430.65,0,0,0,7-68.34c.08-3.22-4.92-3.22-5,0Z"/>
      <path d="M14.59,69c2.29-8.39,12.63-6.43,18.79-4.59s11.56,3.46,17.89,2.43c3.16-.52,1.82-5.34-1.33-4.82-9.53,1.55-18-5.25-27.59-4.25-5.85.61-11,4.1-12.59,9.9-.85,3.11,4,4.44,4.83,1.33Z"/>
      <path d="M20.64,81.15c-1.59-1.74.22-4.78,2.51-3.66,2.72,1.34.82,4.86-1.79,4.14-3.11-.87-4.43,4-1.33,4.82a7.66,7.66,0,0,0,8.88-4.14,7.07,7.07,0,0,0-3.33-9.18,7,7,0,0,0-9.19,2.13,7.68,7.68,0,0,0,.71,9.42c2.18,2.38,5.71-1.16,3.54-3.53Z"/>
      <path d="M48.46,95.53c.09-1.42,1.66-.67,2.15,0a3.67,3.67,0,0,1,.33,3.3c-.34.82-1,1.38-1.85,1.08-.6-.21-1.58-1.06-1.19-1.75,1.56-2.82-2.76-5.34-4.32-2.53-1.88,3.41.07,7.33,3.47,8.81,3.67,1.6,7.53-.58,8.72-4.28,1.14-3.54-.22-8-3.6-9.84-4-2.14-8.43.93-8.71,5.17-.22,3.21,4.78,3.19,5,0Z"/>
      <path d="M11.57,8.8l8.9,14.46c1.69,2.74,6,.23,4.32-2.52L15.89,6.28c-1.69-2.74-6-.23-4.32,2.52Z"/>
      <path d="M12.43,5.47c2.23-.18,4.46-.33,6.7-.4s5.28-.59,7.38,0c1.57.45.2-1,.84.63.31.78-.31,2.61-.41,3.42-.34,2.73-.73,5.46-1.14,8.19-.48,3.15,4.34,4.51,4.82,1.33Q31.4,13.54,32,8.43c.29-2.4.95-5.19-1-7C29.15-.32,26.12,0,23.83,0,20,0,16.22.16,12.43.47c-3.18.27-3.21,5.27,0,5Z"/>
    </g>
  </g>
</svg>
