<svg xmlns="http://www.w3.org/2000/svg" viewBox="0 0 87.58 94.56">
  <title>scroll</title>
  <g id="Layer_2" data-name="Layer 2">
    <g id="Layer_1-2" data-name="Layer 1">
      <path d="M7.22,25.16C4.47,23,3.84,18,8.3,17.15c3.57-.68,5.62,3,6.68,5.65,1.55,3.9,2.1,8.36,2.52,12.48.9,8.89.44,17.85.74,26.77.25,7.79.94,15.87,3.65,23.24,2.15,5.87,7,6.81,12.46,4.7,3.58-1.39,6.83-3.3,10.53-4.44,4.81-1.47,9.78-2.45,14.66-3.6l13.21-3.11c2.12-.5,5.41-2,7.55-1.78l1.89-.45a2.44,2.44,0,0,1-1.55,3c-3.11,2.34-7.71,2.67-11.4,3.3l-13.45,2.3-13.45,2.3-7.68,1.31c-.54.09-8.74,1.47-8.4.41,1-3.07-3.83-4.39-4.82-1.33-2.63,8.19,8.18,6.83,12.63,6.07L64.8,88.72c6.69-1.15,16.34-1.31,21-7.17,2.92-3.67,2.53-10-3.17-10-4.19,0-9,2-13.08,2.95l-17,4A84.3,84.3,0,0,0,38.41,82.6c-1.6.69-3.11,1.55-4.7,2.26-3.66,1.62-6.62.6-7.81-3.43-5.56-18.85,0-39.08-5.45-57.95C18.59,17.05,13.33,9.76,5.72,12.75c-6.87,2.7-7.56,11.56-2,16,2.49,2,6.05-1.54,3.53-3.54Z"/>
      <path d="M75.73,72.55c-5.2-3.69-7-11.47-9-17.19a111.12,111.12,0,0,1-5-18.42C60,27,63.65,12.83,56.84,4.35,54,.85,49.94.64,45.76.37A100.3,100.3,0,0,0,27.34.48C17.4,1.7,8.25,5.77,2.15,13.9.22,16.48,4.56,19,6.47,16.43,13.09,7.59,24.41,5.12,34.88,5c4.37,0,14.27-1.11,17.65,2,3.95,3.57,3.28,11.63,3.28,16.45a93.74,93.74,0,0,0,4.93,29.82c2.68,8.14,5.11,18.42,12.46,23.64,2.63,1.86,5.13-2.47,2.53-4.32Z"/>
      <path d="M8.52,28.45l6.17-2.94a2.52,2.52,0,0,0,.9-3.42,2.56,2.56,0,0,0-3.42-.9L6,24.13a2.51,2.51,0,0,0-.89,3.42,2.55,2.55,0,0,0,3.42.9Z"/>
      <path d="M28.35,26.68l16.37-3.89c3.13-.74,1.8-5.56-1.33-4.82L27,21.86c-3.13.74-1.81,5.57,1.33,4.82Z"/>
      <path d="M28.72,37a27.77,27.77,0,0,0,15.6-3.26c2.85-1.51.32-5.83-2.52-4.32A23,23,0,0,1,28.72,32c-3.21-.27-3.19,4.73,0,5Z"/>
      <path d="M33.49,50.37l7.13-1.09a2.52,2.52,0,0,0,1.75-3.07,2.58,2.58,0,0,0-3.08-1.75l-7.13,1.09a2.51,2.51,0,0,0-1.75,3.07,2.57,2.57,0,0,0,3.08,1.75Z"/>
      <path d="M38.55,70.55l20.37-3.3c3.17-.51,1.83-5.33-1.33-4.82l-20.36,3.3c-3.17.51-1.83,5.33,1.32,4.82Z"/>
    </g>
  </g>
</svg>
