<svg xmlns="http://www.w3.org/2000/svg" viewBox="0 0 334.76 385.52">
  <title>skeleton</title>
  <g id="Layer_2" data-name="Layer 2">
    <g id="Layer_1-2" data-name="Layer 1">
      <path d="M116.61,70.86c2.43,7.77,9.54,12.63,17.49,13.51,5.74.64,11.51-.65,16.91-2.51,3.49-1.2,8-2.43,9.7-6.1,3.37-7.35-9.52-14.87-2.88-20.86,3.18-2.87,7.74-4,11.21-6.48a17.74,17.74,0,0,0,6.25-8c7-17.66-8.87-32.14-24.29-36.64C134.68-1,110.28-4.78,103.28,15.34c-3.38,9.72-2.19,20.74,2.43,29.85,2.43,4.79,6.24,7.84,9.38,12,3.67,4.89-2.38,10.39.83,15.72,1.66,2.76,6,.25,4.32-2.52s1.58-7.5,1.28-10.65c-.26-2.84-1.94-5.07-3.81-7.09-5.87-6.34-10.23-12.91-11.17-21.76-.88-8.23.95-19.2,8.86-23.56,7.18-4,16.82-2.18,24.49-.9,14.35,2.41,32.64,9.26,31.84,26.85-.38,8.23-5.86,11.27-12.36,14.77-4.64,2.5-9.19,5.94-8.58,11.81.3,2.88,1.89,5.39,3.32,7.83,1.19,2,2.64,3.63,1.5,5.88s-4.36,2.93-6.81,3.74c-9.38,3.09-23.68,4-27.37-7.8-1-3.06-5.78-1.76-4.82,1.33Z"/>
      <path d="M132.41,59.89V78.48c0,3.21,5,3.22,5,0V59.89c0-3.22-5-3.22-5,0Z"/>
      <path d="M141.71,61.65A10.92,10.92,0,0,0,141.5,77c2.23,2.32,5.77-1.22,3.53-3.54a5.83,5.83,0,0,1,.22-8.23c2.32-2.24-1.22-5.77-3.54-3.54Z"/>
      <path d="M125.64,28.55c1.8-3.6,7.67-4.73,10.22-1.21l.39-3-3,3.5c-2.07,2.44,1.45,6,3.53,3.54l3-3.51a2.56,2.56,0,0,0,.39-3C135.59,18.49,125,18.75,121.33,26c-1.43,2.87,2.88,5.41,4.31,2.52Z"/>
      <path d="M157.55,30.24c-1.84-.46-1.45-3.92.1-4.63,2.94-1.35,4.35,3.89,3.23,5.75-1.68,2.76,2.65,5.28,4.31,2.53,3.61-5.94-2.08-16-9.47-12.87-5.71,2.45-6,12.42.5,14,3.12.78,4.45-4,1.33-4.82Z"/>
      <path d="M110.43,100.61A75.11,75.11,0,0,0,89.72,113c-4.06,3.45-14,11.27-12.49,17.56,1.7,6.94,12.38,4.07,17,3.52q16.36-2,32.71-4c3.15-.39,3.19-5.39,0-5q-11.06,1.38-22.12,2.72l-10.59,1.28c-2.64.31-7.65,2-10.13,1-3.82-1.61,1.84-6.37,3.44-8.09a67.4,67.4,0,0,1,6.33-6,68.91,68.91,0,0,1,17.89-10.59c3-1.19,1.66-6-1.32-4.82Z"/>
      <path d="M113.58,115.42a67,67,0,0,0-27.46,17.76c-5.55,6-15.77,17.76-10.8,26.43,5.79,10.13,20.05,6.68,29.28,4.87a156.09,156.09,0,0,0,38.27-13c2.89-1.4.36-5.72-2.52-4.31a151.4,151.4,0,0,1-28.24,10.48c-4.68,1.22-9.42,2.22-14.2,3-5,.8-12.41,2.39-16.58-1.55-7-6.57,6-20.25,11-25a61.55,61.55,0,0,1,22.61-13.78c3-1,1.72-5.88-1.33-4.82Z"/>
      <path d="M117.86,142.48c-13,.58-33.79,4.22-32.79,21.7.74,13,16,17.7,26.86,16.19,3.18-.45,1.82-5.27-1.33-4.83-8.1,1.13-21-2.58-20.55-12.78.57-13.33,18-14.84,27.81-15.28,3.21-.15,3.22-5.15,0-5Z"/>
      <path d="M153.43,111.61c13.09-6.65,29.08,0,32.85,14.41.45,1.71,1.43,4.54-.25,5.92-.79.65-3.8,0-4.71,0a91.61,91.61,0,0,1-11.21-1.3,98,98,0,0,1-22.2-6.89c-2.91-1.3-5.46,3-2.52,4.31a102.57,102.57,0,0,0,31.34,8.52c3.77.39,9.61,1.65,12.9-.9,2.77-2.16,2.45-5.68,1.92-8.8-3.19-18.9-24.08-28-40.64-19.58-2.87,1.46-.35,5.77,2.52,4.32Z"/>
      <path d="M163.18,122.58a37.31,37.31,0,0,1,22.12,30.89l2.5-2.5a115.84,115.84,0,0,1-38.73-5.58c-3.07-1-4.39,3.83-1.33,4.82A120.13,120.13,0,0,0,187.8,156a2.54,2.54,0,0,0,2.5-2.5,42.21,42.21,0,0,0-24.6-35.2c-2.91-1.31-5.45,3-2.52,4.31Z"/>
      <path d="M161.42,147.9a38,38,0,0,1,15.81,7.76c2.84,2.4,12.67,11.63,8.65,15.59-1.68,1.65-6.57,1.05-8.68,1q-5.73,0-11.44-.57a133.77,133.77,0,0,1-21.85-4c-3.12-.82-4.45,4-1.33,4.82a139.51,139.51,0,0,0,29.85,4.63c5.61.23,16.71,1.69,19.19-5.42,2.15-6.16-4.71-13.76-8.69-17.66a42.93,42.93,0,0,0-20.18-11c-3.13-.74-4.47,4.08-1.33,4.82Z"/>
      <path d="M56.18,146.28c16.16,6.15,22.47,25.71,24.9,41.31,1.56,10,.9,20.67-5.62,28.84a35.09,35.09,0,0,1-17.38,11.32c-35.5,10.6-60.78-31.23-50.77-62.16,2.86-8.83,8.78-17.23,17.77-20.54,11.31-4.15,23.67.16,34.47,3.88,3.05,1,4.36-3.78,1.33-4.82-11-3.78-23-7.66-34.64-4.63C17.18,141.83,10,148.42,5.7,156.59-3.23,173.54-1.19,194.87,8.51,211s27.12,26,46,22.69c18.15-3.17,31.77-17.18,32.31-35.88.61-20.59-8.41-48.44-29.29-56.38-3-1.15-4.32,3.69-1.33,4.82Z"/>
      <path d="M87.18,98.2c-17,3.49-22.56,21.21-26,36-.73,3.13,4.09,4.47,4.82,1.33,3-13.06,7.3-29.41,22.49-32.53,3.15-.65,1.82-5.47-1.33-4.82Z"/>
      <path d="M84.94,102.74a3,3,0,0,1,4.13-.19c1.77,1.75-.37,5-3,4.78-2.15-.21-3.31,2.89-1.76,4.27,3.42,3.07,3.64,9.28-.43,12.07-3.55,2.43-7.64,2.16-10.65,5.69-4,4.69-4.87,15.59-11.68,17-3.15.64-1.82,5.46,1.33,4.83C74,148.9,71.6,133.34,81.74,129.81c4.92-1.71,8.58-4.07,9.81-9.49a12.56,12.56,0,0,0-3.74-12.26L86,112.33c5.86.57,11.21-5.58,8.45-11.23-2.45-5-9.29-5.43-13.09-1.9-2.36,2.2,1.18,5.73,3.54,3.54Z"/>
      <path d="M72.77,107.31c-.37-8.76,8.21-13.59,16-13.9,3.92-.15,22,.79,22.43,6.89.19,3.19,5.2,3.22,5,0-.28-4.44-3.31-6.94-7.28-8.47a53.69,53.69,0,0,0-20.15-3.42c-10.44.43-21.49,7.33-21,18.9.14,3.2,5.14,3.22,5,0Z"/>
      <path d="M155.3,121.36a31.61,31.61,0,0,1-4-22.54l-1.74,1.75c5-2,10.86-4.24,16.35-3.15,7,1.38,8.82,8,7.11,14.17-3.06,11-15.35,16.13-23,23.53l4.17,1.11-2.09-7.64c-.85-3.09-5.67-1.78-4.82,1.33l2.09,7.63a2.53,2.53,0,0,0,4.18,1.11c7.32-7.11,17.79-11.86,22.53-21.32,3.64-7.26,4-17.13-3.24-22.33-3.58-2.58-8-3.14-12.33-2.68-3.59.39-10.38,1.34-13.15,3.87s-1.85,9.87-1.49,13A37.06,37.06,0,0,0,151,123.89c1.64,2.76,6,.25,4.32-2.53Z"/>
      <path d="M189.59,130.21l-1.72-5.05a2.57,2.57,0,0,0-3.08-1.75,2.52,2.52,0,0,0-1.74,3.08l1.72,5a2.56,2.56,0,0,0,3.07,1.75,2.52,2.52,0,0,0,1.75-3.08Z"/>
      <path d="M185.61,119a14,14,0,0,1-.64-16.21l-4.66-1.26a14.48,14.48,0,0,0,7.08,11.79,13.57,13.57,0,0,0,6.19,1.89,21.8,21.8,0,0,0,3.42-.27c3.17-.38,4.44.15,5,3.15s-.42,7.2-.39,10.42a105.94,105.94,0,0,0,.76,11.81,109.23,109.23,0,0,0,4.6,21.08c1.12,3.39,2.47,6.67,3.76,10,1.23,3.16,3.34,7.49,3.09,10.94-.57,7.88-6.45-.78-7.95-3.23q-2.91-4.79-5.38-9.82a119.71,119.71,0,0,1-11.66-43.41c-.24-3.18-5.24-3.21-5,0a126,126,0,0,0,13.9,49c2.87,5.47,6.46,14,12.93,16,6,1.84,8.53-3.37,8.16-8.54-.61-8.38-5.14-16.08-7.58-24a104.41,104.41,0,0,1-4.6-28c-.12-4.48.73-9.14.35-13.59a7.57,7.57,0,0,0-2.61-5.63c-2.92-2.28-6.14-1-9.45-.91a9.27,9.27,0,0,1-9.58-8.67,2.52,2.52,0,0,0-4.65-1.27,19.09,19.09,0,0,0,1.42,22.27c2,2.53,5.49-1,3.53-3.53Z"/>
      <path d="M113.66,207.82c-6.51-2.31-10.32-9.94-6.87-16.28,3-5.46,8.9-7.18,14.64-5.62,8.65,2.36,16.47,9.53,26,7.38,4.69-1.06,10.92-6.34,14.32-.44,2.79,4.86.49,10.2-3.63,13.32-4.51,3.4-10.26,4.67-15.61,6.08-3.05.8-22.14,7.32-21.2.66.45-3.15-4.37-4.51-4.82-1.33-2.32,16.42,23.27,6.64,30.47,4.67,10.11-2.77,22.91-8.57,20.72-21.27-.71-4.16-3.31-8.35-7.54-9.63-6.52-2-11.9,4.18-18.44,3.17-11.55-1.77-21.8-13.47-33.74-5.46s-8.41,25,4.39,29.57c3,1.08,4.34-3.75,1.33-4.82Z"/>
      <path d="M112.15,199.85c.77-1,1.79-2.53,3.08-2.94a1.16,1.16,0,0,1,1.1,0c.59.33.29.69.53.19L119,195.9l-4.39,0c-3.21,0-3.22,5,0,5l4.39,0a2.47,2.47,0,0,0,2.16-1.24c1.6-3.38-.61-6.94-4.16-7.74-4-.92-7,2.53-9.19,5.41a2.52,2.52,0,0,0,.9,3.42,2.56,2.56,0,0,0,3.42-.9Z"/>
      <path d="M157,203.57l1.69-1.69a2.5,2.5,0,0,0-3.54-3.54L153.41,200a2.54,2.54,0,0,0,0,3.54,2.56,2.56,0,0,0,3.54,0Z"/>
      <path d="M110.56,214a131.17,131.17,0,0,0-17.39,42.44c-.75,3.53-1.34,7.1-1.81,10.68-.55,4.32.08,7.68-4.25,9.64-3,1.38-7.26,2.73-5.67,7.07,3.09,8.41,16.21,8.55,22.17,3.87,4.23-3.32,5.33-8.53,4.84-13.69-.71-7.38-2.82-13.78-.16-21.06,4.35-11.87,15.18-22.73,11.18-36.26-.91-3.08-5.74-1.77-4.82,1.33,3.68,12.43-8,23.65-11.61,34.85-2.12,6.65-.88,12.55.15,19.26,1.13,7.39-1.46,14.31-10,13.69-1.12-.08-7.44-1.6-6.94-3.6.13-.52,5.18-1.63,6.16-2.31,4.77-3.35,3.72-12,4.57-17a127.22,127.22,0,0,1,17.87-46.4c1.72-2.74-2.6-5.25-4.31-2.53Z"/>
      <path d="M158.47,236c-5.72.24-9.63-4.35-10.74-9.66a28.42,28.42,0,0,1-.42-7.65c.12-2-.3-2.84,1.74-3.43,1.82-.54,2.3.18,3.84,1.07,6.37,3.71,13.28,3.41,19.05-1.32h-3.53c4,3.85,1.05,9.28-.45,13.55a22,22,0,0,0-1.35,10.81c1.32,9.15,8,16.08,10.83,24.64,1.37,4.11,2.84,12.75-2.5,15.08-5.91,2.59-9.19-8.22-10.35-11.8a77.3,77.3,0,0,1-3.34-30c.25-3.21-4.75-3.2-5,0-1,12.86.49,27.42,6.56,39,4.41,8.44,14.86,11.7,19.47,1.41,5.17-11.52-4.15-22.36-8.6-32.26-1.79-4-2.92-8.26-1.86-12.61.74-3,2.29-5.83,3-8.87,1.11-4.56.54-9.16-2.91-12.51a2.56,2.56,0,0,0-3.53,0c-3.79,3.1-8.28,3.17-12.43.88-2.11-1.17-4.14-2.72-6.61-3-4.88-.57-6.54,3.55-6.94,7.67-1,10.52,3.08,24.52,16,24,3.21-.13,3.22-5.13,0-5Z"/>
      <path d="M74.54,291.82a328.51,328.51,0,0,0-9.41,62.28q-.41,7.68-.45,15.36c0,3.26-.37,7.34,2.19,9.84,4.86,4.76,11-1.16,13.7-5.26H76.25l2.87,4.74a2.53,2.53,0,0,0,3.42.89c10.69-6.19,12.16-19.67,5-29-6.15-8-4.22-19.06-4.26-28.66l-.15-28.93c0-3.22-5-3.22-5,0l.13,25.07c0,8.1-.61,16.55.33,24.61A18.23,18.23,0,0,0,81,350.26c1.8,2.93,4.48,5.16,5.57,8.52A14.42,14.42,0,0,1,80,375.36l3.42.89-2.86-4.73a2.53,2.53,0,0,0-4.32,0c-.63,1-2.4,3.61-3.66,3.92-3.59.89-2.91-3.5-2.91-5,0-3.52.07-7,.19-10.56q.39-11,1.53-22a322.11,322.11,0,0,1,8-44.68c.78-3.13-4-4.46-4.82-1.33Z"/>
      <path d="M176.51,288l-3.22,61.53c-.34,6.35-1.49,14.58,4,19.21,3.55,3,9.43,3.52,12.47-.46,1.88-2.47,1.74-5.48,1.34-8.4a23.29,23.29,0,0,1-.62-5.18c.25-2.77,1.86-4.8,3.11-7.14a52.23,52.23,0,0,0,5.77-19.36,53.76,53.76,0,0,0-12.43-39.91c-2.08-2.47-5.6,1.09-3.53,3.53a48.67,48.67,0,0,1,11.17,33.46,46.6,46.6,0,0,1-4.31,17.79c-2.42,5.12-5.28,8.64-4.54,14.55.34,2.75,2.25,9.28-3.29,8.21-4.1-.78-4.42-6-4.45-9.28-.07-7.61.75-15.3,1.15-22.9L181.51,288c.17-3.22-4.84-3.21-5,0Z"/>
      <path d="M57.17,376.41a12.3,12.3,0,0,1-9.79-3.89c-2.11-2.08-3.35-2.17-6.58-2a23.8,23.8,0,0,0-15.09,6.66c-1.07,1-1,3.3.5,3.93a28,28,0,0,0,21.56.61c3-1.14,1.69-6-1.33-4.83a23.06,23.06,0,0,1-17.7-.1l.5,3.93A19.06,19.06,0,0,1,37.59,376c3.61-.9,5.15-.72,7.81,1.52a16.85,16.85,0,0,0,11.77,3.88c3.21-.11,3.23-5.12,0-5Z"/>
      <path d="M17.75,370.24a1,1,0,0,1-1.42-1.11c.1-.95,1.47-1.28,2.21-1.28,2.69,0,3.89,3.06,4.37,5.24.7,3.14,5.52,1.81,4.82-1.33-1.32-5.94-7.34-11.63-13.51-7.65a6,6,0,0,0-2.32,7.52c1.22,2.7,4.26,4.54,7.18,3.43s1.69-6-1.33-4.82Z"/>
      <path d="M52.47,368.35c-.4.23-.49-.1-.6-.32v2.53c.41-.58,1.48-.45,2.15-.19a1.9,1.9,0,0,1,1.47,2.18c-.18,1.34,1.28,2.5,2.5,2.5a2.56,2.56,0,0,0,2.5-2.5c.42-3.19-2-5.84-4.85-6.88A6.75,6.75,0,0,0,47.55,368a2.54,2.54,0,0,0,0,2.53A5.42,5.42,0,0,0,55,372.67c2.81-1.57.29-5.89-2.53-4.32Z"/>
      <path d="M15.7,376.74c0,.09-.17.35,0,.13a2.27,2.27,0,0,1-.28.45c.11-.14-.42.32-.34.28s-.43.25-.29.18-.27.09-.32.11-.5.09-.31.07-.47,0-.46,0l2.16,1.24c-.18-.28,0,0,0,.12-.06-.57,0,.43,0,.1s-.11.51,0,.18c0-.07.14-.43,0-.09s0-.08.1-.14c-.11.1-.3.29-.06.09l.25-.25c.3-.32-.24.13,0,0a2,2,0,0,0,.32-.18c.14-.16-.32.05-.11,0a1.86,1.86,0,0,0,.42-.12l-.32,0,.17,0h.33c-.11,0-.54-.05-.19,0-.66-.12,0,.05-.29-.12s.16.34-.18-.17a2.56,2.56,0,0,0,3.42.89,2.53,2.53,0,0,0,.9-3.42C18,372.36,12.25,374,11,378a4.38,4.38,0,0,0,.05,2.77,3.1,3.1,0,0,0,1.63,1.94,4.33,4.33,0,0,0,2.42.11,6.94,6.94,0,0,0,5.42-4.76,2.5,2.5,0,1,0-4.82-1.33Z"/>
      <path d="M183.65,378.43c-2.55-1.74,2.69-3.58,4-3.64,1.55-.08,3.1.2,4.64.27a36.71,36.71,0,0,0,25.26-8.26l-3.92-.51c2.16,4.09-1.4,8.27-5.13,9.67s-8.18,1-12.15.87c-6-.19-11.91.13-16.82,3.88-2.52,1.93,0,6.27,2.53,4.32,8.63-6.61,20.25-.42,29.64-5,6.05-3,9.54-10,6.24-16.24-.83-1.57-2.72-1.44-3.92-.51a32.27,32.27,0,0,1-15.76,6.61c-4.67.58-9.72-.94-14.26.4-5.52,1.62-8,9-2.86,12.48,2.66,1.82,5.17-2.51,2.52-4.32Z"/>
      <path d="M207.6,364c.32-.32-.51.32-.15.1s-.53.18-.25.11-.7.05-.31,0-.09.14-.25,0l.31.09c-.11,0-.58-.32-.24-.08a.91.91,0,0,0,.24.16c-.54-.18-.32-.34-.15-.09.06.09.3.38,0,0s0-.06,0,0a2.11,2.11,0,0,0,.16.3c-.11-.06-.24-.66-.11-.19s-.06-.59,0-.29,0-.23,0-.31c-.11.4.3-.58.1-.2s.42-.47.1-.15a2.5,2.5,0,0,0,3.53,3.53,4.66,4.66,0,0,0-6.57-6.54A2.5,2.5,0,1,0,207.6,364Z"/>
      <path d="M229.83,372.13a2.87,2.87,0,1,1,4.23-3.84v-2.53a4.39,4.39,0,0,1-3.45,2.61c-3.16.57-1.82,5.39,1.33,4.82a9,9,0,0,0,6.43-4.9,2.49,2.49,0,0,0,0-2.53c-2.67-3.61-7.92-4.77-11.57-1.8s-3.6,8.47-.51,11.7c2.23,2.33,5.77-1.21,3.54-3.53Z"/>
      <path d="M221.14,358.83l-1.69-1.69a2.5,2.5,0,1,0-3.53,3.54l1.69,1.69a2.5,2.5,0,1,0,3.53-3.54Z"/>
      <path d="M217.61,357.3,219.3,359a2.5,2.5,0,1,0,3.53-3.54l-1.69-1.69a2.5,2.5,0,1,0-3.53,3.54Z"/>
      <path d="M208.53,200.56a397.56,397.56,0,0,0,7.57,42.91c1.94,8.74,3.15,22.7,13.76,25.25,2,.48,4.11-1.78,2.82-3.67-4.28-6.3-9.18-13.54-9.45-21.42-.23-6.86,5.39-11.51,5.65-18.16.44-11-11.12-17.7-13.58-27.78-.76-3.12-5.58-1.8-4.82,1.33,2.65,10.87,17.67,19.85,11.6,31.62-2.86,5.55-4.57,10.46-3.41,16.8,1.36,7.39,5.54,14,9.7,20.13l2.82-3.67c-5-1.2-6.68-6.52-7.81-10.95-1.41-5.46-2.53-11-3.72-16.53a351,351,0,0,1-6.13-35.86c-.35-3.16-5.35-3.2-5,0Z"/>
      <path d="M212.64,271.26a113,113,0,0,1,29.7,5.65c3.06,1,4.37-3.81,1.33-4.82a118.35,118.35,0,0,0-31-5.83c-3.21-.18-3.2,4.82,0,5Z"/>
      <path d="M214.36,267.79c-3.89,3.29-3.19,9.28.46,12.53,4.87,4.34,13.41,3.45,19.4,3.73,3.66.18,14.34,2.67,15.61-2.94.84-3.68-3.8-5.33-6.21-3.07a2.44,2.44,0,0,0-.64,2.43l.17.46c1.13,3,6,1.69,4.82-1.33l-.17-.46-.64,2.44c.4-.38-4.58-2.06-5.31-2.17-1.24-.18-2.56-.12-3.81-.18l-8.59-.4a41.58,41.58,0,0,1-7.48-.62c-2.67-.62-7.72-3.81-4.07-6.89,2.46-2.08-1.09-5.6-3.54-3.53Z"/>
      <path d="M208.86,278c.39.22-.5,1.46-.89,1.59-1.32.44-2.4-1.32-2.87-2.2a10.88,10.88,0,0,1-.77-6.27c.29-2.06,1.15-4.84,3.24-5.79s5.46,1.34,3.81,3.51c-2,2.55,2.39,5,4.31,2.52,3.59-4.7-1.25-10.91-6.42-11.31-6.75-.52-10.06,7.21-10.07,12.84,0,5,3,12.64,9.25,11.72,5.06-.74,7.8-8.11,2.94-10.93-2.79-1.62-5.31,2.7-2.53,4.32Z"/>
      <path d="M236.66,269.4a144.5,144.5,0,0,0,5.55,30L247,298.1a96.19,96.19,0,0,1-4.1-43.39c.43-3.14-4.39-4.51-4.82-1.33a101.83,101.83,0,0,0,4.1,46.05c1,3,5.75,1.77,4.82-1.33a138.52,138.52,0,0,1-5.37-28.7c-.25-3.18-5.25-3.21-5,0Z"/>
      <path d="M247.65,270a273.2,273.2,0,0,0,49.65,9.57c7.28.71,15.67.26,22.23,3.94,7.19,4,9,12.82,10.36,20.25L333,300.7a17.27,17.27,0,0,0-9,.14c-3.67,1.12-6.92,5.38-10.95,5-3.73-.38-8-3-11.63-4.15-4.13-1.34-8.32-2.51-12.54-3.5a160.43,160.43,0,0,0-24.56-3.73c-5.71-.42-15.28-.34-17.33-7.09-.94-3.07-5.77-1.76-4.82,1.33,1.73,5.68,6.63,8.41,12.18,9.62,8.47,1.86,17.35,1.6,25.91,3.18a177.19,177.19,0,0,1,28.58,8.16c3,1.09,6.05,2.09,9.15.75,2-.86,3.3-2.59,5.12-3.69a11.21,11.21,0,0,1,8.53-1.16,2.53,2.53,0,0,0,3.08-3.07c-1.36-7.14-3.13-14.92-8.56-20.17-5-4.82-11.83-6.15-18.5-6.82-20-2-39.33-4.66-58.67-10.26-3.09-.9-4.41,3.93-1.33,4.82Z"/>
      <path d="M244,282.77c3.29-3.83,10.7-1.06,14.84-.32l16.54,2.94,33.07,5.87v-4.82a42.23,42.23,0,0,1-29-1.42c-3-1.23-4.27,3.61-1.33,4.82a46.61,46.61,0,0,0,31.69,1.42c2.19-.67,2.56-4.36,0-4.82l-40.85-7.26c-5.81-1-11.65-2.35-17.5-3.05-4.09-.5-8.14-.19-11,3.1-2.09,2.43,1.43,6,3.53,3.54Z"/>
      <path d="M37.53,190.35c-2.81-.58-3.29-4.58-1.68-6.64,2.83-3.59,8.71-.63,10.83,2.2l.39-3A7,7,0,0,1,42,185.77c-3.18.26-3.21,5.27,0,5a11.92,11.92,0,0,0,8.61-4.35,2.58,2.58,0,0,0,.39-3c-4.2-5.59-13.79-9.35-19-2.79-3.71,4.67-2.19,13.26,4.21,14.57,3.14.64,4.48-4.18,1.33-4.82Z"/>
      <path d="M9.19,167c3.61,1.51,1,7.87.81,10.58-.28,3.85,1,6.45,3,9.61a31,31,0,0,1,4.22,25.08c-.79,3.12,4,4.45,4.83,1.33a36,36,0,0,0-4.3-28.29c-.54-.87-1.24-1.69-1.71-2.6-1.57-3.05-1-5-.51-8.1a17.82,17.82,0,0,0,.34-5.15,8.35,8.35,0,0,0-5.37-7.28c-3-1.24-4.26,3.6-1.33,4.82Z"/>
      <path d="M26.32,160.15,31,175.48c.93,3.07,5.76,1.76,4.82-1.33l-4.65-15.33c-.94-3.07-5.76-1.76-4.83,1.33Z"/>
      <path d="M34.89,220.92l1.7,5.06a2.56,2.56,0,0,0,3.07,1.75,2.52,2.52,0,0,0,1.75-3.07l-1.7-5.07a2.5,2.5,0,1,0-4.82,1.33Z"/>
      <path d="M47.77,156.39c7.29-1.76,4.84,12.41,4.93,15.59.12,4.07,1.39,7.66,4.66,10.23s8,3,11.47,5.48c5.91,4.23,3.65,12.2,1.87,18-.94,3.08,3.89,4.4,4.83,1.33,1.8-5.93,3.6-13.19.37-19-3.09-5.54-9-6-14-8.84-7.53-4.31-2.34-13.48-4.53-20.25-1.6-4.92-5.62-8.7-11-7.41-3.12.76-1.8,5.58,1.33,4.82Z"/>
    </g>
  </g>
</svg>
