<svg xmlns="http://www.w3.org/2000/svg" viewBox="0 0 72.87 83.9">
  <title>skull</title>
  <g id="Layer_2" data-name="Layer 2">
    <g id="Layer_1-2" data-name="Layer 1">
      <path d="M21,49.31c-5.08.35-9.08-5.63-11.7-9.33s-4.79-7.8-4.44-12.34c.7-9,10.21-15,17.57-18.41C37.91,2,61.45,3.85,67.1,23.08c2.54,8.62-1.27,17.34-3.71,25.51-2.19,7.34-1.82,14.4-3,21.83-.87,5.33-3.72,8.24-9.36,8.45a38.73,38.73,0,0,1-11.78-1.48c-5.67-1.65-7.7-5.2-8.5-10.85-.74-5.26-1.32-10.55-2-15.82-.39-3.15-5.4-3.19-5,0,.73,5.8,1.35,11.63,2.19,17.41.54,3.7,1.5,7.27,4.26,10,5.18,5,14.7,6.1,21.59,5.74,7.55-.38,12.27-5,13.47-12.4.6-3.61.46-7.28.75-10.92.42-5.31,2.12-10.36,3.71-15.41,2.59-8.24,4.75-16.93,1.54-25.33A31,31,0,0,0,55.67,3.38c-15.6-7.51-36.11-1.74-48.28,9.8C.74,19.49-2.1,28.08,1.71,36.76c3.07,7,10.58,18.16,19.31,17.55,3.19-.23,3.22-5.23,0-5Z"/>
      <path d="M37.62,50.74l1.25,22.43c.18,3.2,5.18,3.22,5,0L42.62,50.74c-.18-3.2-5.18-3.22-5,0Z"/>
      <path d="M47.07,53.79a82.3,82.3,0,0,0,2.1,24.13c.75,3.13,5.57,1.8,4.83-1.33a77.4,77.4,0,0,1-1.93-22.8c.2-3.22-4.81-3.21-5,0Z"/>
      <path d="M25.67,34.07c.71-.2,1.06,0,1,.58a1.13,1.13,0,0,1,.47-.59,7.61,7.61,0,0,1,1.87-1.19,17.53,17.53,0,0,1,4.78-1.62l-2.43-.64a2.46,2.46,0,0,1-.95,4.19c-3.13.72-1.81,5.54,1.33,4.82a7.26,7.26,0,0,0,5.37-6.42,7.29,7.29,0,0,0-.76-4.33c-1-1.84-2.41-2.76-4.51-2.31-3.46.73-8.48,2.67-9.82,6.29s2.56,8,6.13,5.53c2.61-1.83.12-6.17-2.53-4.31Z"/>
      <path d="M56.38,30.1c-1.07.61-3-.69-1.54-1.92S57.14,29,56.5,30c-1.75,2.71,2.57,5.22,4.32,2.52a6.56,6.56,0,0,0-1-8,6.22,6.22,0,0,0-8.92,8.63,6.59,6.59,0,0,0,8,1.26c2.79-1.6.28-5.92-2.52-4.32Z"/>
    </g>
  </g>
</svg>
