<svg xmlns="http://www.w3.org/2000/svg" viewBox="0 0 269.27 175.49">
  <title>spider</title>
  <g id="Layer_2" data-name="Layer 2">
    <g id="Layer_1-2" data-name="Layer 1">
      <path d="M99.46,126.51c-10.39-3.5-24.18-9.72-25.26-22.3-1-11.94,11-22.56,22.45-22.13,12,.44,22.08,10.33,25.61,21.35,2.18,6.8,2.35,14.91-4.46,19.06s-15.28,2.59-22.71,1.2c-3.14-.59-4.49,4.22-1.33,4.82,11.61,2.18,28.25,3.66,33.66-9.9,4.51-11.32-2.66-25.7-11.13-33.22S95.68,74.55,85,79.58c-9.82,4.63-17.33,15.47-15.57,26.59,2.21,14,16.64,21.1,28.7,25.16,3.06,1,4.37-3.8,1.33-4.82Z"/>
      <path d="M106.68,72.42c-.35-11.91-4.39-24.85-.73-36.55,3.74-12,17-19.4,27.87-24.1a81.62,81.62,0,0,1,69.58,2.08c19.12,9.9,36.84,28.79,36.88,51.55,0,26.35-29.29,35.31-50.34,40.56a175.36,175.36,0,0,1-86.57-.65c-3.12-.82-4.44,4-1.33,4.82a180.94,180.94,0,0,0,85.77,1.47c22.22-5,53.46-14.12,57.08-40.64,3.22-23.67-13.29-45.39-32.19-57.52a86.36,86.36,0,0,0-74.35-8.76c-12.64,4.34-27.91,12-34.75,24.05-7.56,13.36-2.34,29.36-1.92,43.69.1,3.21,5.1,3.23,5,0Z"/>
      <path d="M119,109.74l63-31.36-3.42-.9a710.54,710.54,0,0,0,61.33,97c1.91,2.54,6.25,0,4.32-2.53A711.47,711.47,0,0,1,182.86,75a2.54,2.54,0,0,0-3.42-.9l-63,31.37c-2.88,1.43-.35,5.75,2.53,4.31Z"/>
      <path d="M118.68,114.53l28.43-7.69c4.41-1.2,8.81-2.56,13.27-3.59,3.73-.87,7.06-2,8.35,3.24.41,1.68.06,3.78.1,5.5A128.82,128.82,0,0,0,180,161.51c1.3,2.94,5.61.4,4.32-2.52a124.82,124.82,0,0,1-9-30.55A117.82,117.82,0,0,1,173.83,112c-.07-3.56.4-7.76-1.71-10.88-4.72-6.93-15.46-2-21.6-.38l-33.17,9c-3.1.84-1.79,5.67,1.33,4.83Z"/>
      <path d="M135.35,94.7a245.17,245.17,0,0,0,43.14-11.21q10.15-3.67,20-8.23c3.31-1.53,6.51-3.28,9.81-4.82,4.45-2.07,7.13-1,9.69,3,3.49,5.52,5.94,11.8,9.14,17.51q5.11,9.11,11,17.73A245.17,245.17,0,0,0,265,141.41c2.25,2.31,5.78-1.22,3.54-3.53a237.87,237.87,0,0,1-30-37.53q-6.12-9.52-11.3-19.6c-2.56-5-4.61-11.38-9.33-14.81s-9.21-1.34-13.84,1a238.46,238.46,0,0,1-22.7,10.12A243.92,243.92,0,0,1,134,89.88c-3.17.53-1.82,5.35,1.33,4.82Z"/>
      <path d="M102.27,85.19a256.63,256.63,0,0,0-33-43,2.54,2.54,0,0,0-3.54,0A285.12,285.12,0,0,0,33.44,85c-1.69,2.75,2.63,5.26,4.32,2.52A278.07,278.07,0,0,1,69.27,45.7H65.73A250.3,250.3,0,0,1,98,87.71c1.67,2.74,6,.23,4.31-2.52Z"/>
      <path d="M104.35,63.55c-4.64-12.72-8.78-25.76-13.94-38.27-1.19-2.88-3-6.22-6.69-5.9-4.28.39-8.49,5.94-11.29,8.73A141.39,141.39,0,0,0,38.25,83.72c-1,3.06,3.81,4.37,4.82,1.32A135.7,135.7,0,0,1,69.89,38.12q4.27-4.86,9-9.28c2.19-2.05,4.63-4.22,7-1.32,1.35,1.63,1.92,5.28,2.65,7.29l11,30.07c1.1,3,5.93,1.7,4.83-1.33Z"/>
      <path d="M93.37,83.64A551.93,551.93,0,0,0,34.86,43.52a2.53,2.53,0,0,0-3.42.9A328.58,328.58,0,0,0,.09,124c-.79,3.12,4,4.45,4.82,1.33A323.8,323.8,0,0,1,35.75,46.94l-3.42.9a538.68,538.68,0,0,1,57.5,39.34c2.51,2,6.07-1.55,3.54-3.54Z"/>
      <path d="M86.22,110l-1.69-3.38a2.51,2.51,0,0,0-3.42-.9,2.56,2.56,0,0,0-.9,3.42l1.69,3.38a2.53,2.53,0,0,0,3.42.9,2.56,2.56,0,0,0,.9-3.42Z"/>
      <path d="M85.83,106.13l-1.69-1.69A2.5,2.5,0,0,0,80.6,108l1.69,1.69a2.5,2.5,0,1,0,3.54-3.54Z"/>
      <path d="M80.68,105.33c3.22,0,3.22-5,0-5s-3.22,5,0,5Z"/>
      <path d="M87.44,96.88c3.22,0,3.22-5,0-5s-3.22,5,0,5Z"/>
      <path d="M85.75,102c3.22,0,3.22-5,0-5s-3.22,5,0,5Z"/>
      <path d="M97.57,100.26c3.22,0,3.23-5,0-5s-3.22,5,0,5Z"/>
      <path d="M99.26,122.22c3.22,0,3.23-5,0-5s-3.22,5,0,5Z"/>
      <path d="M87.44,110.4c3.22,0,3.22-5,0-5s-3.22,5,0,5Z"/>
      <path d="M92.51,110.4c3.21,0,3.22-5,0-5s-3.23,5,0,5Z"/>
      <path d="M104.33,120.53c3.22,0,3.22-5,0-5s-3.22,5,0,5Z"/>
      <path d="M97.16,125.25c2.8,3.59,7.34,10.44,3.15,14.51a2.52,2.52,0,0,0,1.1,4.18,24.38,24.38,0,0,0,18-3.15,2.57,2.57,0,0,0,.9-3.42,43.54,43.54,0,0,0-7.48-10.93c-2.19-2.37-5.72,1.18-3.53,3.53a39.42,39.42,0,0,1,6.69,9.92l.9-3.42a19.13,19.13,0,0,1-14.14,2.65l1.11,4.18c6.56-6.37,1.42-15.71-3.15-21.59-2-2.54-5.49,1-3.54,3.54Z"/>
      <path d="M72.17,114.07c-5.64-.63-12.15-1.12-16.84,2.74-3.57,2.93-5.49,7.68-3.71,12.11A2.55,2.55,0,0,0,55.8,130a30.73,30.73,0,0,1,19.79-6.67c3.21,0,3.22-5,0-5a36.12,36.12,0,0,0-23.32,8.13l4.18,1.1c-3.75-9.31,10.55-9.1,15.72-8.52,3.19.36,3.17-4.64,0-5Z"/>
    </g>
  </g>
</svg>
