<svg xmlns="http://www.w3.org/2000/svg" viewBox="0 0 86.53 117.41">
  <title>staff</title>
  <g id="Layer_2" data-name="Layer 2">
    <g id="Layer_1-2" data-name="Layer 1">
      <path d="M71.89,104c-24.17-18.42-21.82-51-35-75.66-2.41-4.51-5.58-8.83-9.82-11.78-3.3-2.29-9-4.89-13-3-3.49,1.62-3.93,6.29-3.12,9.64A13.62,13.62,0,0,0,20.36,33l-1.1-4.18C9.87,37.28,1.82,17.64,6.37,10.52s15.57-6.13,22.26-3c15.5,7.16,21.23,24.35,24.71,39.77,3.43,15.18,5.75,31.39,15.42,44.14,3.49,4.6,13.88,11.4,12.78,18-1,6-4.75.75-6.32-1.43a15,15,0,0,0-5.31-5.08c-2.86-1.46-5.39,2.86-2.52,4.32,4.73,2.4,5.73,9.87,11.82,10.2,5.74.31,8.11-6.19,7.09-10.92C84.49,98.14,75.71,93,71.19,86.23c-5.38-8-8-17.57-10.14-26.91C57.14,42.07,54.56,23,41.14,10.18,31.82,1.25,12.84-5.63,3.06,6.61S8.53,45.22,22.79,32.32a2.52,2.52,0,0,0-1.1-4.18,8.4,8.4,0,0,1-5.6-5.41c-1.2-3.61,1.42-5.13,4.52-4,4.63,1.69,8.06,5.6,10.58,9.68,5.46,8.85,7.72,19.5,10.46,29.42C46.86,76.69,53.2,96,69.37,108.28c2.55,2,5-2.39,2.52-4.31Z"/>
    </g>
  </g>
</svg>
