<svg xmlns="http://www.w3.org/2000/svg" viewBox="0 0 90.7 97.22">
  <title>sword</title>
  <g id="Layer_2" data-name="Layer 2">
    <g id="Layer_1-2" data-name="Layer 1">
      <path d="M18.13,61.48Q32.82,42.25,49,24.21c4.75-5.3,9.62-12,15.81-15.65C71.41,4.62,79.5,4.89,87,5.07L84.53,3.24A40.85,40.85,0,0,1,80.14,33.7C74.73,43,66.63,50.6,59.41,58.43c-3.65,4-7.23,8-11,11.89-3.32,3.43-7.74,7.82-12.92,7.32-5.35-.52-9.86-6.42-13.57-9.88L9.65,56.32c-2.35-2.19-5.9,1.34-3.54,3.54l15,14c3.89,3.62,7.84,8,13.38,8.76,10.95,1.52,19.4-10.84,25.77-17.76,8.54-9.25,18.35-18.29,24.58-29.35A46,46,0,0,0,89.36,1.91,2.55,2.55,0,0,0,87,.07c-7.32-.17-15-.27-21.86,2.74C58,5.92,53,12.29,48,17.87Q30,37.67,13.81,59c-2,2.55,2.39,5,4.32,2.52Z"/>
      <path d="M33.56,83.32l9.18,5.11c2.81,1.57,5.34-2.75,2.52-4.32L36.08,79c-2.81-1.56-5.33,2.75-2.52,4.32Z"/>
      <path d="M19.78,69.41A19.9,19.9,0,0,0,9.24,78.94c-1.43,2.87,2.88,5.41,4.32,2.52a14.75,14.75,0,0,1,7.55-7.23,2.58,2.58,0,0,0,1.75-3.07,2.53,2.53,0,0,0-3.08-1.75Z"/>
      <path d="M24,74.42l-7.12,9.2a2.57,2.57,0,0,0,0,3.53,2.5,2.5,0,0,0,3.53,0L27.52,78a2.59,2.59,0,0,0,0-3.54,2.53,2.53,0,0,0-3.54,0Z"/>
      <path d="M7.24,91.77c-4-2.37-2.35-9.22,2.65-8.3,6,1.11,4.07,9.13-1.51,8.72-3.21-.23-3.2,4.77,0,5a10,10,0,0,0,10.31-8.81c.52-4.74-3-8.76-7.52-9.74A9,9,0,0,0,.54,84.32,10,10,0,0,0,4.71,96.09c2.77,1.65,5.29-2.67,2.53-4.32Z"/>
      <path d="M25.22,68.53C32,59.43,38.58,50,45.9,41.3,52.12,33.91,59.37,27.36,69.26,26c3.17-.45,1.82-5.27-1.33-4.82-10.11,1.43-18,8-24.56,15.44C35.29,45.86,28.28,56.17,20.9,66c-1.93,2.58,2.4,5.07,4.32,2.53Z"/>
      <path d="M67,23.71a24.89,24.89,0,0,1-.73,9.94c-.86,3.1,4,4.43,4.82,1.33a31,31,0,0,0,.73-12.6c-.43-3.18-5.25-1.82-4.82,1.33Z"/>
      <path d="M30,75.31,71.76,37.59c2.4-2.16-1.15-5.69-3.53-3.53L26.46,71.77c-2.4,2.16,1.15,5.69,3.53,3.54Z"/>
    </g>
  </g>
</svg>
