<svg xmlns="http://www.w3.org/2000/svg" viewBox="0 0 78.65 79.32">
  <title>toque</title>
  <g id="Layer_2" data-name="Layer 2">
    <g id="Layer_1-2" data-name="Layer 1">
      <path d="M6.26,74.07C2.89,56.85,4.85,33.26,19.8,21.53c8.05-6.31,18.2-5.86,27.49-2.84a94,94,0,0,1,13.38,5.72c5.64,2.89,8,6.77,9.43,12.82a98.59,98.59,0,0,1,2.18,13.66c.2,2.23.77,5,.4,7.24-.64,3.84-1.89,3.44-5.38,3a98.14,98.14,0,0,0-25.51.52A100,100,0,0,0,16.48,69c-1.72.76-9.53,6-11,5-.74-.49-.54-5.52-.43-6.36.48-3.72,2.94-5.7,6.14-7.17,19.68-9,43.94-10.33,65.11-7.61,3.18.41,3.15-4.59,0-5a139.84,139.84,0,0,0-39.14.47,135.36,135.36,0,0,0-17.92,4C14.37,53.79,8.67,55.23,4.67,58.5,1.12,61.39-.14,65.36,0,69.84c.11,3.28.19,8,3.89,9.22,3.91,1.34,8.71-2.75,12-4.31a95.33,95.33,0,0,1,36.84-9.11c6.21-.25,12.23,1,18.37,1,3.78,0,6.09-1.74,6.58-5.53.74-5.75-.47-12.38-1.37-18.08-.82-5.18-1.66-10.83-4.33-15.43-2.81-4.84-7.84-7.13-12.71-9.4-10.25-4.8-22.12-9-33.42-5.42C1.23,20.5-2.73,54.07,1.44,75.4c.62,3.15,5.44,1.82,4.82-1.33Z"/>
      <path d="M21.49,20.05c-5,1.14-6.41,6.39-7.95,10.65A111.8,111.8,0,0,0,8.26,51.57c-.5,3.15,4.32,4.5,4.82,1.33a115.12,115.12,0,0,1,3-13.74c1-3.34,2.82-13.38,6.77-14.29,3.14-.72,1.81-5.54-1.33-4.82Z"/>
      <path d="M27,20A44.4,44.4,0,0,0,29.5,43.92c1.18,2.95,6,1.66,4.82-1.33a39.63,39.63,0,0,1-2.49-21.23c.5-3.15-4.31-4.51-4.82-1.33Z"/>
      <path d="M42.81,20.1A24.21,24.21,0,0,1,61.71,41c.32,3.17,5.32,3.2,5,0A29.26,29.26,0,0,0,44.14,15.28c-3.14-.7-4.48,4.12-1.33,4.82Z"/>
      <path d="M23.38,12c-3.95,1.13-6.91-4.07-3.08-6.4C23.94,3.33,26.85,8,24.76,11c-1.82,2.66,2.51,5.17,4.32,2.53a9,9,0,0,0-.87-10.92A8.26,8.26,0,0,0,17.29,1.56a8.33,8.33,0,0,0-3.07,10.5,9.11,9.11,0,0,0,10.49,4.73c3.09-.88,1.78-5.71-1.33-4.83Z"/>
    </g>
  </g>
</svg>
